{"glyphs":{"0":{"ha":903,"x_min":83,"x_max":819,"o":"m 83 111 l 83 861 l 194 972 l 708 972 l 819 861 l 819 111 l 708 0 l 194 0 l 83 111 m 208 861 l 208 111 l 694 111 l 694 861 l 208 861 z "},"1":{"ha":597,"x_min":63,"x_max":535,"o":"m 63 -6 l 63 106 l 250 113 l 250 825 l 76 813 l 76 917 l 375 972 l 375 113 l 535 106 l 535 -6 l 299 6 l 63 -6 z "},"2":{"ha":917,"x_min":83,"x_max":833,"o":"m 833 111 l 833 0 l 83 0 l 83 489 l 708 558 l 708 861 l 97 861 l 97 972 l 722 972 l 833 861 l 833 465 l 208 396 l 208 111 l 833 111 z "},"3":{"ha":847,"x_min":42,"x_max":792,"o":"m 681 0 l 42 0 l 42 111 l 667 111 l 667 444 l 125 444 l 125 556 l 639 556 l 639 861 l 56 861 l 56 972 l 653 972 l 764 861 l 764 568 l 685 508 l 792 425 l 792 111 l 681 0 z "},"4":{"ha":889,"x_min":56,"x_max":806,"o":"m 56 250 l 103 972 l 222 972 l 181 361 l 681 361 l 681 972 l 806 972 l 806 0 l 681 0 l 681 250 l 56 250 z "},"5":{"ha":917,"x_min":83,"x_max":833,"o":"m 833 861 l 208 861 l 208 581 l 833 539 l 833 111 l 722 0 l 97 0 l 97 111 l 708 111 l 708 442 l 83 483 l 83 972 l 833 972 l 833 861 z "},"6":{"ha":903,"x_min":83,"x_max":819,"o":"m 194 0 l 83 111 l 83 861 l 194 972 l 764 972 l 764 861 l 208 861 l 208 611 l 722 611 l 819 514 l 819 111 l 708 0 l 194 0 m 208 111 l 694 111 l 694 500 l 208 500 l 208 111 z "},"7":{"ha":861,"x_min":56,"x_max":806,"o":"m 208 0 l 681 643 l 681 861 l 181 861 l 181 639 l 56 639 l 56 972 l 806 972 l 806 617 l 357 0 l 208 0 z "},"8":{"ha":931,"x_min":69,"x_max":861,"o":"m 222 563 l 708 563 l 708 861 l 222 861 l 222 563 m 194 111 l 736 111 l 736 451 l 194 451 l 194 111 m 181 0 l 69 111 l 69 425 l 176 508 l 97 568 l 97 861 l 208 972 l 722 972 l 833 861 l 833 568 l 754 508 l 861 425 l 861 111 l 750 0 l 181 0 z "},"9":{"ha":903,"x_min":83,"x_max":819,"o":"m 708 972 l 819 861 l 819 111 l 708 0 l 139 0 l 139 111 l 694 111 l 694 361 l 181 361 l 83 458 l 83 861 l 194 972 l 708 972 m 694 861 l 208 861 l 208 472 l 694 472 l 694 861 z "}," ":{"ha":361,"x_min":0,"x_max":0,"o":""},"A":{"ha":903,"x_min":28,"x_max":875,"o":"m 28 0 l 281 972 l 622 972 l 875 0 l 747 0 l 683 250 l 219 250 l 156 0 l 28 0 m 247 358 l 656 358 l 526 864 l 376 864 l 247 358 z "},"B":{"ha":889,"x_min":83,"x_max":833,"o":"m 208 563 l 681 563 l 681 861 l 208 861 l 208 563 m 208 111 l 708 111 l 708 451 l 208 451 l 208 111 m 806 861 l 806 582 l 740 522 l 833 439 l 833 111 l 722 0 l 83 0 l 83 972 l 694 972 l 806 861 z "},"C":{"ha":764,"x_min":83,"x_max":722,"o":"m 83 111 l 83 861 l 194 972 l 708 972 l 708 858 l 208 858 l 208 114 l 722 114 l 722 0 l 194 0 l 83 111 z "},"D":{"ha":882,"x_min":83,"x_max":799,"o":"m 208 111 l 674 111 l 674 861 l 208 861 l 208 111 m 83 0 l 83 972 l 688 972 l 799 861 l 799 111 l 688 0 l 83 0 z "},"E":{"ha":806,"x_min":83,"x_max":764,"o":"m 83 0 l 83 972 l 750 972 l 750 861 l 208 861 l 208 556 l 681 556 l 681 444 l 208 444 l 208 111 l 764 111 l 764 0 l 83 0 z "},"F":{"ha":792,"x_min":83,"x_max":750,"o":"m 83 0 l 83 972 l 750 972 l 750 861 l 208 861 l 208 472 l 722 472 l 722 361 l 208 361 l 208 0 l 83 0 z "},"G":{"ha":903,"x_min":83,"x_max":819,"o":"m 83 111 l 83 861 l 194 972 l 778 972 l 778 861 l 208 861 l 208 111 l 700 111 l 700 454 l 403 454 l 403 563 l 819 563 l 819 0 l 194 0 l 83 111 z "},"H":{"ha":931,"x_min":83,"x_max":847,"o":"m 83 0 l 83 972 l 208 972 l 208 556 l 722 556 l 722 972 l 847 972 l 847 0 l 722 0 l 722 444 l 208 444 l 208 0 l 83 0 z "},"I":{"ha":597,"x_min":63,"x_max":535,"o":"m 63 -6 l 63 106 l 236 113 l 236 860 l 63 867 l 63 978 l 299 967 l 535 978 l 535 867 l 361 860 l 361 113 l 535 106 l 535 -6 l 299 6 l 63 -6 z "},"J":{"ha":833,"x_min":56,"x_max":750,"o":"m 56 125 l 56 417 l 181 417 l 181 111 l 625 111 l 625 861 l 83 861 l 83 972 l 750 972 l 750 125 l 625 0 l 181 0 l 56 125 z "},"K":{"ha":875,"x_min":83,"x_max":867,"o":"m 83 0 l 83 972 l 208 972 l 208 549 l 438 549 l 699 972 l 846 972 l 554 514 l 867 0 l 722 0 l 457 438 l 208 438 l 208 0 l 83 0 z "},"L":{"ha":833,"x_min":83,"x_max":792,"o":"m 83 0 l 83 972 l 208 972 l 208 111 l 672 111 l 672 389 l 792 389 l 792 0 l 83 0 z "},"M":{"ha":1083,"x_min":83,"x_max":1000,"o":"m 83 0 l 83 972 l 242 972 l 542 447 l 842 972 l 1000 972 l 1000 0 l 878 0 l 878 819 l 583 306 l 500 306 l 206 819 l 206 0 l 83 0 z "},"N":{"ha":944,"x_min":83,"x_max":861,"o":"m 83 0 l 83 972 l 261 972 l 736 146 l 736 972 l 861 972 l 861 0 l 683 0 l 208 826 l 208 0 l 83 0 z "},"O":{"ha":944,"x_min":83,"x_max":861,"o":"m 83 111 l 83 861 l 194 972 l 750 972 l 861 861 l 861 111 l 750 0 l 194 0 l 83 111 m 208 861 l 208 111 l 736 111 l 736 861 l 208 861 z "},"P":{"ha":861,"x_min":83,"x_max":806,"o":"m 208 319 l 681 319 l 681 861 l 208 861 l 208 319 m 806 861 l 806 319 l 694 208 l 208 208 l 208 0 l 83 0 l 83 972 l 694 972 l 806 861 z "},"Q":{"ha":944,"x_min":83,"x_max":917,"o":"m 83 111 l 83 861 l 194 972 l 750 972 l 861 861 l 861 83 l 736 -12 l 736 861 l 208 861 l 208 110 l 917 -12 l 917 -125 l 194 0 l 83 111 z "},"R":{"ha":903,"x_min":83,"x_max":896,"o":"m 208 444 l 694 444 l 694 861 l 208 861 l 208 444 m 819 861 l 819 444 l 726 351 l 896 0 l 761 0 l 604 333 l 208 333 l 208 0 l 83 0 l 83 972 l 708 972 l 819 861 z "},"S":{"ha":889,"x_min":83,"x_max":806,"o":"m 97 0 l 97 111 l 681 111 l 681 421 l 83 467 l 83 861 l 194 972 l 792 972 l 792 861 l 208 861 l 208 565 l 806 519 l 806 111 l 694 0 l 97 0 z "},"T":{"ha":778,"x_min":28,"x_max":750,"o":"m 326 0 l 326 861 l 28 861 l 28 972 l 750 972 l 750 861 l 451 861 l 451 0 l 326 0 z "},"U":{"ha":903,"x_min":83,"x_max":819,"o":"m 83 111 l 83 972 l 208 972 l 208 111 l 694 111 l 694 972 l 819 972 l 819 111 l 708 0 l 194 0 l 83 111 z "},"V":{"ha":903,"x_min":28,"x_max":875,"o":"m 281 0 l 28 972 l 156 972 l 376 111 l 526 111 l 747 972 l 875 972 l 622 0 l 281 0 z "},"W":{"ha":1194,"x_min":28,"x_max":1167,"o":"m 183 0 l 28 972 l 151 972 l 286 111 l 375 111 l 511 819 l 683 819 l 819 111 l 908 111 l 1043 972 l 1167 972 l 1011 0 l 724 0 l 597 678 l 471 0 l 183 0 z "},"X":{"ha":917,"x_min":28,"x_max":889,"o":"m 28 0 l 278 514 l 49 972 l 185 972 l 389 556 l 528 556 l 732 972 l 868 972 l 639 514 l 889 0 l 753 0 l 542 444 l 375 444 l 164 0 l 28 0 z "},"Y":{"ha":889,"x_min":35,"x_max":854,"o":"m 382 0 l 382 292 l 260 292 l 35 972 l 167 972 l 347 400 l 542 400 l 722 972 l 854 972 l 629 292 l 507 292 l 507 0 l 382 0 z "},"Z":{"ha":778,"x_min":69,"x_max":708,"o":"m 69 0 l 69 97 l 563 861 l 69 861 l 69 972 l 708 972 l 708 875 l 215 111 l 708 111 l 708 0 l 69 0 z "},"a":{"ha":833,"x_min":69,"x_max":750,"o":"m 69 125 l 69 444 l 625 458 l 625 667 l 97 667 l 97 778 l 625 778 l 750 653 l 750 0 l 194 0 l 69 125 m 194 333 l 194 111 l 625 111 l 625 361 l 194 333 z "},"b":{"ha":861,"x_min":83,"x_max":785,"o":"m 83 0 l 83 972 l 208 972 l 208 778 l 660 778 l 785 653 l 785 125 l 660 0 l 83 0 m 208 111 l 660 111 l 660 667 l 208 667 l 208 111 z "},"c":{"ha":757,"x_min":76,"x_max":715,"o":"m 76 125 l 76 653 l 201 778 l 715 778 l 715 667 l 201 667 l 201 111 l 715 111 l 715 0 l 201 0 l 76 125 z "},"d":{"ha":861,"x_min":76,"x_max":778,"o":"m 778 972 l 778 0 l 201 0 l 76 125 l 76 653 l 201 778 l 653 778 l 653 972 l 778 972 m 201 111 l 653 111 l 653 667 l 201 667 l 201 111 z "},"e":{"ha":819,"x_min":76,"x_max":743,"o":"m 76 125 l 76 653 l 201 778 l 743 778 l 743 347 l 201 347 l 201 111 l 715 111 l 715 0 l 201 0 l 76 125 m 201 444 l 624 458 l 624 667 l 201 667 l 201 444 z "},"f":{"ha":569,"x_min":83,"x_max":542,"o":"m 83 0 l 83 847 l 208 972 l 542 972 l 542 861 l 208 861 l 208 597 l 542 597 l 542 486 l 208 486 l 208 0 l 83 0 z "},"g":{"ha":847,"x_min":76,"x_max":764,"o":"m 125 -194 l 125 -83 l 639 -83 l 639 111 l 201 111 l 76 236 l 76 653 l 215 778 l 764 778 l 764 -64 l 633 -194 l 125 -194 m 201 667 l 201 222 l 639 222 l 639 667 l 201 667 z "},"h":{"ha":861,"x_min":83,"x_max":778,"o":"m 83 0 l 83 972 l 208 972 l 208 778 l 653 778 l 778 653 l 778 0 l 653 0 l 653 667 l 208 667 l 208 0 l 83 0 z "},"i":{"ha":292,"x_min":83,"x_max":208,"o":"m 83 0 l 83 778 l 208 778 l 208 0 l 83 0 m 83 875 l 83 986 l 208 986 l 208 875 l 83 875 z "},"j":{"ha":292,"x_min":83,"x_max":208,"o":"m 83 -194 l 83 778 l 208 778 l 208 -194 l 83 -194 m 83 875 l 83 986 l 208 986 l 208 875 l 83 875 z "},"k":{"ha":833,"x_min":83,"x_max":819,"o":"m 83 0 l 83 972 l 208 972 l 208 460 l 456 460 l 664 778 l 807 778 l 563 419 l 819 0 l 678 0 l 468 349 l 208 349 l 208 0 l 83 0 z "},"l":{"ha":292,"x_min":83,"x_max":208,"o":"m 83 0 l 83 972 l 208 972 l 208 0 l 83 0 z "},"m":{"ha":1278,"x_min":83,"x_max":1194,"o":"m 83 778 l 1056 778 l 1194 639 l 1194 0 l 1069 0 l 1069 667 l 701 667 l 701 0 l 576 0 l 576 667 l 208 667 l 208 0 l 83 0 l 83 778 z "},"n":{"ha":861,"x_min":83,"x_max":778,"o":"m 83 0 l 83 778 l 653 778 l 778 653 l 778 0 l 653 0 l 653 667 l 208 667 l 208 0 l 83 0 z "},"o":{"ha":833,"x_min":76,"x_max":757,"o":"m 76 125 l 76 653 l 201 778 l 632 778 l 757 653 l 757 125 l 632 0 l 201 0 l 76 125 m 201 111 l 632 111 l 632 667 l 201 667 l 201 111 z "},"p":{"ha":861,"x_min":83,"x_max":785,"o":"m 83 -194 l 83 778 l 660 778 l 785 653 l 785 125 l 660 0 l 208 0 l 208 -194 l 83 -194 m 660 667 l 208 667 l 208 111 l 660 111 l 660 667 z "},"q":{"ha":861,"x_min":76,"x_max":778,"o":"m 778 778 l 778 -194 l 653 -194 l 653 0 l 201 0 l 76 125 l 76 653 l 201 778 l 778 778 m 653 667 l 201 667 l 201 111 l 653 111 l 653 667 z "},"r":{"ha":653,"x_min":83,"x_max":625,"o":"m 83 0 l 83 653 l 208 778 l 625 778 l 625 667 l 208 667 l 208 0 l 83 0 z "},"s":{"ha":833,"x_min":76,"x_max":757,"o":"m 76 0 l 76 111 l 632 111 l 632 340 l 76 340 l 76 653 l 201 778 l 757 778 l 757 667 l 201 667 l 201 451 l 757 451 l 757 121 l 636 0 l 76 0 z "},"t":{"ha":597,"x_min":83,"x_max":569,"o":"m 83 903 l 208 972 l 208 750 l 569 750 l 569 639 l 208 639 l 208 111 l 569 111 l 569 0 l 208 0 l 83 125 l 83 903 z "},"u":{"ha":861,"x_min":83,"x_max":778,"o":"m 778 778 l 778 0 l 208 0 l 83 125 l 83 778 l 208 778 l 208 111 l 653 111 l 653 778 l 778 778 z "},"v":{"ha":806,"x_min":15,"x_max":790,"o":"m 235 0 l 15 778 l 142 778 l 326 111 l 479 111 l 664 778 l 790 778 l 571 0 l 235 0 z "},"w":{"ha":1167,"x_min":56,"x_max":1111,"o":"m 183 0 l 56 778 l 179 778 l 286 111 l 361 111 l 497 708 l 669 708 l 806 111 l 881 111 l 988 778 l 1111 778 l 983 0 l 710 0 l 583 567 l 457 0 l 183 0 z "},"x":{"ha":875,"x_min":35,"x_max":840,"o":"m 35 0 l 257 417 l 56 778 l 196 778 l 368 458 l 507 458 l 679 778 l 819 778 l 618 417 l 840 0 l 700 0 l 521 347 l 354 347 l 175 0 l 35 0 z "},"y":{"ha":833,"x_min":15,"x_max":818,"o":"m 57 -194 l 57 -83 l 419 -83 l 479 111 l 242 111 l 15 778 l 142 778 l 331 222 l 513 222 l 692 778 l 818 778 l 507 -194 l 57 -194 z "},"z":{"ha":736,"x_min":42,"x_max":694,"o":"m 42 0 l 42 83 l 532 667 l 51 667 l 51 778 l 688 778 l 688 694 l 197 111 l 694 111 l 694 0 l 42 0 z "},"Á":{"ha":903,"x_min":28,"x_max":875,"o":"m 28 0 l 281 972 l 622 972 l 875 0 l 747 0 l 683 250 l 219 250 l 156 0 l 28 0 m 247 358 l 656 358 l 526 864 l 376 864 l 247 358 m 271 1083 l 271 1167 l 715 1201 l 715 1083 l 271 1083 z "},"á":{"ha":833,"x_min":69,"x_max":750,"o":"m 69 125 l 69 444 l 625 458 l 625 667 l 97 667 l 97 778 l 625 778 l 750 653 l 750 0 l 194 0 l 69 125 m 194 333 l 194 111 l 625 111 l 625 361 l 194 333 m 215 889 l 215 972 l 660 1007 l 660 889 l 215 889 z "},"À":{"ha":903,"x_min":28,"x_max":875,"o":"m 28 0 l 281 972 l 622 972 l 875 0 l 747 0 l 683 250 l 219 250 l 156 0 l 28 0 m 247 358 l 656 358 l 526 864 l 376 864 l 247 358 m 632 1083 l 188 1083 l 188 1201 l 632 1167 l 632 1083 z "},"à":{"ha":833,"x_min":69,"x_max":750,"o":"m 69 125 l 69 444 l 625 458 l 625 667 l 97 667 l 97 778 l 625 778 l 750 653 l 750 0 l 194 0 l 69 125 m 194 333 l 194 111 l 625 111 l 625 361 l 194 333 m 576 889 l 132 889 l 132 1007 l 576 972 l 576 889 z "},"Ă":{"ha":903,"x_min":28,"x_max":875,"o":"m 28 0 l 281 972 l 622 972 l 875 0 l 747 0 l 683 250 l 219 250 l 156 0 l 28 0 m 247 358 l 656 358 l 526 864 l 376 864 l 247 358 m 601 1236 l 729 1236 l 632 1069 l 271 1069 l 174 1236 l 301 1236 l 347 1160 l 556 1160 l 601 1236 z "},"ă":{"ha":833,"x_min":69,"x_max":750,"o":"m 69 125 l 69 444 l 625 458 l 625 667 l 97 667 l 97 778 l 625 778 l 750 653 l 750 0 l 194 0 l 69 125 m 194 333 l 194 111 l 625 111 l 625 361 l 194 333 m 546 1042 l 674 1042 l 576 875 l 215 875 l 118 1042 l 246 1042 l 292 965 l 500 965 l 546 1042 z "},"Â":{"ha":903,"x_min":28,"x_max":875,"o":"m 28 0 l 281 972 l 622 972 l 875 0 l 747 0 l 683 250 l 219 250 l 156 0 l 28 0 m 247 358 l 656 358 l 526 864 l 376 864 l 247 358 m 188 1049 l 188 1160 l 451 1257 l 715 1160 l 715 1049 l 451 1146 l 188 1049 z "},"â":{"ha":833,"x_min":69,"x_max":750,"o":"m 69 125 l 69 444 l 625 458 l 625 667 l 97 667 l 97 778 l 625 778 l 750 653 l 750 0 l 194 0 l 69 125 m 194 333 l 194 111 l 625 111 l 625 361 l 194 333 m 132 854 l 132 965 l 396 1063 l 660 965 l 660 854 l 396 951 l 132 854 z "},"Ǎ":{"ha":903,"x_min":28,"x_max":875,"o":"m 28 0 l 281 972 l 622 972 l 875 0 l 747 0 l 683 250 l 219 250 l 156 0 l 28 0 m 247 358 l 656 358 l 526 864 l 376 864 l 247 358 m 715 1257 l 715 1146 l 451 1049 l 188 1146 l 188 1257 l 451 1160 l 715 1257 z "},"ǎ":{"ha":833,"x_min":69,"x_max":750,"o":"m 69 125 l 69 444 l 625 458 l 625 667 l 97 667 l 97 778 l 625 778 l 750 653 l 750 0 l 194 0 l 69 125 m 194 333 l 194 111 l 625 111 l 625 361 l 194 333 m 660 1063 l 660 951 l 396 854 l 132 951 l 132 1063 l 396 965 l 660 1063 z "},"Å":{"ha":903,"x_min":28,"x_max":875,"o":"m 28 0 l 281 972 l 622 972 l 875 0 l 747 0 l 683 250 l 219 250 l 156 0 l 28 0 m 247 358 l 656 358 l 526 864 l 376 864 l 247 358 m 260 1085 l 260 1221 l 344 1292 l 558 1292 l 643 1221 l 643 1085 l 558 1014 l 344 1014 l 260 1085 m 354 1103 l 549 1103 l 549 1203 l 354 1203 l 354 1103 z "},"å":{"ha":833,"x_min":69,"x_max":750,"o":"m 69 125 l 69 444 l 625 458 l 625 667 l 97 667 l 97 778 l 625 778 l 750 653 l 750 0 l 194 0 l 69 125 m 194 333 l 194 111 l 625 111 l 625 361 l 194 333 m 204 890 l 204 1026 l 289 1097 l 503 1097 l 588 1026 l 588 890 l 503 819 l 289 819 l 204 890 m 299 908 l 493 908 l 493 1008 l 299 1008 l 299 908 z "},"Ǻ":{"ha":903,"x_min":28,"x_max":875,"o":"m 28 0 l 281 972 l 622 972 l 875 0 l 747 0 l 683 250 l 219 250 l 156 0 l 28 0 m 247 358 l 656 358 l 526 864 l 376 864 l 247 358 m 260 1085 l 260 1221 l 344 1292 l 558 1292 l 643 1221 l 643 1085 l 558 1014 l 344 1014 l 260 1085 m 354 1103 l 549 1103 l 549 1203 l 354 1203 l 354 1103 m 672 1239 l 624 1275 l 654 1361 l 785 1361 l 672 1239 z "},"ǻ":{"ha":833,"x_min":69,"x_max":750,"o":"m 69 125 l 69 444 l 625 458 l 625 667 l 97 667 l 97 778 l 625 778 l 750 653 l 750 0 l 194 0 l 69 125 m 194 333 l 194 111 l 625 111 l 625 361 l 194 333 m 204 890 l 204 1026 l 289 1097 l 503 1097 l 588 1026 l 588 890 l 503 819 l 289 819 l 204 890 m 299 908 l 493 908 l 493 1008 l 299 1008 l 299 908 m 617 1044 l 568 1081 l 599 1167 l 729 1167 l 617 1044 z "},"Ä":{"ha":903,"x_min":28,"x_max":875,"o":"m 28 0 l 281 972 l 622 972 l 875 0 l 747 0 l 683 250 l 219 250 l 156 0 l 28 0 m 247 358 l 656 358 l 526 864 l 376 864 l 247 358 m 236 1069 l 236 1181 l 361 1181 l 361 1069 l 236 1069 m 542 1069 l 542 1181 l 667 1181 l 667 1069 l 542 1069 z "},"ä":{"ha":833,"x_min":69,"x_max":750,"o":"m 69 125 l 69 444 l 625 458 l 625 667 l 97 667 l 97 778 l 625 778 l 750 653 l 750 0 l 194 0 l 69 125 m 194 333 l 194 111 l 625 111 l 625 361 l 194 333 m 181 875 l 181 986 l 306 986 l 306 875 l 181 875 m 486 875 l 486 986 l 611 986 l 611 875 l 486 875 z "},"Ǟ":{"ha":903,"x_min":28,"x_max":875,"o":"m 28 0 l 281 972 l 622 972 l 875 0 l 747 0 l 683 250 l 219 250 l 156 0 l 28 0 m 247 358 l 656 358 l 526 864 l 376 864 l 247 358 m 236 1069 l 236 1181 l 361 1181 l 361 1069 l 236 1069 m 542 1069 l 542 1181 l 667 1181 l 667 1069 l 542 1069 m 215 1242 l 215 1319 l 688 1319 l 688 1242 l 215 1242 z "},"ǟ":{"ha":833,"x_min":69,"x_max":750,"o":"m 69 125 l 69 444 l 625 458 l 625 667 l 97 667 l 97 778 l 625 778 l 750 653 l 750 0 l 194 0 l 69 125 m 194 333 l 194 111 l 625 111 l 625 361 l 194 333 m 181 875 l 181 986 l 306 986 l 306 875 l 181 875 m 486 875 l 486 986 l 611 986 l 611 875 l 486 875 m 160 1047 l 160 1125 l 632 1125 l 632 1047 l 160 1047 z "},"Ã":{"ha":903,"x_min":28,"x_max":875,"o":"m 28 0 l 281 972 l 622 972 l 875 0 l 747 0 l 683 250 l 219 250 l 156 0 l 28 0 m 247 358 l 656 358 l 526 864 l 376 864 l 247 358 m 188 1056 l 160 1146 l 299 1243 l 582 1160 l 715 1236 l 743 1146 l 604 1049 l 321 1132 l 188 1056 z "},"ã":{"ha":833,"x_min":69,"x_max":750,"o":"m 69 125 l 69 444 l 625 458 l 625 667 l 97 667 l 97 778 l 625 778 l 750 653 l 750 0 l 194 0 l 69 125 m 194 333 l 194 111 l 625 111 l 625 361 l 194 333 m 132 861 l 104 951 l 243 1049 l 526 965 l 660 1042 l 688 951 l 549 854 l 265 938 l 132 861 z "},"Ą":{"ha":903,"x_min":28,"x_max":875,"o":"m 28 0 l 281 972 l 622 972 l 875 0 l 747 0 l 683 250 l 219 250 l 156 0 l 28 0 m 247 358 l 656 358 l 526 864 l 376 864 l 247 358 m 875 -83 l 819 -278 l 685 -278 l 774 -83 l 875 -83 z "},"ą":{"ha":833,"x_min":69,"x_max":750,"o":"m 69 125 l 69 444 l 625 458 l 625 667 l 97 667 l 97 778 l 625 778 l 750 653 l 750 0 l 194 0 l 69 125 m 194 333 l 194 111 l 625 111 l 625 361 l 194 333 m 722 -83 l 667 -278 l 532 -278 l 621 -83 l 722 -83 z "},"Ā":{"ha":903,"x_min":28,"x_max":875,"o":"m 28 0 l 281 972 l 622 972 l 875 0 l 747 0 l 683 250 l 219 250 l 156 0 l 28 0 m 247 358 l 656 358 l 526 864 l 376 864 l 247 358 m 215 1103 l 215 1208 l 688 1208 l 688 1103 l 215 1103 z "},"ā":{"ha":833,"x_min":69,"x_max":750,"o":"m 69 125 l 69 444 l 625 458 l 625 667 l 97 667 l 97 778 l 625 778 l 750 653 l 750 0 l 194 0 l 69 125 m 194 333 l 194 111 l 625 111 l 625 361 l 194 333 m 160 908 l 160 1014 l 632 1014 l 632 908 l 160 908 z "},"Ȁ":{"ha":903,"x_min":28,"x_max":875,"o":"m 28 0 l 281 972 l 622 972 l 875 0 l 747 0 l 683 250 l 219 250 l 156 0 l 28 0 m 247 358 l 656 358 l 526 864 l 376 864 l 247 358 m 563 1208 l 618 1042 l 514 1042 l 424 1208 l 563 1208 m 333 1208 l 417 1042 l 306 1042 l 194 1208 l 333 1208 z "},"ȁ":{"ha":833,"x_min":69,"x_max":750,"o":"m 69 125 l 69 444 l 625 458 l 625 667 l 97 667 l 97 778 l 625 778 l 750 653 l 750 0 l 194 0 l 69 125 m 194 333 l 194 111 l 625 111 l 625 361 l 194 333 m 507 1014 l 563 847 l 458 847 l 368 1014 l 507 1014 m 278 1014 l 361 847 l 250 847 l 139 1014 l 278 1014 z "},"Ȃ":{"ha":903,"x_min":28,"x_max":875,"o":"m 28 0 l 281 972 l 622 972 l 875 0 l 747 0 l 683 250 l 219 250 l 156 0 l 28 0 m 247 358 l 656 358 l 526 864 l 376 864 l 247 358 m 301 1056 l 174 1056 l 271 1222 l 632 1222 l 729 1056 l 601 1056 l 556 1132 l 347 1132 l 301 1056 z "},"ȃ":{"ha":833,"x_min":69,"x_max":750,"o":"m 69 125 l 69 444 l 625 458 l 625 667 l 97 667 l 97 778 l 625 778 l 750 653 l 750 0 l 194 0 l 69 125 m 194 333 l 194 111 l 625 111 l 625 361 l 194 333 m 246 861 l 118 861 l 215 1028 l 576 1028 l 674 861 l 546 861 l 500 938 l 292 938 l 246 861 z "},"Æ":{"ha":1306,"x_min":28,"x_max":1264,"o":"m 28 0 l 336 972 l 1250 972 l 1250 861 l 778 861 l 778 556 l 1181 556 l 1181 444 l 778 444 l 778 111 l 1264 111 l 1264 0 l 653 0 l 653 250 l 233 250 l 156 0 l 28 0 m 268 358 l 656 358 l 656 864 l 426 864 l 268 358 z "},"æ":{"ha":1285,"x_min":69,"x_max":1208,"o":"m 69 125 l 69 444 l 583 458 l 583 667 l 97 667 l 97 778 l 569 778 l 646 701 l 722 778 l 1208 778 l 1208 347 l 708 347 l 708 111 l 1181 111 l 1181 0 l 194 0 l 69 125 m 708 444 l 1083 458 l 1083 667 l 708 667 l 708 444 m 194 333 l 194 111 l 583 111 l 583 361 l 194 333 z "},"Ǽ":{"ha":1306,"x_min":28,"x_max":1264,"o":"m 28 0 l 336 972 l 1250 972 l 1250 861 l 778 861 l 778 556 l 1181 556 l 1181 444 l 778 444 l 778 111 l 1264 111 l 1264 0 l 653 0 l 653 250 l 233 250 l 156 0 l 28 0 m 268 358 l 656 358 l 656 864 l 426 864 l 268 358 m 625 1083 l 625 1167 l 1069 1201 l 1069 1083 l 625 1083 z "},"ǽ":{"ha":1285,"x_min":69,"x_max":1208,"o":"m 69 125 l 69 444 l 583 458 l 583 667 l 97 667 l 97 778 l 569 778 l 646 701 l 722 778 l 1208 778 l 1208 347 l 708 347 l 708 111 l 1181 111 l 1181 0 l 194 0 l 69 125 m 708 444 l 1083 458 l 1083 667 l 708 667 l 708 444 m 194 333 l 194 111 l 583 111 l 583 361 l 194 333 m 463 889 l 463 972 l 907 1007 l 907 889 l 463 889 z "},"Ḃ":{"ha":889,"x_min":83,"x_max":833,"o":"m 208 563 l 681 563 l 681 861 l 208 861 l 208 563 m 208 111 l 708 111 l 708 451 l 208 451 l 208 111 m 806 861 l 806 582 l 740 522 l 833 439 l 833 111 l 722 0 l 83 0 l 83 972 l 694 972 l 806 861 m 354 1069 l 354 1181 l 479 1181 l 479 1069 l 354 1069 z "},"ḃ":{"ha":861,"x_min":83,"x_max":785,"o":"m 83 0 l 83 972 l 208 972 l 208 778 l 660 778 l 785 653 l 785 125 l 660 0 l 83 0 m 208 111 l 660 111 l 660 667 l 208 667 l 208 111 m 326 1069 l 326 1181 l 451 1181 l 451 1069 l 326 1069 z "},"Ɓ":{"ha":1090,"x_min":14,"x_max":1035,"o":"m 133 861 l 133 625 l 14 625 l 14 847 l 139 972 l 896 972 l 1007 861 l 1007 582 l 942 522 l 1035 439 l 1035 111 l 924 0 l 285 0 l 285 861 l 133 861 m 410 563 l 882 563 l 882 861 l 410 861 l 410 563 m 410 111 l 910 111 l 910 451 l 410 451 l 410 111 z "},"ɓ":{"ha":861,"x_min":83,"x_max":785,"o":"m 208 111 l 660 111 l 660 625 l 208 625 l 208 111 m 83 0 l 83 847 l 208 972 l 458 972 l 458 861 l 208 861 l 208 736 l 660 736 l 785 611 l 785 125 l 660 0 l 83 0 z "},"Ć":{"ha":764,"x_min":83,"x_max":722,"o":"m 83 111 l 83 861 l 194 972 l 708 972 l 708 858 l 208 858 l 208 114 l 722 114 l 722 0 l 194 0 l 83 111 m 264 1083 l 264 1167 l 708 1201 l 708 1083 l 264 1083 z "},"ć":{"ha":757,"x_min":76,"x_max":729,"o":"m 76 125 l 76 653 l 201 778 l 715 778 l 715 667 l 201 667 l 201 111 l 715 111 l 715 0 l 201 0 l 76 125 m 285 889 l 285 972 l 729 1007 l 729 889 l 285 889 z "},"Ĉ":{"ha":764,"x_min":83,"x_max":722,"o":"m 83 111 l 83 861 l 194 972 l 708 972 l 708 858 l 208 858 l 208 114 l 722 114 l 722 0 l 194 0 l 83 111 m 181 1049 l 181 1160 l 444 1257 l 708 1160 l 708 1049 l 444 1146 l 181 1049 z "},"ĉ":{"ha":757,"x_min":76,"x_max":729,"o":"m 76 125 l 76 653 l 201 778 l 715 778 l 715 667 l 201 667 l 201 111 l 715 111 l 715 0 l 201 0 l 76 125 m 201 854 l 201 965 l 465 1063 l 729 965 l 729 854 l 465 951 l 201 854 z "},"Č":{"ha":764,"x_min":83,"x_max":722,"o":"m 83 111 l 83 861 l 194 972 l 708 972 l 708 858 l 208 858 l 208 114 l 722 114 l 722 0 l 194 0 l 83 111 m 708 1257 l 708 1146 l 444 1049 l 181 1146 l 181 1257 l 444 1160 l 708 1257 z "},"č":{"ha":757,"x_min":76,"x_max":729,"o":"m 76 125 l 76 653 l 201 778 l 715 778 l 715 667 l 201 667 l 201 111 l 715 111 l 715 0 l 201 0 l 76 125 m 729 1063 l 729 951 l 465 854 l 201 951 l 201 1063 l 465 965 l 729 1063 z "},"Ċ":{"ha":764,"x_min":83,"x_max":722,"o":"m 83 111 l 83 861 l 194 972 l 708 972 l 708 858 l 208 858 l 208 114 l 722 114 l 722 0 l 194 0 l 83 111 m 382 1069 l 382 1181 l 507 1181 l 507 1069 l 382 1069 z "},"ċ":{"ha":757,"x_min":76,"x_max":715,"o":"m 76 125 l 76 653 l 201 778 l 715 778 l 715 667 l 201 667 l 201 111 l 715 111 l 715 0 l 201 0 l 76 125 m 403 875 l 403 986 l 528 986 l 528 875 l 403 875 z "},"Ç":{"ha":764,"x_min":83,"x_max":722,"o":"m 83 111 l 83 861 l 194 972 l 708 972 l 708 858 l 208 858 l 208 114 l 722 114 l 722 0 l 194 0 l 83 111 m 331 -278 l 393 -83 l 528 -83 l 432 -278 l 331 -278 z "},"ç":{"ha":757,"x_min":76,"x_max":715,"o":"m 76 125 l 76 653 l 201 778 l 715 778 l 715 667 l 201 667 l 201 111 l 715 111 l 715 0 l 201 0 l 76 125 m 351 -278 l 414 -83 l 549 -83 l 453 -278 l 351 -278 z "},"Ď":{"ha":882,"x_min":83,"x_max":799,"o":"m 208 111 l 674 111 l 674 861 l 208 861 l 208 111 m 83 0 l 83 972 l 688 972 l 799 861 l 799 111 l 688 0 l 83 0 m 681 1257 l 681 1146 l 417 1049 l 153 1146 l 153 1257 l 417 1160 l 681 1257 z "},"ď":{"ha":939,"x_min":76,"x_max":939,"o":"m 778 972 l 778 0 l 201 0 l 76 125 l 76 653 l 201 778 l 653 778 l 653 972 l 778 972 m 201 111 l 653 111 l 653 667 l 201 667 l 201 111 m 861 667 l 861 972 l 939 972 l 939 667 l 861 667 z "},"Ḋ":{"ha":882,"x_min":83,"x_max":799,"o":"m 208 111 l 674 111 l 674 861 l 208 861 l 208 111 m 83 0 l 83 972 l 688 972 l 799 861 l 799 111 l 688 0 l 83 0 m 354 1069 l 354 1181 l 479 1181 l 479 1069 l 354 1069 z "},"ḋ":{"ha":861,"x_min":76,"x_max":778,"o":"m 778 972 l 778 0 l 201 0 l 76 125 l 76 653 l 201 778 l 653 778 l 653 972 l 778 972 m 201 111 l 653 111 l 653 667 l 201 667 l 201 111 m 410 1069 l 410 1181 l 535 1181 l 535 1069 l 410 1069 z "},"Ḑ":{"ha":882,"x_min":83,"x_max":799,"o":"m 208 111 l 674 111 l 674 861 l 208 861 l 208 111 m 83 0 l 83 972 l 688 972 l 799 861 l 799 111 l 688 0 l 83 0 m 303 -278 l 365 -83 l 500 -83 l 404 -278 l 303 -278 z "},"ḑ":{"ha":861,"x_min":76,"x_max":778,"o":"m 778 972 l 778 0 l 201 0 l 76 125 l 76 653 l 201 778 l 653 778 l 653 972 l 778 972 m 201 111 l 653 111 l 653 667 l 201 667 l 201 111 m 358 -278 l 421 -83 l 556 -83 l 460 -278 l 358 -278 z "},"Đ":{"ha":882,"x_min":14,"x_max":799,"o":"m 14 431 l 14 542 l 444 542 l 444 431 l 14 431 m 208 111 l 674 111 l 674 861 l 208 861 l 208 111 m 83 0 l 83 972 l 688 972 l 799 861 l 799 111 l 688 0 l 83 0 z "},"đ":{"ha":861,"x_min":76,"x_max":778,"o":"m 778 972 l 778 0 l 201 0 l 76 125 l 76 542 l 201 667 l 653 667 l 653 972 l 778 972 m 201 111 l 653 111 l 653 556 l 201 556 l 201 111 m 271 764 l 271 861 l 757 861 l 757 764 l 271 764 z "},"Ḍ":{"ha":882,"x_min":83,"x_max":799,"o":"m 208 111 l 674 111 l 674 861 l 208 861 l 208 111 m 83 0 l 83 972 l 688 972 l 799 861 l 799 111 l 688 0 l 83 0 m 354 -222 l 354 -111 l 479 -111 l 479 -222 l 354 -222 z "},"ḍ":{"ha":861,"x_min":76,"x_max":778,"o":"m 778 972 l 778 0 l 201 0 l 76 125 l 76 653 l 201 778 l 653 778 l 653 972 l 778 972 m 201 111 l 653 111 l 653 667 l 201 667 l 201 111 m 410 -222 l 410 -111 l 535 -111 l 535 -222 l 410 -222 z "},"Ð":{"ha":882,"x_min":14,"x_max":799,"o":"m 14 431 l 14 542 l 444 542 l 444 431 l 14 431 m 208 111 l 674 111 l 674 861 l 208 861 l 208 111 m 83 0 l 83 972 l 688 972 l 799 861 l 799 111 l 688 0 l 83 0 z "},"ð":{"ha":903,"x_min":76,"x_max":826,"o":"m 201 0 l 701 0 l 826 125 l 826 628 l 368 972 l 174 972 l 638 633 l 76 531 l 76 125 l 201 0 m 701 544 l 701 111 l 201 111 l 201 447 l 701 544 m 146 710 l 757 874 l 757 972 l 146 808 l 146 710 z "},"Ɖ":{"ha":882,"x_min":14,"x_max":799,"o":"m 14 431 l 14 542 l 444 542 l 444 431 l 14 431 m 208 111 l 674 111 l 674 861 l 208 861 l 208 111 m 83 0 l 83 972 l 688 972 l 799 861 l 799 111 l 688 0 l 83 0 z "},"ɖ":{"ha":861,"x_min":76,"x_max":875,"o":"m 778 -83 l 875 -83 l 875 -194 l 778 -194 l 653 -69 l 653 0 l 201 0 l 76 125 l 76 653 l 201 778 l 653 778 l 653 972 l 778 972 l 778 -83 m 201 667 l 201 111 l 653 111 l 653 667 l 201 667 z "},"Ɗ":{"ha":1083,"x_min":14,"x_max":1000,"o":"m 133 861 l 133 625 l 14 625 l 14 847 l 139 972 l 889 972 l 1000 861 l 1000 111 l 889 0 l 285 0 l 285 861 l 133 861 m 410 111 l 875 111 l 875 861 l 410 861 l 410 111 z "},"ɗ":{"ha":861,"x_min":76,"x_max":903,"o":"m 201 111 l 653 111 l 653 667 l 201 667 l 201 111 m 76 125 l 76 653 l 201 778 l 653 778 l 653 861 l 764 972 l 903 972 l 903 861 l 778 861 l 778 0 l 201 0 l 76 125 z "},"É":{"ha":806,"x_min":83,"x_max":764,"o":"m 83 0 l 83 972 l 750 972 l 750 861 l 208 861 l 208 556 l 681 556 l 681 444 l 208 444 l 208 111 l 764 111 l 764 0 l 83 0 m 243 1083 l 243 1167 l 688 1201 l 688 1083 l 243 1083 z "},"é":{"ha":819,"x_min":76,"x_max":743,"o":"m 76 125 l 76 653 l 201 778 l 743 778 l 743 347 l 201 347 l 201 111 l 715 111 l 715 0 l 201 0 l 76 125 m 201 444 l 624 458 l 624 667 l 201 667 l 201 444 m 250 889 l 250 972 l 694 1007 l 694 889 l 250 889 z "},"È":{"ha":806,"x_min":83,"x_max":764,"o":"m 83 0 l 83 972 l 750 972 l 750 861 l 208 861 l 208 556 l 681 556 l 681 444 l 208 444 l 208 111 l 764 111 l 764 0 l 83 0 m 604 1083 l 160 1083 l 160 1201 l 604 1167 l 604 1083 z "},"è":{"ha":819,"x_min":76,"x_max":743,"o":"m 76 125 l 76 653 l 201 778 l 743 778 l 743 347 l 201 347 l 201 111 l 715 111 l 715 0 l 201 0 l 76 125 m 201 444 l 624 458 l 624 667 l 201 667 l 201 444 m 611 889 l 167 889 l 167 1007 l 611 972 l 611 889 z "},"Ĕ":{"ha":806,"x_min":83,"x_max":764,"o":"m 83 0 l 83 972 l 750 972 l 750 861 l 208 861 l 208 556 l 681 556 l 681 444 l 208 444 l 208 111 l 764 111 l 764 0 l 83 0 m 574 1236 l 701 1236 l 604 1069 l 243 1069 l 146 1236 l 274 1236 l 319 1160 l 528 1160 l 574 1236 z "},"ĕ":{"ha":819,"x_min":76,"x_max":743,"o":"m 76 125 l 76 653 l 201 778 l 743 778 l 743 347 l 201 347 l 201 111 l 715 111 l 715 0 l 201 0 l 76 125 m 201 444 l 624 458 l 624 667 l 201 667 l 201 444 m 581 1042 l 708 1042 l 611 875 l 250 875 l 153 1042 l 281 1042 l 326 965 l 535 965 l 581 1042 z "},"Ê":{"ha":806,"x_min":83,"x_max":764,"o":"m 83 0 l 83 972 l 750 972 l 750 861 l 208 861 l 208 556 l 681 556 l 681 444 l 208 444 l 208 111 l 764 111 l 764 0 l 83 0 m 160 1049 l 160 1160 l 424 1257 l 688 1160 l 688 1049 l 424 1146 l 160 1049 z "},"ê":{"ha":819,"x_min":76,"x_max":743,"o":"m 76 125 l 76 653 l 201 778 l 743 778 l 743 347 l 201 347 l 201 111 l 715 111 l 715 0 l 201 0 l 76 125 m 201 444 l 624 458 l 624 667 l 201 667 l 201 444 m 167 854 l 167 965 l 431 1063 l 694 965 l 694 854 l 431 951 l 167 854 z "},"Ě":{"ha":806,"x_min":83,"x_max":764,"o":"m 83 0 l 83 972 l 750 972 l 750 861 l 208 861 l 208 556 l 681 556 l 681 444 l 208 444 l 208 111 l 764 111 l 764 0 l 83 0 m 688 1257 l 688 1146 l 424 1049 l 160 1146 l 160 1257 l 424 1160 l 688 1257 z "},"ě":{"ha":819,"x_min":76,"x_max":743,"o":"m 76 125 l 76 653 l 201 778 l 743 778 l 743 347 l 201 347 l 201 111 l 715 111 l 715 0 l 201 0 l 76 125 m 201 444 l 624 458 l 624 667 l 201 667 l 201 444 m 694 1063 l 694 951 l 431 854 l 167 951 l 167 1063 l 431 965 l 694 1063 z "},"Ë":{"ha":806,"x_min":83,"x_max":764,"o":"m 83 0 l 83 972 l 750 972 l 750 861 l 208 861 l 208 556 l 681 556 l 681 444 l 208 444 l 208 111 l 764 111 l 764 0 l 83 0 m 208 1069 l 208 1181 l 333 1181 l 333 1069 l 208 1069 m 514 1069 l 514 1181 l 639 1181 l 639 1069 l 514 1069 z "},"ë":{"ha":819,"x_min":76,"x_max":743,"o":"m 76 125 l 76 653 l 201 778 l 743 778 l 743 347 l 201 347 l 201 111 l 715 111 l 715 0 l 201 0 l 76 125 m 201 444 l 624 458 l 624 667 l 201 667 l 201 444 m 215 875 l 215 986 l 340 986 l 340 875 l 215 875 m 521 875 l 521 986 l 646 986 l 646 875 l 521 875 z "},"Ė":{"ha":806,"x_min":83,"x_max":764,"o":"m 83 0 l 83 972 l 750 972 l 750 861 l 208 861 l 208 556 l 681 556 l 681 444 l 208 444 l 208 111 l 764 111 l 764 0 l 83 0 m 361 1069 l 361 1181 l 486 1181 l 486 1069 l 361 1069 z "},"ė":{"ha":819,"x_min":76,"x_max":743,"o":"m 76 125 l 76 653 l 201 778 l 743 778 l 743 347 l 201 347 l 201 111 l 715 111 l 715 0 l 201 0 l 76 125 m 201 444 l 624 458 l 624 667 l 201 667 l 201 444 m 368 875 l 368 986 l 493 986 l 493 875 l 368 875 z "},"Ę":{"ha":806,"x_min":83,"x_max":764,"o":"m 83 0 l 83 972 l 750 972 l 750 861 l 208 861 l 208 556 l 681 556 l 681 444 l 208 444 l 208 111 l 764 111 l 764 0 l 83 0 m 653 -83 l 597 -278 l 463 -278 l 551 -83 l 653 -83 z "},"ę":{"ha":819,"x_min":76,"x_max":743,"o":"m 76 125 l 76 653 l 201 778 l 743 778 l 743 347 l 201 347 l 201 111 l 715 111 l 715 0 l 201 0 l 76 125 m 201 444 l 624 458 l 624 667 l 201 667 l 201 444 m 660 -83 l 604 -278 l 469 -278 l 558 -83 l 660 -83 z "},"Ē":{"ha":806,"x_min":83,"x_max":764,"o":"m 83 0 l 83 972 l 750 972 l 750 861 l 208 861 l 208 556 l 681 556 l 681 444 l 208 444 l 208 111 l 764 111 l 764 0 l 83 0 m 188 1103 l 188 1208 l 660 1208 l 660 1103 l 188 1103 z "},"ē":{"ha":819,"x_min":76,"x_max":743,"o":"m 76 125 l 76 653 l 201 778 l 743 778 l 743 347 l 201 347 l 201 111 l 715 111 l 715 0 l 201 0 l 76 125 m 201 444 l 624 458 l 624 667 l 201 667 l 201 444 m 194 908 l 194 1014 l 667 1014 l 667 908 l 194 908 z "},"Ȅ":{"ha":806,"x_min":83,"x_max":764,"o":"m 83 0 l 83 972 l 750 972 l 750 861 l 208 861 l 208 556 l 681 556 l 681 444 l 208 444 l 208 111 l 764 111 l 764 0 l 83 0 m 535 1208 l 590 1042 l 486 1042 l 396 1208 l 535 1208 m 306 1208 l 389 1042 l 278 1042 l 167 1208 l 306 1208 z "},"ȅ":{"ha":819,"x_min":76,"x_max":743,"o":"m 76 125 l 76 653 l 201 778 l 743 778 l 743 347 l 201 347 l 201 111 l 715 111 l 715 0 l 201 0 l 76 125 m 201 444 l 624 458 l 624 667 l 201 667 l 201 444 m 542 1014 l 597 847 l 493 847 l 403 1014 l 542 1014 m 313 1014 l 396 847 l 285 847 l 174 1014 l 313 1014 z "},"Ȇ":{"ha":806,"x_min":83,"x_max":764,"o":"m 83 0 l 83 972 l 750 972 l 750 861 l 208 861 l 208 556 l 681 556 l 681 444 l 208 444 l 208 111 l 764 111 l 764 0 l 83 0 m 274 1056 l 146 1056 l 243 1222 l 604 1222 l 701 1056 l 574 1056 l 528 1132 l 319 1132 l 274 1056 z "},"ȇ":{"ha":819,"x_min":76,"x_max":743,"o":"m 76 125 l 76 653 l 201 778 l 743 778 l 743 347 l 201 347 l 201 111 l 715 111 l 715 0 l 201 0 l 76 125 m 201 444 l 624 458 l 624 667 l 201 667 l 201 444 m 281 861 l 153 861 l 250 1028 l 611 1028 l 708 861 l 581 861 l 535 938 l 326 938 l 281 861 z "},"Ə":{"ha":903,"x_min":83,"x_max":819,"o":"m 819 840 l 819 132 l 688 0 l 215 0 l 83 132 l 83 569 l 694 569 l 694 861 l 111 861 l 111 972 l 688 972 l 819 840 m 694 472 l 208 458 l 208 111 l 694 111 l 694 472 z "},"ə":{"ha":819,"x_min":76,"x_max":743,"o":"m 743 646 l 743 132 l 611 0 l 208 0 l 76 132 l 76 431 l 618 431 l 618 667 l 104 667 l 104 778 l 611 778 l 743 646 m 618 333 l 201 319 l 201 111 l 618 111 l 618 333 z "},"Ɛ":{"ha":847,"x_min":56,"x_max":806,"o":"m 167 0 l 56 111 l 56 425 l 163 508 l 83 568 l 83 861 l 194 972 l 792 972 l 792 861 l 208 861 l 208 556 l 722 556 l 722 444 l 181 444 l 181 111 l 806 111 l 806 0 l 167 0 z "},"ɛ":{"ha":819,"x_min":76,"x_max":771,"o":"m 188 0 l 76 111 l 76 322 l 183 406 l 104 465 l 104 667 l 215 778 l 757 778 l 757 667 l 229 667 l 229 453 l 701 453 l 701 342 l 201 342 l 201 111 l 771 111 l 771 0 l 188 0 z "},"Ḟ":{"ha":792,"x_min":83,"x_max":750,"o":"m 83 0 l 83 972 l 750 972 l 750 861 l 208 861 l 208 472 l 722 472 l 722 361 l 208 361 l 208 0 l 83 0 m 333 1069 l 333 1181 l 458 1181 l 458 1069 l 333 1069 z "},"ḟ":{"ha":569,"x_min":83,"x_max":542,"o":"m 83 0 l 83 847 l 208 972 l 542 972 l 542 861 l 208 861 l 208 597 l 542 597 l 542 486 l 208 486 l 208 0 l 83 0 m 271 1069 l 271 1181 l 396 1181 l 396 1069 l 271 1069 z "},"Ƒ":{"ha":792,"x_min":-14,"x_max":750,"o":"m -14 0 l -14 111 l 83 111 l 83 972 l 750 972 l 750 861 l 208 861 l 208 472 l 722 472 l 722 361 l 208 361 l 208 111 l 97 0 l -14 0 z "},"ƒ":{"ha":569,"x_min":-69,"x_max":542,"o":"m -69 -194 l -69 -83 l 28 -83 l 28 847 l 153 972 l 542 972 l 542 861 l 153 861 l 153 542 l 542 542 l 542 431 l 153 431 l 153 -69 l 28 -194 l -69 -194 z "},"Ǵ":{"ha":903,"x_min":83,"x_max":819,"o":"m 83 111 l 83 861 l 194 972 l 778 972 l 778 861 l 208 861 l 208 111 l 700 111 l 700 454 l 403 454 l 403 563 l 819 563 l 819 0 l 194 0 l 83 111 m 292 1083 l 292 1167 l 736 1201 l 736 1083 l 292 1083 z "},"ǵ":{"ha":847,"x_min":76,"x_max":764,"o":"m 125 -194 l 125 -83 l 639 -83 l 639 111 l 201 111 l 76 236 l 76 653 l 215 778 l 764 778 l 764 -64 l 633 -194 l 125 -194 m 201 667 l 201 222 l 639 222 l 639 667 l 201 667 m 257 889 l 257 972 l 701 1007 l 701 889 l 257 889 z "},"Ğ":{"ha":903,"x_min":83,"x_max":819,"o":"m 83 111 l 83 861 l 194 972 l 778 972 l 778 861 l 208 861 l 208 111 l 700 111 l 700 454 l 403 454 l 403 563 l 819 563 l 819 0 l 194 0 l 83 111 m 622 1236 l 750 1236 l 653 1069 l 292 1069 l 194 1236 l 322 1236 l 368 1160 l 576 1160 l 622 1236 z "},"ğ":{"ha":847,"x_min":76,"x_max":764,"o":"m 125 -194 l 125 -83 l 639 -83 l 639 111 l 201 111 l 76 236 l 76 653 l 215 778 l 764 778 l 764 -64 l 633 -194 l 125 -194 m 201 667 l 201 222 l 639 222 l 639 667 l 201 667 m 588 1042 l 715 1042 l 618 875 l 257 875 l 160 1042 l 288 1042 l 333 965 l 542 965 l 588 1042 z "},"Ĝ":{"ha":903,"x_min":83,"x_max":819,"o":"m 83 111 l 83 861 l 194 972 l 778 972 l 778 861 l 208 861 l 208 111 l 700 111 l 700 454 l 403 454 l 403 563 l 819 563 l 819 0 l 194 0 l 83 111 m 208 1049 l 208 1160 l 472 1257 l 736 1160 l 736 1049 l 472 1146 l 208 1049 z "},"ĝ":{"ha":847,"x_min":76,"x_max":764,"o":"m 125 -194 l 125 -83 l 639 -83 l 639 111 l 201 111 l 76 236 l 76 653 l 215 778 l 764 778 l 764 -64 l 633 -194 l 125 -194 m 201 667 l 201 222 l 639 222 l 639 667 l 201 667 m 174 854 l 174 965 l 438 1063 l 701 965 l 701 854 l 438 951 l 174 854 z "},"Ǧ":{"ha":903,"x_min":83,"x_max":819,"o":"m 83 111 l 83 861 l 194 972 l 778 972 l 778 861 l 208 861 l 208 111 l 700 111 l 700 454 l 403 454 l 403 563 l 819 563 l 819 0 l 194 0 l 83 111 m 736 1257 l 736 1146 l 472 1049 l 208 1146 l 208 1257 l 472 1160 l 736 1257 z "},"ǧ":{"ha":847,"x_min":76,"x_max":764,"o":"m 125 -194 l 125 -83 l 639 -83 l 639 111 l 201 111 l 76 236 l 76 653 l 215 778 l 764 778 l 764 -64 l 633 -194 l 125 -194 m 201 667 l 201 222 l 639 222 l 639 667 l 201 667 m 701 1063 l 701 951 l 438 854 l 174 951 l 174 1063 l 438 965 l 701 1063 z "},"Ġ":{"ha":903,"x_min":83,"x_max":819,"o":"m 83 111 l 83 861 l 194 972 l 778 972 l 778 861 l 208 861 l 208 111 l 700 111 l 700 454 l 403 454 l 403 563 l 819 563 l 819 0 l 194 0 l 83 111 m 410 1069 l 410 1181 l 535 1181 l 535 1069 l 410 1069 z "},"ġ":{"ha":847,"x_min":76,"x_max":764,"o":"m 125 -194 l 125 -83 l 639 -83 l 639 111 l 201 111 l 76 236 l 76 653 l 215 778 l 764 778 l 764 -64 l 633 -194 l 125 -194 m 201 667 l 201 222 l 639 222 l 639 667 l 201 667 m 375 875 l 375 986 l 500 986 l 500 875 l 375 875 z "},"Ģ":{"ha":903,"x_min":83,"x_max":819,"o":"m 83 111 l 83 861 l 194 972 l 778 972 l 778 861 l 208 861 l 208 111 l 700 111 l 700 454 l 403 454 l 403 563 l 819 563 l 819 0 l 194 0 l 83 111 m 358 -278 l 421 -83 l 556 -83 l 460 -278 l 358 -278 z "},"ģ":{"ha":847,"x_min":76,"x_max":764,"o":"m 125 -194 l 125 -83 l 639 -83 l 639 111 l 201 111 l 76 236 l 76 653 l 215 778 l 764 778 l 764 -64 l 633 -194 l 125 -194 m 201 667 l 201 222 l 639 222 l 639 667 l 201 667 m 544 1056 l 482 861 l 347 861 l 443 1056 l 544 1056 z "},"Ǥ":{"ha":889,"x_min":83,"x_max":868,"o":"m 83 111 l 83 861 l 194 972 l 750 972 l 750 861 l 208 861 l 208 111 l 681 111 l 681 451 l 403 451 l 403 563 l 806 563 l 806 0 l 194 0 l 83 111 m 403 269 l 403 375 l 868 375 l 868 269 l 403 269 z "},"ǥ":{"ha":847,"x_min":76,"x_max":840,"o":"m 125 -194 l 125 -83 l 639 -83 l 639 181 l 188 181 l 76 292 l 76 653 l 215 778 l 764 778 l 764 -64 l 633 -194 l 125 -194 m 201 667 l 201 292 l 639 292 l 639 667 l 201 667 m 174 0 l 174 106 l 840 106 l 840 0 l 174 0 z "},"Ɠ":{"ha":889,"x_min":83,"x_max":847,"o":"m 194 0 l 83 111 l 83 861 l 194 972 l 633 972 l 633 1042 l 744 1153 l 847 1153 l 847 1042 l 750 1042 l 750 861 l 208 861 l 208 111 l 681 111 l 681 451 l 403 451 l 403 563 l 806 563 l 806 0 l 194 0 z "},"ɠ":{"ha":847,"x_min":76,"x_max":889,"o":"m 201 222 l 639 222 l 639 667 l 201 667 l 201 222 m 125 -194 l 125 -83 l 639 -83 l 639 111 l 201 111 l 76 236 l 76 653 l 215 778 l 639 778 l 639 861 l 750 972 l 889 972 l 889 861 l 764 861 l 764 -64 l 633 -194 l 125 -194 z "},"Ɣ":{"ha":889,"x_min":7,"x_max":882,"o":"m 201 0 l 76 125 l 76 396 l 357 628 l 7 972 l 183 972 l 440 697 l 449 697 l 706 972 l 882 972 l 532 628 l 813 396 l 813 125 l 688 0 l 201 0 m 201 111 l 688 111 l 688 351 l 444 564 l 201 351 l 201 111 z "},"ɣ":{"ha":819,"x_min":0,"x_max":819,"o":"m 236 -194 l 111 -69 l 111 199 l 325 433 l 0 778 l 172 778 l 406 503 l 414 503 l 647 778 l 819 778 l 494 433 l 708 199 l 708 -69 l 583 -194 l 236 -194 m 236 -83 l 583 -83 l 583 167 l 410 369 l 236 167 l 236 -83 z "},"Ĥ":{"ha":931,"x_min":83,"x_max":847,"o":"m 83 0 l 83 972 l 208 972 l 208 556 l 722 556 l 722 972 l 847 972 l 847 0 l 722 0 l 722 444 l 208 444 l 208 0 l 83 0 m 201 1049 l 201 1160 l 465 1257 l 729 1160 l 729 1049 l 465 1146 l 201 1049 z "},"ĥ":{"ha":861,"x_min":69,"x_max":778,"o":"m 83 0 l 83 972 l 208 972 l 208 778 l 653 778 l 778 653 l 778 0 l 653 0 l 653 667 l 208 667 l 208 0 l 83 0 m 69 1049 l 69 1160 l 333 1257 l 597 1160 l 597 1049 l 333 1146 l 69 1049 z "},"Ȟ":{"ha":931,"x_min":83,"x_max":847,"o":"m 83 0 l 83 972 l 208 972 l 208 556 l 722 556 l 722 972 l 847 972 l 847 0 l 722 0 l 722 444 l 208 444 l 208 0 l 83 0 m 729 1257 l 729 1146 l 465 1049 l 201 1146 l 201 1257 l 465 1160 l 729 1257 z "},"ȟ":{"ha":861,"x_min":69,"x_max":778,"o":"m 83 0 l 83 972 l 208 972 l 208 778 l 653 778 l 778 653 l 778 0 l 653 0 l 653 667 l 208 667 l 208 0 l 83 0 m 597 1257 l 597 1146 l 333 1049 l 69 1146 l 69 1257 l 333 1160 l 597 1257 z "},"Ħ":{"ha":903,"x_min":7,"x_max":896,"o":"m 7 714 l 7 819 l 896 819 l 896 714 l 7 714 m 83 0 l 83 972 l 208 972 l 208 556 l 722 556 l 722 972 l 847 972 l 847 0 l 722 0 l 722 444 l 208 444 l 208 0 l 83 0 z "},"ħ":{"ha":861,"x_min":83,"x_max":778,"o":"m 83 0 l 83 972 l 208 972 l 208 667 l 653 667 l 778 542 l 778 0 l 653 0 l 653 556 l 208 556 l 208 0 l 83 0 m 104 764 l 104 861 l 590 861 l 590 764 l 104 764 z "},"Ḥ":{"ha":931,"x_min":83,"x_max":847,"o":"m 83 0 l 83 972 l 208 972 l 208 556 l 722 556 l 722 972 l 847 972 l 847 0 l 722 0 l 722 444 l 208 444 l 208 0 l 83 0 m 403 -222 l 403 -111 l 528 -111 l 528 -222 l 403 -222 z "},"ḥ":{"ha":861,"x_min":83,"x_max":778,"o":"m 83 0 l 83 972 l 208 972 l 208 778 l 653 778 l 778 653 l 778 0 l 653 0 l 653 667 l 208 667 l 208 0 l 83 0 m 368 -222 l 368 -111 l 493 -111 l 493 -222 l 368 -222 z "},"Í":{"ha":597,"x_min":63,"x_max":563,"o":"m 63 -6 l 63 106 l 236 113 l 236 860 l 63 867 l 63 978 l 299 967 l 535 978 l 535 867 l 361 860 l 361 113 l 535 106 l 535 -6 l 299 6 l 63 -6 m 118 1083 l 118 1167 l 563 1201 l 563 1083 l 118 1083 z "},"í":{"ha":292,"x_min":63,"x_max":285,"o":"m 83 0 l 83 778 l 208 778 l 208 0 l 83 0 m 63 847 l 63 933 l 285 1007 l 285 889 l 63 847 z "},"Ì":{"ha":597,"x_min":35,"x_max":535,"o":"m 63 -6 l 63 106 l 236 113 l 236 860 l 63 867 l 63 978 l 299 967 l 535 978 l 535 867 l 361 860 l 361 113 l 535 106 l 535 -6 l 299 6 l 63 -6 m 479 1083 l 35 1083 l 35 1201 l 479 1167 l 479 1083 z "},"ì":{"ha":292,"x_min":7,"x_max":229,"o":"m 83 0 l 83 778 l 208 778 l 208 0 l 83 0 m 229 847 l 7 889 l 7 1007 l 229 933 l 229 847 z "},"Ĭ":{"ha":597,"x_min":21,"x_max":576,"o":"m 63 -6 l 63 106 l 236 113 l 236 860 l 63 867 l 63 978 l 299 967 l 535 978 l 535 867 l 361 860 l 361 113 l 535 106 l 535 -6 l 299 6 l 63 -6 m 449 1236 l 576 1236 l 479 1069 l 118 1069 l 21 1236 l 149 1236 l 194 1160 l 403 1160 l 449 1236 z "},"ĭ":{"ha":292,"x_min":-132,"x_max":424,"o":"m 83 0 l 83 778 l 208 778 l 208 0 l 83 0 m 296 1042 l 424 1042 l 326 875 l -35 875 l -132 1042 l -4 1042 l 42 965 l 250 965 l 296 1042 z "},"Î":{"ha":597,"x_min":35,"x_max":563,"o":"m 63 -6 l 63 106 l 236 113 l 236 860 l 63 867 l 63 978 l 299 967 l 535 978 l 535 867 l 361 860 l 361 113 l 535 106 l 535 -6 l 299 6 l 63 -6 m 35 1049 l 35 1160 l 299 1257 l 563 1160 l 563 1049 l 299 1146 l 35 1049 z "},"î":{"ha":292,"x_min":-118,"x_max":410,"o":"m 83 0 l 83 778 l 208 778 l 208 0 l 83 0 m -118 854 l -118 965 l 146 1063 l 410 965 l 410 854 l 146 951 l -118 854 z "},"Ǐ":{"ha":597,"x_min":35,"x_max":563,"o":"m 63 -6 l 63 106 l 236 113 l 236 860 l 63 867 l 63 978 l 299 967 l 535 978 l 535 867 l 361 860 l 361 113 l 535 106 l 535 -6 l 299 6 l 63 -6 m 563 1257 l 563 1146 l 299 1049 l 35 1146 l 35 1257 l 299 1160 l 563 1257 z "},"ǐ":{"ha":292,"x_min":-118,"x_max":410,"o":"m 83 0 l 83 778 l 208 778 l 208 0 l 83 0 m 410 1063 l 410 951 l 146 854 l -118 951 l -118 1063 l 146 965 l 410 1063 z "},"Ï":{"ha":597,"x_min":63,"x_max":535,"o":"m 63 -6 l 63 106 l 236 113 l 236 860 l 63 867 l 63 978 l 299 967 l 535 978 l 535 867 l 361 860 l 361 113 l 535 106 l 535 -6 l 299 6 l 63 -6 m 83 1069 l 83 1181 l 208 1181 l 208 1069 l 83 1069 m 389 1069 l 389 1181 l 514 1181 l 514 1069 l 389 1069 z "},"ï":{"ha":292,"x_min":-28,"x_max":319,"o":"m 83 0 l 83 778 l 208 778 l 208 0 l 83 0 m -28 875 l -28 986 l 97 986 l 97 875 l -28 875 m 194 875 l 194 986 l 319 986 l 319 875 l 194 875 z "},"Ĩ":{"ha":597,"x_min":7,"x_max":590,"o":"m 63 -6 l 63 106 l 236 113 l 236 860 l 63 867 l 63 978 l 299 967 l 535 978 l 535 867 l 361 860 l 361 113 l 535 106 l 535 -6 l 299 6 l 63 -6 m 35 1056 l 7 1146 l 146 1243 l 429 1160 l 563 1236 l 590 1146 l 451 1049 l 168 1132 l 35 1056 z "},"ĩ":{"ha":292,"x_min":-21,"x_max":326,"o":"m 83 0 l 83 778 l 208 778 l 208 0 l 83 0 m -21 847 l -21 954 l 76 1035 l 235 951 l 326 1028 l 326 921 l 229 840 l 71 924 l -21 847 z "},"İ":{"ha":597,"x_min":63,"x_max":535,"o":"m 63 -6 l 63 106 l 236 113 l 236 860 l 63 867 l 63 978 l 299 967 l 535 978 l 535 867 l 361 860 l 361 113 l 535 106 l 535 -6 l 299 6 l 63 -6 m 236 1069 l 236 1181 l 361 1181 l 361 1069 l 236 1069 z "},"ı":{"ha":292,"x_min":83,"x_max":208,"o":"m 83 0 l 83 778 l 208 778 l 208 0 l 83 0 z "},"Į":{"ha":597,"x_min":63,"x_max":535,"o":"m 63 -6 l 63 106 l 236 113 l 236 860 l 63 867 l 63 978 l 299 967 l 535 978 l 535 867 l 361 860 l 361 113 l 535 106 l 535 -6 l 299 6 l 63 -6 m 368 -83 l 313 -278 l 178 -278 l 267 -83 l 368 -83 z "},"į":{"ha":292,"x_min":25,"x_max":215,"o":"m 83 0 l 83 778 l 208 778 l 208 0 l 83 0 m 83 875 l 83 986 l 208 986 l 208 875 l 83 875 m 215 -83 l 160 -278 l 25 -278 l 114 -83 l 215 -83 z "},"Ī":{"ha":597,"x_min":63,"x_max":535,"o":"m 63 -6 l 63 106 l 236 113 l 236 860 l 63 867 l 63 978 l 299 967 l 535 978 l 535 867 l 361 860 l 361 113 l 535 106 l 535 -6 l 299 6 l 63 -6 m 63 1103 l 63 1208 l 535 1208 l 535 1103 l 63 1103 z "},"ī":{"ha":292,"x_min":-7,"x_max":299,"o":"m -7 908 l -7 1014 l 299 1014 l 299 908 l -7 908 m 83 0 l 83 778 l 208 778 l 208 0 l 83 0 z "},"Ȉ":{"ha":597,"x_min":42,"x_max":535,"o":"m 63 -6 l 63 106 l 236 113 l 236 860 l 63 867 l 63 978 l 299 967 l 535 978 l 535 867 l 361 860 l 361 113 l 535 106 l 535 -6 l 299 6 l 63 -6 m 410 1208 l 465 1042 l 361 1042 l 271 1208 l 410 1208 m 181 1208 l 264 1042 l 153 1042 l 42 1208 l 181 1208 z "},"ȉ":{"ha":292,"x_min":-111,"x_max":313,"o":"m 83 0 l 83 778 l 208 778 l 208 0 l 83 0 m 257 1014 l 313 847 l 208 847 l 118 1014 l 257 1014 m 28 1014 l 111 847 l 0 847 l -111 1014 l 28 1014 z "},"Ȋ":{"ha":597,"x_min":21,"x_max":576,"o":"m 63 -6 l 63 106 l 236 113 l 236 860 l 63 867 l 63 978 l 299 967 l 535 978 l 535 867 l 361 860 l 361 113 l 535 106 l 535 -6 l 299 6 l 63 -6 m 149 1056 l 21 1056 l 118 1222 l 479 1222 l 576 1056 l 449 1056 l 403 1132 l 194 1132 l 149 1056 z "},"ȋ":{"ha":292,"x_min":-132,"x_max":424,"o":"m 83 0 l 83 778 l 208 778 l 208 0 l 83 0 m -4 861 l -132 861 l -35 1028 l 326 1028 l 424 861 l 296 861 l 250 938 l 42 938 l -4 861 z "},"Ĳ":{"ha":1250,"x_min":63,"x_max":1167,"o":"m 63 -6 l 63 106 l 194 113 l 194 860 l 63 867 l 63 978 l 257 967 l 451 978 l 451 867 l 319 860 l 319 113 l 451 106 l 451 -6 l 257 6 l 63 -6 m 542 125 l 542 417 l 667 417 l 667 111 l 1042 111 l 1042 861 l 583 861 l 583 972 l 1167 972 l 1167 125 l 1042 0 l 667 0 l 542 125 z "},"ĳ":{"ha":583,"x_min":83,"x_max":500,"o":"m 83 0 l 83 778 l 208 778 l 208 0 l 83 0 m 83 875 l 83 986 l 208 986 l 208 875 l 83 875 m 375 -194 l 375 778 l 500 778 l 500 -194 l 375 -194 m 375 875 l 375 986 l 500 986 l 500 875 l 375 875 z "},"Ɨ":{"ha":597,"x_min":63,"x_max":535,"o":"m 63 -6 l 63 106 l 236 113 l 236 860 l 63 867 l 63 978 l 299 967 l 535 978 l 535 867 l 361 860 l 361 113 l 535 106 l 535 -6 l 299 6 l 63 -6 m 76 432 l 76 540 l 521 540 l 521 432 l 76 432 z "},"ɨ":{"ha":292,"x_min":14,"x_max":278,"o":"m 14 381 l 14 486 l 278 486 l 278 381 l 14 381 m 83 0 l 83 778 l 208 778 l 208 0 l 83 0 m 83 875 l 83 986 l 208 986 l 208 875 l 83 875 z "},"Ĵ":{"ha":833,"x_min":56,"x_max":750,"o":"m 56 125 l 56 417 l 181 417 l 181 111 l 625 111 l 625 861 l 83 861 l 83 972 l 750 972 l 750 125 l 625 0 l 181 0 l 56 125 m 139 1049 l 139 1160 l 403 1257 l 667 1160 l 667 1049 l 403 1146 l 139 1049 z "},"ĵ":{"ha":292,"x_min":-118,"x_max":410,"o":"m 83 -194 l 83 778 l 208 778 l 208 -194 l 83 -194 m -118 854 l -118 965 l 146 1063 l 410 965 l 410 854 l 146 951 l -118 854 z "},"ȷ":{"ha":292,"x_min":83,"x_max":208,"o":"m 83 -194 l 83 778 l 208 778 l 208 -194 l 83 -194 z "},"Ǩ":{"ha":875,"x_min":83,"x_max":867,"o":"m 83 0 l 83 972 l 208 972 l 208 549 l 438 549 l 699 972 l 846 972 l 554 514 l 867 0 l 722 0 l 457 438 l 208 438 l 208 0 l 83 0 m 701 1257 l 701 1146 l 438 1049 l 174 1146 l 174 1257 l 438 1160 l 701 1257 z "},"ǩ":{"ha":833,"x_min":83,"x_max":819,"o":"m 83 0 l 83 972 l 208 972 l 208 460 l 456 460 l 664 778 l 807 778 l 563 419 l 819 0 l 678 0 l 468 349 l 208 349 l 208 0 l 83 0 m 653 1257 l 653 1146 l 389 1049 l 125 1146 l 125 1257 l 389 1160 l 653 1257 z "},"Ķ":{"ha":875,"x_min":83,"x_max":867,"o":"m 83 0 l 83 972 l 208 972 l 208 549 l 438 549 l 699 972 l 846 972 l 554 514 l 867 0 l 722 0 l 457 438 l 208 438 l 208 0 l 83 0 m 324 -278 l 386 -83 l 521 -83 l 425 -278 l 324 -278 z "},"ķ":{"ha":833,"x_min":83,"x_max":819,"o":"m 83 0 l 83 972 l 208 972 l 208 460 l 456 460 l 664 778 l 807 778 l 563 419 l 819 0 l 678 0 l 468 349 l 208 349 l 208 0 l 83 0 m 303 -278 l 365 -83 l 500 -83 l 404 -278 l 303 -278 z "},"Ƙ":{"ha":911,"x_min":83,"x_max":903,"o":"m 83 0 l 83 972 l 208 972 l 208 549 l 507 549 l 610 875 l 707 972 l 903 972 l 903 861 l 732 861 l 628 535 l 903 0 l 758 0 l 539 438 l 208 438 l 208 0 l 83 0 z "},"ƙ":{"ha":861,"x_min":83,"x_max":847,"o":"m 83 0 l 83 847 l 208 972 l 458 972 l 458 861 l 208 861 l 208 460 l 478 460 l 692 778 l 836 778 l 590 419 l 847 0 l 706 0 l 496 349 l 208 349 l 208 0 l 83 0 z "},"Ĺ":{"ha":833,"x_min":83,"x_max":792,"o":"m 83 0 l 83 972 l 208 972 l 208 111 l 672 111 l 672 389 l 792 389 l 792 0 l 83 0 m 83 1083 l 83 1167 l 528 1201 l 528 1083 l 83 1083 z "},"ĺ":{"ha":292,"x_min":63,"x_max":285,"o":"m 83 0 l 83 972 l 208 972 l 208 0 l 83 0 m 63 1042 l 63 1128 l 285 1201 l 285 1083 l 63 1042 z "},"Ľ":{"ha":833,"x_min":83,"x_max":792,"o":"m 83 0 l 83 972 l 208 972 l 208 111 l 672 111 l 672 389 l 792 389 l 792 0 l 83 0 m 389 667 l 389 972 l 467 972 l 467 667 l 389 667 z "},"ľ":{"ha":369,"x_min":83,"x_max":369,"o":"m 83 0 l 83 972 l 208 972 l 208 0 l 83 0 m 292 667 l 292 972 l 369 972 l 369 667 l 292 667 z "},"Ļ":{"ha":833,"x_min":83,"x_max":792,"o":"m 83 0 l 83 972 l 208 972 l 208 111 l 672 111 l 672 389 l 792 389 l 792 0 l 83 0 m 324 -278 l 386 -83 l 521 -83 l 425 -278 l 324 -278 z "},"ļ":{"ha":292,"x_min":32,"x_max":229,"o":"m 83 0 l 83 972 l 208 972 l 208 0 l 83 0 m 32 -278 l 94 -83 l 229 -83 l 133 -278 l 32 -278 z "},"Ł":{"ha":833,"x_min":83,"x_max":792,"o":"m 174 431 l 174 542 l 632 708 l 632 597 l 174 431 m 83 0 l 83 972 l 208 972 l 208 111 l 672 111 l 672 389 l 792 389 l 792 0 l 83 0 z "},"ł":{"ha":431,"x_min":35,"x_max":396,"o":"m 35 347 l 35 469 l 396 674 l 396 551 l 35 347 m 153 0 l 153 972 l 278 972 l 278 0 l 153 0 z "},"Ḷ":{"ha":833,"x_min":83,"x_max":792,"o":"m 83 0 l 83 972 l 208 972 l 208 111 l 672 111 l 672 389 l 792 389 l 792 0 l 83 0 m 375 -222 l 375 -111 l 500 -111 l 500 -222 l 375 -222 z "},"ḷ":{"ha":292,"x_min":83,"x_max":208,"o":"m 83 0 l 83 972 l 208 972 l 208 0 l 83 0 m 83 -222 l 83 -111 l 208 -111 l 208 -222 l 83 -222 z "},"Ḻ":{"ha":833,"x_min":83,"x_max":792,"o":"m 83 0 l 83 972 l 208 972 l 208 111 l 672 111 l 672 389 l 792 389 l 792 0 l 83 0 m 201 -236 l 201 -131 l 674 -131 l 674 -236 l 201 -236 z "},"ḻ":{"ha":292,"x_min":-90,"x_max":382,"o":"m 83 0 l 83 972 l 208 972 l 208 0 l 83 0 m -90 -236 l -90 -131 l 382 -131 l 382 -236 l -90 -236 z "},"Ŀ":{"ha":833,"x_min":83,"x_max":792,"o":"m 83 0 l 83 972 l 208 972 l 208 111 l 672 111 l 672 389 l 792 389 l 792 0 l 83 0 m 493 556 l 493 681 l 618 681 l 618 556 l 493 556 z "},"ŀ":{"ha":389,"x_min":83,"x_max":396,"o":"m 83 0 l 83 972 l 208 972 l 208 0 l 83 0 m 285 431 l 285 556 l 396 556 l 396 431 l 285 431 z "},"Ḿ":{"ha":1083,"x_min":83,"x_max":1000,"o":"m 83 0 l 83 972 l 242 972 l 542 447 l 842 972 l 1000 972 l 1000 0 l 878 0 l 878 819 l 583 306 l 500 306 l 206 819 l 206 0 l 83 0 m 361 1083 l 361 1167 l 806 1201 l 806 1083 l 361 1083 z "},"ḿ":{"ha":1278,"x_min":83,"x_max":1194,"o":"m 83 778 l 1056 778 l 1194 639 l 1194 0 l 1069 0 l 1069 667 l 701 667 l 701 0 l 576 0 l 576 667 l 208 667 l 208 0 l 83 0 l 83 778 m 458 889 l 458 972 l 903 1007 l 903 889 l 458 889 z "},"Ṁ":{"ha":1083,"x_min":83,"x_max":1000,"o":"m 83 0 l 83 972 l 242 972 l 542 447 l 842 972 l 1000 972 l 1000 0 l 878 0 l 878 819 l 583 306 l 500 306 l 206 819 l 206 0 l 83 0 m 479 1069 l 479 1181 l 604 1181 l 604 1069 l 479 1069 z "},"ṁ":{"ha":1278,"x_min":83,"x_max":1194,"o":"m 83 778 l 1056 778 l 1194 639 l 1194 0 l 1069 0 l 1069 667 l 701 667 l 701 0 l 576 0 l 576 667 l 208 667 l 208 0 l 83 0 l 83 778 m 576 875 l 576 986 l 701 986 l 701 875 l 576 875 z "},"Ń":{"ha":944,"x_min":83,"x_max":861,"o":"m 83 0 l 83 972 l 261 972 l 736 146 l 736 972 l 861 972 l 861 0 l 683 0 l 208 826 l 208 0 l 83 0 m 292 1083 l 292 1167 l 736 1201 l 736 1083 l 292 1083 z "},"ń":{"ha":861,"x_min":83,"x_max":778,"o":"m 83 0 l 83 778 l 653 778 l 778 653 l 778 0 l 653 0 l 653 667 l 208 667 l 208 0 l 83 0 m 250 889 l 250 972 l 694 1007 l 694 889 l 250 889 z "},"Ǹ":{"ha":944,"x_min":83,"x_max":861,"o":"m 83 0 l 83 972 l 261 972 l 736 146 l 736 972 l 861 972 l 861 0 l 683 0 l 208 826 l 208 0 l 83 0 m 653 1083 l 208 1083 l 208 1201 l 653 1167 l 653 1083 z "},"ǹ":{"ha":861,"x_min":83,"x_max":778,"o":"m 83 0 l 83 778 l 653 778 l 778 653 l 778 0 l 653 0 l 653 667 l 208 667 l 208 0 l 83 0 m 611 889 l 167 889 l 167 1007 l 611 972 l 611 889 z "},"Ň":{"ha":944,"x_min":83,"x_max":861,"o":"m 83 0 l 83 972 l 261 972 l 736 146 l 736 972 l 861 972 l 861 0 l 683 0 l 208 826 l 208 0 l 83 0 m 736 1257 l 736 1146 l 472 1049 l 208 1146 l 208 1257 l 472 1160 l 736 1257 z "},"ň":{"ha":861,"x_min":83,"x_max":778,"o":"m 83 0 l 83 778 l 653 778 l 778 653 l 778 0 l 653 0 l 653 667 l 208 667 l 208 0 l 83 0 m 694 1063 l 694 951 l 431 854 l 167 951 l 167 1063 l 431 965 l 694 1063 z "},"Ñ":{"ha":944,"x_min":83,"x_max":861,"o":"m 83 0 l 83 972 l 261 972 l 736 146 l 736 972 l 861 972 l 861 0 l 683 0 l 208 826 l 208 0 l 83 0 m 208 1056 l 181 1146 l 319 1243 l 603 1160 l 736 1236 l 764 1146 l 625 1049 l 342 1132 l 208 1056 z "},"ñ":{"ha":861,"x_min":83,"x_max":778,"o":"m 83 0 l 83 778 l 653 778 l 778 653 l 778 0 l 653 0 l 653 667 l 208 667 l 208 0 l 83 0 m 167 861 l 139 951 l 278 1049 l 561 965 l 694 1042 l 722 951 l 583 854 l 300 938 l 167 861 z "},"Ṅ":{"ha":944,"x_min":83,"x_max":861,"o":"m 83 0 l 83 972 l 261 972 l 736 146 l 736 972 l 861 972 l 861 0 l 683 0 l 208 826 l 208 0 l 83 0 m 410 1069 l 410 1181 l 535 1181 l 535 1069 l 410 1069 z "},"ṅ":{"ha":861,"x_min":83,"x_max":778,"o":"m 83 0 l 83 778 l 653 778 l 778 653 l 778 0 l 653 0 l 653 667 l 208 667 l 208 0 l 83 0 m 368 875 l 368 986 l 493 986 l 493 875 l 368 875 z "},"Ņ":{"ha":944,"x_min":83,"x_max":861,"o":"m 83 0 l 83 972 l 261 972 l 736 146 l 736 972 l 861 972 l 861 0 l 683 0 l 208 826 l 208 0 l 83 0 m 358 -278 l 421 -83 l 556 -83 l 460 -278 l 358 -278 z "},"ņ":{"ha":861,"x_min":83,"x_max":778,"o":"m 83 0 l 83 778 l 653 778 l 778 653 l 778 0 l 653 0 l 653 667 l 208 667 l 208 0 l 83 0 m 317 -278 l 379 -83 l 514 -83 l 418 -278 l 317 -278 z "},"Ṉ":{"ha":944,"x_min":83,"x_max":861,"o":"m 83 0 l 83 972 l 261 972 l 736 146 l 736 972 l 861 972 l 861 0 l 683 0 l 208 826 l 208 0 l 83 0 m 236 -236 l 236 -131 l 708 -131 l 708 -236 l 236 -236 z "},"ṉ":{"ha":861,"x_min":83,"x_max":778,"o":"m 83 0 l 83 778 l 653 778 l 778 653 l 778 0 l 653 0 l 653 667 l 208 667 l 208 0 l 83 0 m 194 -236 l 194 -131 l 667 -131 l 667 -236 l 194 -236 z "},"Ɲ":{"ha":944,"x_min":-14,"x_max":861,"o":"m -14 0 l -14 111 l 83 111 l 83 972 l 261 972 l 736 146 l 736 972 l 861 972 l 861 0 l 683 0 l 208 826 l 208 111 l 97 0 l -14 0 z "},"ɲ":{"ha":861,"x_min":-14,"x_max":778,"o":"m -14 -194 l -14 -83 l 83 -83 l 83 778 l 653 778 l 778 653 l 778 0 l 653 0 l 653 667 l 208 667 l 208 -69 l 83 -194 l -14 -194 z "},"Ŋ":{"ha":944,"x_min":83,"x_max":861,"o":"m 83 0 l 83 972 l 258 972 l 736 183 l 736 972 l 861 972 l 861 -78 l 744 -194 l 597 -194 l 597 -83 l 743 -83 l 743 -56 l 208 826 l 208 0 l 83 0 z "},"ŋ":{"ha":861,"x_min":83,"x_max":778,"o":"m 83 0 l 83 778 l 653 778 l 778 653 l 778 -106 l 661 -222 l 514 -222 l 514 -111 l 653 -111 l 653 667 l 208 667 l 208 0 l 83 0 z "},"Ó":{"ha":944,"x_min":83,"x_max":861,"o":"m 83 111 l 83 861 l 194 972 l 750 972 l 861 861 l 861 111 l 750 0 l 194 0 l 83 111 m 208 861 l 208 111 l 736 111 l 736 861 l 208 861 m 292 1083 l 292 1167 l 736 1201 l 736 1083 l 292 1083 z "},"ó":{"ha":833,"x_min":76,"x_max":757,"o":"m 76 125 l 76 653 l 201 778 l 632 778 l 757 653 l 757 125 l 632 0 l 201 0 l 76 125 m 201 111 l 632 111 l 632 667 l 201 667 l 201 111 m 236 889 l 236 972 l 681 1007 l 681 889 l 236 889 z "},"Ò":{"ha":944,"x_min":83,"x_max":861,"o":"m 83 111 l 83 861 l 194 972 l 750 972 l 861 861 l 861 111 l 750 0 l 194 0 l 83 111 m 208 861 l 208 111 l 736 111 l 736 861 l 208 861 m 653 1083 l 208 1083 l 208 1201 l 653 1167 l 653 1083 z "},"ò":{"ha":833,"x_min":76,"x_max":757,"o":"m 76 125 l 76 653 l 201 778 l 632 778 l 757 653 l 757 125 l 632 0 l 201 0 l 76 125 m 201 111 l 632 111 l 632 667 l 201 667 l 201 111 m 597 889 l 153 889 l 153 1007 l 597 972 l 597 889 z "},"Ŏ":{"ha":944,"x_min":83,"x_max":861,"o":"m 83 111 l 83 861 l 194 972 l 750 972 l 861 861 l 861 111 l 750 0 l 194 0 l 83 111 m 208 861 l 208 111 l 736 111 l 736 861 l 208 861 m 622 1236 l 750 1236 l 653 1069 l 292 1069 l 194 1236 l 322 1236 l 368 1160 l 576 1160 l 622 1236 z "},"ŏ":{"ha":833,"x_min":76,"x_max":757,"o":"m 76 125 l 76 653 l 201 778 l 632 778 l 757 653 l 757 125 l 632 0 l 201 0 l 76 125 m 201 111 l 632 111 l 632 667 l 201 667 l 201 111 m 567 1042 l 694 1042 l 597 875 l 236 875 l 139 1042 l 267 1042 l 313 965 l 521 965 l 567 1042 z "},"Ô":{"ha":944,"x_min":83,"x_max":861,"o":"m 83 111 l 83 861 l 194 972 l 750 972 l 861 861 l 861 111 l 750 0 l 194 0 l 83 111 m 208 861 l 208 111 l 736 111 l 736 861 l 208 861 m 208 1049 l 208 1160 l 472 1257 l 736 1160 l 736 1049 l 472 1146 l 208 1049 z "},"ô":{"ha":833,"x_min":76,"x_max":757,"o":"m 76 125 l 76 653 l 201 778 l 632 778 l 757 653 l 757 125 l 632 0 l 201 0 l 76 125 m 201 111 l 632 111 l 632 667 l 201 667 l 201 111 m 153 854 l 153 965 l 417 1063 l 681 965 l 681 854 l 417 951 l 153 854 z "},"Ǒ":{"ha":944,"x_min":83,"x_max":861,"o":"m 83 111 l 83 861 l 194 972 l 750 972 l 861 861 l 861 111 l 750 0 l 194 0 l 83 111 m 208 861 l 208 111 l 736 111 l 736 861 l 208 861 m 736 1257 l 736 1146 l 472 1049 l 208 1146 l 208 1257 l 472 1160 l 736 1257 z "},"ǒ":{"ha":833,"x_min":76,"x_max":757,"o":"m 76 125 l 76 653 l 201 778 l 632 778 l 757 653 l 757 125 l 632 0 l 201 0 l 76 125 m 201 111 l 632 111 l 632 667 l 201 667 l 201 111 m 681 1063 l 681 951 l 417 854 l 153 951 l 153 1063 l 417 965 l 681 1063 z "},"Ö":{"ha":944,"x_min":83,"x_max":861,"o":"m 83 111 l 83 861 l 194 972 l 750 972 l 861 861 l 861 111 l 750 0 l 194 0 l 83 111 m 208 861 l 208 111 l 736 111 l 736 861 l 208 861 m 257 1069 l 257 1181 l 382 1181 l 382 1069 l 257 1069 m 563 1069 l 563 1181 l 688 1181 l 688 1069 l 563 1069 z "},"ö":{"ha":833,"x_min":76,"x_max":757,"o":"m 76 125 l 76 653 l 201 778 l 632 778 l 757 653 l 757 125 l 632 0 l 201 0 l 76 125 m 201 111 l 632 111 l 632 667 l 201 667 l 201 111 m 201 875 l 201 986 l 326 986 l 326 875 l 201 875 m 507 875 l 507 986 l 632 986 l 632 875 l 507 875 z "},"Ȫ":{"ha":944,"x_min":83,"x_max":861,"o":"m 83 111 l 83 861 l 194 972 l 750 972 l 861 861 l 861 111 l 750 0 l 194 0 l 83 111 m 208 861 l 208 111 l 736 111 l 736 861 l 208 861 m 257 1069 l 257 1181 l 382 1181 l 382 1069 l 257 1069 m 563 1069 l 563 1181 l 688 1181 l 688 1069 l 563 1069 m 236 1242 l 236 1319 l 708 1319 l 708 1242 l 236 1242 z "},"ȫ":{"ha":833,"x_min":76,"x_max":757,"o":"m 76 125 l 76 653 l 201 778 l 632 778 l 757 653 l 757 125 l 632 0 l 201 0 l 76 125 m 201 111 l 632 111 l 632 667 l 201 667 l 201 111 m 201 875 l 201 986 l 326 986 l 326 875 l 201 875 m 507 875 l 507 986 l 632 986 l 632 875 l 507 875 m 181 1047 l 181 1125 l 653 1125 l 653 1047 l 181 1047 z "},"Ő":{"ha":944,"x_min":83,"x_max":861,"o":"m 83 111 l 83 861 l 194 972 l 750 972 l 861 861 l 861 111 l 750 0 l 194 0 l 83 111 m 208 861 l 208 111 l 736 111 l 736 861 l 208 861 m 306 1042 l 361 1208 l 500 1208 l 410 1042 l 306 1042 m 507 1042 l 590 1208 l 729 1208 l 618 1042 l 507 1042 z "},"ő":{"ha":833,"x_min":76,"x_max":757,"o":"m 76 125 l 76 653 l 201 778 l 632 778 l 757 653 l 757 125 l 632 0 l 201 0 l 76 125 m 201 111 l 632 111 l 632 667 l 201 667 l 201 111 m 250 847 l 306 1014 l 444 1014 l 354 847 l 250 847 m 451 847 l 535 1014 l 674 1014 l 563 847 l 451 847 z "},"Õ":{"ha":944,"x_min":83,"x_max":861,"o":"m 83 111 l 83 861 l 194 972 l 750 972 l 861 861 l 861 111 l 750 0 l 194 0 l 83 111 m 208 861 l 208 111 l 736 111 l 736 861 l 208 861 m 208 1056 l 181 1146 l 319 1243 l 603 1160 l 736 1236 l 764 1146 l 625 1049 l 342 1132 l 208 1056 z "},"õ":{"ha":833,"x_min":76,"x_max":757,"o":"m 76 125 l 76 653 l 201 778 l 632 778 l 757 653 l 757 125 l 632 0 l 201 0 l 76 125 m 201 111 l 632 111 l 632 667 l 201 667 l 201 111 m 153 861 l 125 951 l 264 1049 l 547 965 l 681 1042 l 708 951 l 569 854 l 286 938 l 153 861 z "},"Ȭ":{"ha":944,"x_min":83,"x_max":861,"o":"m 83 111 l 83 861 l 194 972 l 750 972 l 861 861 l 861 111 l 750 0 l 194 0 l 83 111 m 208 861 l 208 111 l 736 111 l 736 861 l 208 861 m 208 1056 l 181 1146 l 319 1243 l 603 1160 l 736 1236 l 764 1146 l 625 1049 l 342 1132 l 208 1056 m 236 1269 l 236 1347 l 708 1347 l 708 1269 l 236 1269 z "},"ȭ":{"ha":833,"x_min":76,"x_max":757,"o":"m 76 125 l 76 653 l 201 778 l 632 778 l 757 653 l 757 125 l 632 0 l 201 0 l 76 125 m 201 111 l 632 111 l 632 667 l 201 667 l 201 111 m 153 861 l 125 951 l 264 1049 l 547 965 l 681 1042 l 708 951 l 569 854 l 286 938 l 153 861 m 181 1075 l 181 1153 l 653 1153 l 653 1075 l 181 1075 z "},"Ȯ":{"ha":944,"x_min":83,"x_max":861,"o":"m 83 111 l 83 861 l 194 972 l 750 972 l 861 861 l 861 111 l 750 0 l 194 0 l 83 111 m 208 861 l 208 111 l 736 111 l 736 861 l 208 861 m 410 1069 l 410 1181 l 535 1181 l 535 1069 l 410 1069 z "},"ȯ":{"ha":833,"x_min":76,"x_max":757,"o":"m 76 125 l 76 653 l 201 778 l 632 778 l 757 653 l 757 125 l 632 0 l 201 0 l 76 125 m 201 111 l 632 111 l 632 667 l 201 667 l 201 111 m 354 875 l 354 986 l 479 986 l 479 875 l 354 875 z "},"Ȱ":{"ha":944,"x_min":83,"x_max":861,"o":"m 83 111 l 83 861 l 194 972 l 750 972 l 861 861 l 861 111 l 750 0 l 194 0 l 83 111 m 208 861 l 208 111 l 736 111 l 736 861 l 208 861 m 410 1069 l 410 1181 l 535 1181 l 535 1069 l 410 1069 m 236 1242 l 236 1319 l 708 1319 l 708 1242 l 236 1242 z "},"ȱ":{"ha":833,"x_min":76,"x_max":757,"o":"m 76 125 l 76 653 l 201 778 l 632 778 l 757 653 l 757 125 l 632 0 l 201 0 l 76 125 m 201 111 l 632 111 l 632 667 l 201 667 l 201 111 m 354 875 l 354 986 l 479 986 l 479 875 l 354 875 m 181 1047 l 181 1125 l 653 1125 l 653 1047 l 181 1047 z "},"Ø":{"ha":944,"x_min":50,"x_max":894,"o":"m 83 139 l 83 861 l 194 972 l 722 972 l 861 833 l 861 111 l 750 0 l 222 0 l 83 139 m 206 864 l 206 108 l 739 108 l 739 864 l 206 864 m 50 0 l 796 972 l 894 972 l 149 0 l 50 0 z "},"ø":{"ha":833,"x_min":42,"x_max":792,"o":"m 76 139 l 76 653 l 201 778 l 618 778 l 757 639 l 757 125 l 632 0 l 215 0 l 76 139 m 196 108 l 638 108 l 638 669 l 196 669 l 196 108 m 42 0 l 688 778 l 792 778 l 146 0 l 42 0 z "},"Ǿ":{"ha":944,"x_min":50,"x_max":894,"o":"m 83 139 l 83 861 l 194 972 l 722 972 l 861 833 l 861 111 l 750 0 l 222 0 l 83 139 m 206 864 l 206 108 l 739 108 l 739 864 l 206 864 m 50 0 l 796 972 l 894 972 l 149 0 l 50 0 m 292 1083 l 292 1167 l 736 1201 l 736 1083 l 292 1083 z "},"ǿ":{"ha":833,"x_min":42,"x_max":792,"o":"m 76 139 l 76 653 l 201 778 l 618 778 l 757 639 l 757 125 l 632 0 l 215 0 l 76 139 m 196 108 l 638 108 l 638 669 l 196 669 l 196 108 m 42 0 l 688 778 l 792 778 l 146 0 l 42 0 m 236 889 l 236 972 l 681 1007 l 681 889 l 236 889 z "},"Ǫ":{"ha":944,"x_min":83,"x_max":861,"o":"m 83 111 l 83 861 l 194 972 l 750 972 l 861 861 l 861 111 l 750 0 l 194 0 l 83 111 m 208 861 l 208 111 l 736 111 l 736 861 l 208 861 m 542 -83 l 486 -278 l 351 -278 l 440 -83 l 542 -83 z "},"ǫ":{"ha":833,"x_min":76,"x_max":757,"o":"m 76 125 l 76 653 l 201 778 l 632 778 l 757 653 l 757 125 l 632 0 l 201 0 l 76 125 m 201 111 l 632 111 l 632 667 l 201 667 l 201 111 m 486 -83 l 431 -278 l 296 -278 l 385 -83 l 486 -83 z "},"Ō":{"ha":944,"x_min":83,"x_max":861,"o":"m 83 111 l 83 861 l 194 972 l 750 972 l 861 861 l 861 111 l 750 0 l 194 0 l 83 111 m 208 861 l 208 111 l 736 111 l 736 861 l 208 861 m 236 1103 l 236 1208 l 708 1208 l 708 1103 l 236 1103 z "},"ō":{"ha":833,"x_min":76,"x_max":757,"o":"m 76 125 l 76 653 l 201 778 l 632 778 l 757 653 l 757 125 l 632 0 l 201 0 l 76 125 m 201 111 l 632 111 l 632 667 l 201 667 l 201 111 m 181 908 l 181 1014 l 653 1014 l 653 908 l 181 908 z "},"Ȍ":{"ha":944,"x_min":83,"x_max":861,"o":"m 83 111 l 83 861 l 194 972 l 750 972 l 861 861 l 861 111 l 750 0 l 194 0 l 83 111 m 208 861 l 208 111 l 736 111 l 736 861 l 208 861 m 583 1208 l 639 1042 l 535 1042 l 444 1208 l 583 1208 m 354 1208 l 438 1042 l 326 1042 l 215 1208 l 354 1208 z "},"ȍ":{"ha":833,"x_min":76,"x_max":757,"o":"m 76 125 l 76 653 l 201 778 l 632 778 l 757 653 l 757 125 l 632 0 l 201 0 l 76 125 m 201 111 l 632 111 l 632 667 l 201 667 l 201 111 m 528 1014 l 583 847 l 479 847 l 389 1014 l 528 1014 m 299 1014 l 382 847 l 271 847 l 160 1014 l 299 1014 z "},"Ȏ":{"ha":944,"x_min":83,"x_max":861,"o":"m 83 111 l 83 861 l 194 972 l 750 972 l 861 861 l 861 111 l 750 0 l 194 0 l 83 111 m 208 861 l 208 111 l 736 111 l 736 861 l 208 861 m 322 1056 l 194 1056 l 292 1222 l 653 1222 l 750 1056 l 622 1056 l 576 1132 l 368 1132 l 322 1056 z "},"ȏ":{"ha":833,"x_min":76,"x_max":757,"o":"m 76 125 l 76 653 l 201 778 l 632 778 l 757 653 l 757 125 l 632 0 l 201 0 l 76 125 m 201 111 l 632 111 l 632 667 l 201 667 l 201 111 m 267 861 l 139 861 l 236 1028 l 597 1028 l 694 861 l 567 861 l 521 938 l 313 938 l 267 861 z "},"Œ":{"ha":1278,"x_min":83,"x_max":1236,"o":"m 83 111 l 83 861 l 194 972 l 1222 972 l 1222 861 l 750 861 l 750 556 l 1153 556 l 1153 444 l 750 444 l 750 111 l 1236 111 l 1236 0 l 194 0 l 83 111 m 208 861 l 208 111 l 625 111 l 625 861 l 208 861 z "},"œ":{"ha":1292,"x_min":76,"x_max":1215,"o":"m 76 125 l 76 653 l 201 778 l 590 778 l 653 715 l 715 778 l 1215 778 l 1215 347 l 715 347 l 715 111 l 1188 111 l 1188 0 l 715 0 l 653 63 l 590 0 l 201 0 l 76 125 m 201 111 l 590 111 l 590 667 l 201 667 l 201 111 m 715 444 l 1090 458 l 1090 667 l 715 667 l 715 444 z "},"Ɔ":{"ha":764,"x_min":42,"x_max":681,"o":"m 681 861 l 681 111 l 569 0 l 56 0 l 56 114 l 556 114 l 556 858 l 42 858 l 42 972 l 569 972 l 681 861 z "},"ɔ":{"ha":757,"x_min":76,"x_max":715,"o":"m 715 653 l 715 125 l 590 0 l 76 0 l 76 111 l 590 111 l 590 667 l 76 667 l 76 778 l 590 778 l 715 653 z "},"Ṗ":{"ha":861,"x_min":83,"x_max":806,"o":"m 208 319 l 681 319 l 681 861 l 208 861 l 208 319 m 806 861 l 806 319 l 694 208 l 208 208 l 208 0 l 83 0 l 83 972 l 694 972 l 806 861 m 354 1069 l 354 1181 l 479 1181 l 479 1069 l 354 1069 z "},"ṗ":{"ha":861,"x_min":83,"x_max":785,"o":"m 83 -194 l 83 778 l 660 778 l 785 653 l 785 125 l 660 0 l 208 0 l 208 -194 l 83 -194 m 660 667 l 208 667 l 208 111 l 660 111 l 660 667 m 354 875 l 354 986 l 479 986 l 479 875 l 354 875 z "},"ĸ":{"ha":861,"x_min":83,"x_max":847,"o":"m 83 0 l 83 778 l 208 778 l 208 460 l 478 460 l 692 778 l 836 778 l 590 419 l 847 0 l 706 0 l 496 349 l 208 349 l 208 0 l 83 0 z "},"Ŕ":{"ha":903,"x_min":83,"x_max":896,"o":"m 208 444 l 694 444 l 694 861 l 208 861 l 208 444 m 819 861 l 819 444 l 726 351 l 896 0 l 761 0 l 604 333 l 208 333 l 208 0 l 83 0 l 83 972 l 708 972 l 819 861 m 264 1083 l 264 1167 l 708 1201 l 708 1083 l 264 1083 z "},"ŕ":{"ha":653,"x_min":83,"x_max":625,"o":"m 83 0 l 83 653 l 208 778 l 625 778 l 625 667 l 208 667 l 208 0 l 83 0 m 181 889 l 181 972 l 625 1007 l 625 889 l 181 889 z "},"Ř":{"ha":903,"x_min":83,"x_max":896,"o":"m 208 444 l 694 444 l 694 861 l 208 861 l 208 444 m 819 861 l 819 444 l 726 351 l 896 0 l 761 0 l 604 333 l 208 333 l 208 0 l 83 0 l 83 972 l 708 972 l 819 861 m 708 1257 l 708 1146 l 444 1049 l 181 1146 l 181 1257 l 444 1160 l 708 1257 z "},"ř":{"ha":653,"x_min":83,"x_max":625,"o":"m 83 0 l 83 653 l 208 778 l 625 778 l 625 667 l 208 667 l 208 0 l 83 0 m 625 1063 l 625 951 l 361 854 l 97 951 l 97 1063 l 361 965 l 625 1063 z "},"Ŗ":{"ha":903,"x_min":83,"x_max":896,"o":"m 208 444 l 694 444 l 694 861 l 208 861 l 208 444 m 819 861 l 819 444 l 726 351 l 896 0 l 761 0 l 604 333 l 208 333 l 208 0 l 83 0 l 83 972 l 708 972 l 819 861 m 351 -278 l 414 -83 l 549 -83 l 453 -278 l 351 -278 z "},"ŗ":{"ha":653,"x_min":32,"x_max":625,"o":"m 83 0 l 83 653 l 208 778 l 625 778 l 625 667 l 208 667 l 208 0 l 83 0 m 32 -278 l 94 -83 l 229 -83 l 133 -278 l 32 -278 z "},"Ȑ":{"ha":903,"x_min":83,"x_max":896,"o":"m 208 444 l 694 444 l 694 861 l 208 861 l 208 444 m 819 861 l 819 444 l 726 351 l 896 0 l 761 0 l 604 333 l 208 333 l 208 0 l 83 0 l 83 972 l 708 972 l 819 861 m 556 1208 l 611 1042 l 507 1042 l 417 1208 l 556 1208 m 326 1208 l 410 1042 l 299 1042 l 188 1208 l 326 1208 z "},"ȑ":{"ha":653,"x_min":83,"x_max":625,"o":"m 83 0 l 83 653 l 208 778 l 625 778 l 625 667 l 208 667 l 208 0 l 83 0 m 472 1014 l 528 847 l 424 847 l 333 1014 l 472 1014 m 243 1014 l 326 847 l 215 847 l 104 1014 l 243 1014 z "},"Ȓ":{"ha":903,"x_min":83,"x_max":896,"o":"m 208 444 l 694 444 l 694 861 l 208 861 l 208 444 m 819 861 l 819 444 l 726 351 l 896 0 l 761 0 l 604 333 l 208 333 l 208 0 l 83 0 l 83 972 l 708 972 l 819 861 m 294 1056 l 167 1056 l 264 1222 l 625 1222 l 722 1056 l 594 1056 l 549 1132 l 340 1132 l 294 1056 z "},"ȓ":{"ha":653,"x_min":83,"x_max":639,"o":"m 83 0 l 83 653 l 208 778 l 625 778 l 625 667 l 208 667 l 208 0 l 83 0 m 211 861 l 83 861 l 181 1028 l 542 1028 l 639 861 l 511 861 l 465 938 l 257 938 l 211 861 z "},"Ṛ":{"ha":903,"x_min":83,"x_max":896,"o":"m 208 444 l 694 444 l 694 861 l 208 861 l 208 444 m 819 861 l 819 444 l 726 351 l 896 0 l 761 0 l 604 333 l 208 333 l 208 0 l 83 0 l 83 972 l 708 972 l 819 861 m 403 -222 l 403 -111 l 528 -111 l 528 -222 l 403 -222 z "},"ṛ":{"ha":653,"x_min":83,"x_max":625,"o":"m 83 0 l 83 653 l 208 778 l 625 778 l 625 667 l 208 667 l 208 0 l 83 0 m 83 -222 l 83 -111 l 208 -111 l 208 -222 l 83 -222 z "},"Ś":{"ha":889,"x_min":83,"x_max":806,"o":"m 97 0 l 97 111 l 681 111 l 681 421 l 83 467 l 83 861 l 194 972 l 792 972 l 792 861 l 208 861 l 208 565 l 806 519 l 806 111 l 694 0 l 97 0 m 285 1083 l 285 1167 l 729 1201 l 729 1083 l 285 1083 z "},"ś":{"ha":833,"x_min":76,"x_max":757,"o":"m 76 0 l 76 111 l 632 111 l 632 340 l 76 340 l 76 653 l 201 778 l 757 778 l 757 667 l 201 667 l 201 451 l 757 451 l 757 121 l 636 0 l 76 0 m 264 889 l 264 972 l 708 1007 l 708 889 l 264 889 z "},"Ŝ":{"ha":889,"x_min":83,"x_max":806,"o":"m 97 0 l 97 111 l 681 111 l 681 421 l 83 467 l 83 861 l 194 972 l 792 972 l 792 861 l 208 861 l 208 565 l 806 519 l 806 111 l 694 0 l 97 0 m 201 1049 l 201 1160 l 465 1257 l 729 1160 l 729 1049 l 465 1146 l 201 1049 z "},"ŝ":{"ha":833,"x_min":76,"x_max":757,"o":"m 76 0 l 76 111 l 632 111 l 632 340 l 76 340 l 76 653 l 201 778 l 757 778 l 757 667 l 201 667 l 201 451 l 757 451 l 757 121 l 636 0 l 76 0 m 181 854 l 181 965 l 444 1063 l 708 965 l 708 854 l 444 951 l 181 854 z "},"Š":{"ha":889,"x_min":83,"x_max":806,"o":"m 97 0 l 97 111 l 681 111 l 681 421 l 83 467 l 83 861 l 194 972 l 792 972 l 792 861 l 208 861 l 208 565 l 806 519 l 806 111 l 694 0 l 97 0 m 729 1257 l 729 1146 l 465 1049 l 201 1146 l 201 1257 l 465 1160 l 729 1257 z "},"š":{"ha":833,"x_min":76,"x_max":757,"o":"m 76 0 l 76 111 l 632 111 l 632 340 l 76 340 l 76 653 l 201 778 l 757 778 l 757 667 l 201 667 l 201 451 l 757 451 l 757 121 l 636 0 l 76 0 m 708 1063 l 708 951 l 444 854 l 181 951 l 181 1063 l 444 965 l 708 1063 z "},"Ṡ":{"ha":889,"x_min":83,"x_max":806,"o":"m 97 0 l 97 111 l 681 111 l 681 421 l 83 467 l 83 861 l 194 972 l 792 972 l 792 861 l 208 861 l 208 565 l 806 519 l 806 111 l 694 0 l 97 0 m 403 1069 l 403 1181 l 528 1181 l 528 1069 l 403 1069 z "},"ṡ":{"ha":833,"x_min":76,"x_max":757,"o":"m 76 0 l 76 111 l 632 111 l 632 340 l 76 340 l 76 653 l 201 778 l 757 778 l 757 667 l 201 667 l 201 451 l 757 451 l 757 121 l 636 0 l 76 0 m 382 875 l 382 986 l 507 986 l 507 875 l 382 875 z "},"Ş":{"ha":889,"x_min":83,"x_max":806,"o":"m 97 0 l 97 111 l 681 111 l 681 421 l 83 467 l 83 861 l 194 972 l 792 972 l 792 861 l 208 861 l 208 565 l 806 519 l 806 111 l 694 0 l 97 0 m 310 -278 l 372 -83 l 507 -83 l 411 -278 l 310 -278 z "},"ş":{"ha":833,"x_min":76,"x_max":757,"o":"m 76 0 l 76 111 l 632 111 l 632 340 l 76 340 l 76 653 l 201 778 l 757 778 l 757 667 l 201 667 l 201 451 l 757 451 l 757 121 l 636 0 l 76 0 m 275 -278 l 338 -83 l 472 -83 l 376 -278 l 275 -278 z "},"Ṣ":{"ha":889,"x_min":83,"x_max":806,"o":"m 97 0 l 97 111 l 681 111 l 681 421 l 83 467 l 83 861 l 194 972 l 792 972 l 792 861 l 208 861 l 208 565 l 806 519 l 806 111 l 694 0 l 97 0 m 361 -222 l 361 -111 l 486 -111 l 486 -222 l 361 -222 z "},"ṣ":{"ha":833,"x_min":76,"x_max":757,"o":"m 76 0 l 76 111 l 632 111 l 632 340 l 76 340 l 76 653 l 201 778 l 757 778 l 757 667 l 201 667 l 201 451 l 757 451 l 757 121 l 636 0 l 76 0 m 326 -222 l 326 -111 l 451 -111 l 451 -222 l 326 -222 z "},"Ș":{"ha":889,"x_min":83,"x_max":806,"o":"m 97 0 l 97 111 l 681 111 l 681 421 l 83 467 l 83 861 l 194 972 l 792 972 l 792 861 l 208 861 l 208 565 l 806 519 l 806 111 l 694 0 l 97 0 m 310 -278 l 372 -83 l 507 -83 l 411 -278 l 310 -278 z "},"ș":{"ha":833,"x_min":76,"x_max":757,"o":"m 76 0 l 76 111 l 632 111 l 632 340 l 76 340 l 76 653 l 201 778 l 757 778 l 757 667 l 201 667 l 201 451 l 757 451 l 757 121 l 636 0 l 76 0 m 275 -278 l 338 -83 l 472 -83 l 376 -278 l 275 -278 z "},"ſ":{"ha":625,"x_min":83,"x_max":597,"o":"m 83 0 l 83 847 l 208 972 l 597 972 l 597 861 l 208 861 l 208 0 l 83 0 z "},"ẞ":{"ha":972,"x_min":83,"x_max":917,"o":"m 882 972 l 882 610 l 810 536 l 917 453 l 917 125 l 792 0 l 389 0 l 389 111 l 792 111 l 792 465 l 500 465 l 500 576 l 757 576 l 757 861 l 208 861 l 208 0 l 83 0 l 83 847 l 208 972 l 882 972 z "},"ß":{"ha":875,"x_min":83,"x_max":819,"o":"m 785 847 l 785 610 l 713 536 l 819 453 l 819 125 l 694 0 l 403 0 l 403 111 l 694 111 l 694 465 l 417 465 l 417 576 l 660 576 l 660 861 l 208 861 l 208 0 l 83 0 l 83 847 l 208 972 l 660 972 l 785 847 z "},"Ť":{"ha":778,"x_min":28,"x_max":750,"o":"m 326 0 l 326 861 l 28 861 l 28 972 l 750 972 l 750 861 l 451 861 l 451 0 l 326 0 m 653 1257 l 653 1146 l 389 1049 l 125 1146 l 125 1257 l 389 1160 l 653 1257 z "},"ť":{"ha":597,"x_min":83,"x_max":569,"o":"m 490 806 l 490 1069 l 568 1069 l 568 806 l 490 806 m 83 903 l 208 972 l 208 750 l 569 750 l 569 639 l 208 639 l 208 111 l 569 111 l 569 0 l 208 0 l 83 125 l 83 903 z "},"Ṫ":{"ha":778,"x_min":28,"x_max":750,"o":"m 326 0 l 326 861 l 28 861 l 28 972 l 750 972 l 750 861 l 451 861 l 451 0 l 326 0 m 326 1069 l 326 1181 l 451 1181 l 451 1069 l 326 1069 z "},"ṫ":{"ha":597,"x_min":83,"x_max":569,"o":"m 83 903 l 208 972 l 208 750 l 569 750 l 569 639 l 208 639 l 208 111 l 569 111 l 569 0 l 208 0 l 83 125 l 83 903 m 299 1069 l 299 1181 l 424 1181 l 424 1069 l 299 1069 z "},"Ţ":{"ha":778,"x_min":28,"x_max":750,"o":"m 326 0 l 326 861 l 28 861 l 28 972 l 750 972 l 750 861 l 451 861 l 451 0 l 326 0 m 275 -278 l 338 -83 l 472 -83 l 376 -278 l 275 -278 z "},"ţ":{"ha":597,"x_min":83,"x_max":569,"o":"m 83 903 l 208 972 l 208 750 l 569 750 l 569 639 l 208 639 l 208 111 l 569 111 l 569 0 l 208 0 l 83 125 l 83 903 m 247 -278 l 310 -83 l 444 -83 l 349 -278 l 247 -278 z "},"Ṭ":{"ha":778,"x_min":28,"x_max":750,"o":"m 326 0 l 326 861 l 28 861 l 28 972 l 750 972 l 750 861 l 451 861 l 451 0 l 326 0 m 326 -222 l 326 -111 l 451 -111 l 451 -222 l 326 -222 z "},"ṭ":{"ha":597,"x_min":83,"x_max":569,"o":"m 83 903 l 208 972 l 208 750 l 569 750 l 569 639 l 208 639 l 208 111 l 569 111 l 569 0 l 208 0 l 83 125 l 83 903 m 299 -222 l 299 -111 l 424 -111 l 424 -222 l 299 -222 z "},"Ț":{"ha":778,"x_min":28,"x_max":750,"o":"m 326 0 l 326 861 l 28 861 l 28 972 l 750 972 l 750 861 l 451 861 l 451 0 l 326 0 m 275 -278 l 338 -83 l 472 -83 l 376 -278 l 275 -278 z "},"ț":{"ha":597,"x_min":83,"x_max":569,"o":"m 83 903 l 208 972 l 208 750 l 569 750 l 569 639 l 208 639 l 208 111 l 569 111 l 569 0 l 208 0 l 83 125 l 83 903 m 247 -278 l 310 -83 l 444 -83 l 349 -278 l 247 -278 z "},"Ŧ":{"ha":778,"x_min":28,"x_max":750,"o":"m 111 422 l 111 528 l 667 528 l 667 422 l 111 422 m 326 0 l 326 861 l 28 861 l 28 972 l 750 972 l 750 861 l 451 861 l 451 0 l 326 0 z "},"ŧ":{"ha":597,"x_min":21,"x_max":569,"o":"m 83 903 l 208 972 l 208 750 l 569 750 l 569 639 l 208 639 l 208 111 l 569 111 l 569 0 l 208 0 l 83 125 l 83 903 m 21 394 l 21 500 l 569 500 l 569 394 l 21 394 z "},"Ú":{"ha":903,"x_min":83,"x_max":819,"o":"m 83 111 l 83 972 l 208 972 l 208 111 l 694 111 l 694 972 l 819 972 l 819 111 l 708 0 l 194 0 l 83 111 m 271 1083 l 271 1167 l 715 1201 l 715 1083 l 271 1083 z "},"ú":{"ha":861,"x_min":83,"x_max":778,"o":"m 778 778 l 778 0 l 208 0 l 83 125 l 83 778 l 208 778 l 208 111 l 653 111 l 653 778 l 778 778 m 250 889 l 250 972 l 694 1007 l 694 889 l 250 889 z "},"Ù":{"ha":903,"x_min":83,"x_max":819,"o":"m 83 111 l 83 972 l 208 972 l 208 111 l 694 111 l 694 972 l 819 972 l 819 111 l 708 0 l 194 0 l 83 111 m 632 1083 l 188 1083 l 188 1201 l 632 1167 l 632 1083 z "},"ù":{"ha":861,"x_min":83,"x_max":778,"o":"m 778 778 l 778 0 l 208 0 l 83 125 l 83 778 l 208 778 l 208 111 l 653 111 l 653 778 l 778 778 m 611 889 l 167 889 l 167 1007 l 611 972 l 611 889 z "},"Ŭ":{"ha":903,"x_min":83,"x_max":819,"o":"m 83 111 l 83 972 l 208 972 l 208 111 l 694 111 l 694 972 l 819 972 l 819 111 l 708 0 l 194 0 l 83 111 m 601 1236 l 729 1236 l 632 1069 l 271 1069 l 174 1236 l 301 1236 l 347 1160 l 556 1160 l 601 1236 z "},"ŭ":{"ha":861,"x_min":83,"x_max":778,"o":"m 778 778 l 778 0 l 208 0 l 83 125 l 83 778 l 208 778 l 208 111 l 653 111 l 653 778 l 778 778 m 581 1042 l 708 1042 l 611 875 l 250 875 l 153 1042 l 281 1042 l 326 965 l 535 965 l 581 1042 z "},"Û":{"ha":903,"x_min":83,"x_max":819,"o":"m 83 111 l 83 972 l 208 972 l 208 111 l 694 111 l 694 972 l 819 972 l 819 111 l 708 0 l 194 0 l 83 111 m 188 1049 l 188 1160 l 451 1257 l 715 1160 l 715 1049 l 451 1146 l 188 1049 z "},"û":{"ha":861,"x_min":83,"x_max":778,"o":"m 778 778 l 778 0 l 208 0 l 83 125 l 83 778 l 208 778 l 208 111 l 653 111 l 653 778 l 778 778 m 167 854 l 167 965 l 431 1063 l 694 965 l 694 854 l 431 951 l 167 854 z "},"Ǔ":{"ha":903,"x_min":83,"x_max":819,"o":"m 83 111 l 83 972 l 208 972 l 208 111 l 694 111 l 694 972 l 819 972 l 819 111 l 708 0 l 194 0 l 83 111 m 715 1257 l 715 1146 l 451 1049 l 188 1146 l 188 1257 l 451 1160 l 715 1257 z "},"ǔ":{"ha":861,"x_min":83,"x_max":778,"o":"m 778 778 l 778 0 l 208 0 l 83 125 l 83 778 l 208 778 l 208 111 l 653 111 l 653 778 l 778 778 m 694 1063 l 694 951 l 431 854 l 167 951 l 167 1063 l 431 965 l 694 1063 z "},"Ů":{"ha":903,"x_min":83,"x_max":819,"o":"m 83 111 l 83 972 l 208 972 l 208 111 l 694 111 l 694 972 l 819 972 l 819 111 l 708 0 l 194 0 l 83 111 m 260 1085 l 260 1221 l 344 1292 l 558 1292 l 643 1221 l 643 1085 l 558 1014 l 344 1014 l 260 1085 m 354 1103 l 549 1103 l 549 1203 l 354 1203 l 354 1103 z "},"ů":{"ha":861,"x_min":83,"x_max":778,"o":"m 778 778 l 778 0 l 208 0 l 83 125 l 83 778 l 208 778 l 208 111 l 653 111 l 653 778 l 778 778 m 239 890 l 239 1026 l 324 1097 l 538 1097 l 622 1026 l 622 890 l 538 819 l 324 819 l 239 890 m 333 908 l 528 908 l 528 1008 l 333 1008 l 333 908 z "},"Ü":{"ha":903,"x_min":83,"x_max":819,"o":"m 83 111 l 83 972 l 208 972 l 208 111 l 694 111 l 694 972 l 819 972 l 819 111 l 708 0 l 194 0 l 83 111 m 236 1069 l 236 1181 l 361 1181 l 361 1069 l 236 1069 m 542 1069 l 542 1181 l 667 1181 l 667 1069 l 542 1069 z "},"ü":{"ha":861,"x_min":83,"x_max":778,"o":"m 778 778 l 778 0 l 208 0 l 83 125 l 83 778 l 208 778 l 208 111 l 653 111 l 653 778 l 778 778 m 215 875 l 215 986 l 340 986 l 340 875 l 215 875 m 521 875 l 521 986 l 646 986 l 646 875 l 521 875 z "},"Ǘ":{"ha":903,"x_min":83,"x_max":819,"o":"m 83 111 l 83 972 l 208 972 l 208 111 l 694 111 l 694 972 l 819 972 l 819 111 l 708 0 l 194 0 l 83 111 m 236 1042 l 236 1153 l 361 1153 l 361 1042 l 236 1042 m 542 1042 l 542 1153 l 667 1153 l 667 1042 l 542 1042 m 271 1264 l 271 1347 l 715 1382 l 715 1264 l 271 1264 z "},"ǘ":{"ha":861,"x_min":83,"x_max":778,"o":"m 778 778 l 778 0 l 208 0 l 83 125 l 83 778 l 208 778 l 208 111 l 653 111 l 653 778 l 778 778 m 215 847 l 215 958 l 340 958 l 340 847 l 215 847 m 521 847 l 521 958 l 646 958 l 646 847 l 521 847 m 250 1069 l 250 1153 l 694 1188 l 694 1069 l 250 1069 z "},"Ǜ":{"ha":903,"x_min":83,"x_max":819,"o":"m 83 111 l 83 972 l 208 972 l 208 111 l 694 111 l 694 972 l 819 972 l 819 111 l 708 0 l 194 0 l 83 111 m 236 1042 l 236 1153 l 361 1153 l 361 1042 l 236 1042 m 542 1042 l 542 1153 l 667 1153 l 667 1042 l 542 1042 m 632 1264 l 188 1264 l 188 1382 l 632 1347 l 632 1264 z "},"ǜ":{"ha":861,"x_min":83,"x_max":778,"o":"m 778 778 l 778 0 l 208 0 l 83 125 l 83 778 l 208 778 l 208 111 l 653 111 l 653 778 l 778 778 m 215 847 l 215 958 l 340 958 l 340 847 l 215 847 m 521 847 l 521 958 l 646 958 l 646 847 l 521 847 m 611 1069 l 167 1069 l 167 1188 l 611 1153 l 611 1069 z "},"Ǚ":{"ha":903,"x_min":83,"x_max":819,"o":"m 83 111 l 83 972 l 208 972 l 208 111 l 694 111 l 694 972 l 819 972 l 819 111 l 708 0 l 194 0 l 83 111 m 236 1042 l 236 1153 l 361 1153 l 361 1042 l 236 1042 m 542 1042 l 542 1153 l 667 1153 l 667 1042 l 542 1042 m 715 1389 l 715 1285 l 451 1188 l 188 1285 l 188 1389 l 451 1292 l 715 1389 z "},"ǚ":{"ha":861,"x_min":83,"x_max":778,"o":"m 778 778 l 778 0 l 208 0 l 83 125 l 83 778 l 208 778 l 208 111 l 653 111 l 653 778 l 778 778 m 215 847 l 215 958 l 340 958 l 340 847 l 215 847 m 521 847 l 521 958 l 646 958 l 646 847 l 521 847 m 694 1194 l 694 1090 l 431 993 l 167 1090 l 167 1194 l 431 1097 l 694 1194 z "},"Ǖ":{"ha":903,"x_min":83,"x_max":819,"o":"m 83 111 l 83 972 l 208 972 l 208 111 l 694 111 l 694 972 l 819 972 l 819 111 l 708 0 l 194 0 l 83 111 m 236 1042 l 236 1153 l 361 1153 l 361 1042 l 236 1042 m 542 1042 l 542 1153 l 667 1153 l 667 1042 l 542 1042 m 215 1214 l 215 1292 l 688 1292 l 688 1214 l 215 1214 z "},"ǖ":{"ha":861,"x_min":83,"x_max":778,"o":"m 778 778 l 778 0 l 208 0 l 83 125 l 83 778 l 208 778 l 208 111 l 653 111 l 653 778 l 778 778 m 215 847 l 215 958 l 340 958 l 340 847 l 215 847 m 521 847 l 521 958 l 646 958 l 646 847 l 521 847 m 194 1019 l 194 1097 l 667 1097 l 667 1019 l 194 1019 z "},"Ű":{"ha":903,"x_min":83,"x_max":819,"o":"m 83 111 l 83 972 l 208 972 l 208 111 l 694 111 l 694 972 l 819 972 l 819 111 l 708 0 l 194 0 l 83 111 m 285 1042 l 340 1208 l 479 1208 l 389 1042 l 285 1042 m 486 1042 l 569 1208 l 708 1208 l 597 1042 l 486 1042 z "},"ű":{"ha":861,"x_min":83,"x_max":778,"o":"m 778 778 l 778 0 l 208 0 l 83 125 l 83 778 l 208 778 l 208 111 l 653 111 l 653 778 l 778 778 m 264 847 l 319 1014 l 458 1014 l 368 847 l 264 847 m 465 847 l 549 1014 l 688 1014 l 576 847 l 465 847 z "},"Ũ":{"ha":903,"x_min":83,"x_max":819,"o":"m 83 111 l 83 972 l 208 972 l 208 111 l 694 111 l 694 972 l 819 972 l 819 111 l 708 0 l 194 0 l 83 111 m 188 1056 l 160 1146 l 299 1243 l 582 1160 l 715 1236 l 743 1146 l 604 1049 l 321 1132 l 188 1056 z "},"ũ":{"ha":861,"x_min":83,"x_max":778,"o":"m 778 778 l 778 0 l 208 0 l 83 125 l 83 778 l 208 778 l 208 111 l 653 111 l 653 778 l 778 778 m 167 861 l 139 951 l 278 1049 l 561 965 l 694 1042 l 722 951 l 583 854 l 300 938 l 167 861 z "},"Ų":{"ha":903,"x_min":83,"x_max":819,"o":"m 83 111 l 83 972 l 208 972 l 208 111 l 694 111 l 694 972 l 819 972 l 819 111 l 708 0 l 194 0 l 83 111 m 583 -83 l 528 -278 l 393 -278 l 482 -83 l 583 -83 z "},"ų":{"ha":861,"x_min":83,"x_max":778,"o":"m 778 778 l 778 0 l 208 0 l 83 125 l 83 778 l 208 778 l 208 111 l 653 111 l 653 778 l 778 778 m 743 -83 l 688 -278 l 553 -278 l 642 -83 l 743 -83 z "},"Ū":{"ha":903,"x_min":83,"x_max":819,"o":"m 83 111 l 83 972 l 208 972 l 208 111 l 694 111 l 694 972 l 819 972 l 819 111 l 708 0 l 194 0 l 83 111 m 215 1103 l 215 1208 l 688 1208 l 688 1103 l 215 1103 z "},"ū":{"ha":861,"x_min":83,"x_max":778,"o":"m 778 778 l 778 0 l 208 0 l 83 125 l 83 778 l 208 778 l 208 111 l 653 111 l 653 778 l 778 778 m 194 908 l 194 1014 l 667 1014 l 667 908 l 194 908 z "},"Ȕ":{"ha":903,"x_min":83,"x_max":819,"o":"m 83 111 l 83 972 l 208 972 l 208 111 l 694 111 l 694 972 l 819 972 l 819 111 l 708 0 l 194 0 l 83 111 m 563 1208 l 618 1042 l 514 1042 l 424 1208 l 563 1208 m 333 1208 l 417 1042 l 306 1042 l 194 1208 l 333 1208 z "},"ȕ":{"ha":861,"x_min":83,"x_max":778,"o":"m 778 778 l 778 0 l 208 0 l 83 125 l 83 778 l 208 778 l 208 111 l 653 111 l 653 778 l 778 778 m 542 1014 l 597 847 l 493 847 l 403 1014 l 542 1014 m 313 1014 l 396 847 l 285 847 l 174 1014 l 313 1014 z "},"Ȗ":{"ha":903,"x_min":83,"x_max":819,"o":"m 83 111 l 83 972 l 208 972 l 208 111 l 694 111 l 694 972 l 819 972 l 819 111 l 708 0 l 194 0 l 83 111 m 301 1056 l 174 1056 l 271 1222 l 632 1222 l 729 1056 l 601 1056 l 556 1132 l 347 1132 l 301 1056 z "},"ȗ":{"ha":861,"x_min":83,"x_max":778,"o":"m 778 778 l 778 0 l 208 0 l 83 125 l 83 778 l 208 778 l 208 111 l 653 111 l 653 778 l 778 778 m 281 861 l 153 861 l 250 1028 l 611 1028 l 708 861 l 581 861 l 535 938 l 326 938 l 281 861 z "},"Ʉ":{"ha":903,"x_min":7,"x_max":896,"o":"m 7 447 l 7 556 l 896 556 l 896 447 l 7 447 m 83 111 l 83 972 l 208 972 l 208 111 l 694 111 l 694 972 l 819 972 l 819 111 l 708 0 l 194 0 l 83 111 z "},"ʉ":{"ha":861,"x_min":14,"x_max":847,"o":"m 14 381 l 14 486 l 847 486 l 847 381 l 14 381 m 778 778 l 778 0 l 208 0 l 83 125 l 83 778 l 208 778 l 208 111 l 653 111 l 653 778 l 778 778 z "},"Ṽ":{"ha":903,"x_min":28,"x_max":875,"o":"m 281 0 l 28 972 l 156 972 l 376 111 l 526 111 l 747 972 l 875 972 l 622 0 l 281 0 m 188 1056 l 160 1146 l 299 1243 l 582 1160 l 715 1236 l 743 1146 l 604 1049 l 321 1132 l 188 1056 z "},"ṽ":{"ha":806,"x_min":15,"x_max":790,"o":"m 235 0 l 15 778 l 142 778 l 326 111 l 479 111 l 664 778 l 790 778 l 571 0 l 235 0 m 139 861 l 111 951 l 250 1049 l 533 965 l 667 1042 l 694 951 l 556 854 l 272 938 l 139 861 z "},"Ʋ":{"ha":903,"x_min":83,"x_max":819,"o":"m 194 0 l 83 111 l 83 972 l 208 972 l 208 111 l 694 111 l 694 861 l 403 861 l 403 972 l 694 972 l 819 847 l 819 111 l 708 0 l 194 0 z "},"ʋ":{"ha":861,"x_min":83,"x_max":778,"o":"m 194 0 l 83 111 l 83 778 l 208 778 l 208 111 l 653 111 l 653 667 l 403 667 l 403 778 l 653 778 l 778 653 l 778 111 l 667 0 l 194 0 z "},"Ẃ":{"ha":1194,"x_min":28,"x_max":1167,"o":"m 183 0 l 28 972 l 151 972 l 286 111 l 375 111 l 511 819 l 683 819 l 819 111 l 908 111 l 1043 972 l 1167 972 l 1011 0 l 724 0 l 597 678 l 471 0 l 183 0 m 417 1083 l 417 1167 l 861 1201 l 861 1083 l 417 1083 z "},"ẃ":{"ha":1167,"x_min":56,"x_max":1111,"o":"m 183 0 l 56 778 l 179 778 l 286 111 l 361 111 l 497 708 l 669 708 l 806 111 l 881 111 l 988 778 l 1111 778 l 983 0 l 710 0 l 583 567 l 457 0 l 183 0 m 403 889 l 403 972 l 847 1007 l 847 889 l 403 889 z "},"Ẁ":{"ha":1194,"x_min":28,"x_max":1167,"o":"m 183 0 l 28 972 l 151 972 l 286 111 l 375 111 l 511 819 l 683 819 l 819 111 l 908 111 l 1043 972 l 1167 972 l 1011 0 l 724 0 l 597 678 l 471 0 l 183 0 m 778 1083 l 333 1083 l 333 1201 l 778 1167 l 778 1083 z "},"ẁ":{"ha":1167,"x_min":56,"x_max":1111,"o":"m 183 0 l 56 778 l 179 778 l 286 111 l 361 111 l 497 708 l 669 708 l 806 111 l 881 111 l 988 778 l 1111 778 l 983 0 l 710 0 l 583 567 l 457 0 l 183 0 m 764 889 l 319 889 l 319 1007 l 764 972 l 764 889 z "},"Ŵ":{"ha":1194,"x_min":28,"x_max":1167,"o":"m 183 0 l 28 972 l 151 972 l 286 111 l 375 111 l 511 819 l 683 819 l 819 111 l 908 111 l 1043 972 l 1167 972 l 1011 0 l 724 0 l 597 678 l 471 0 l 183 0 m 333 1049 l 333 1160 l 597 1257 l 861 1160 l 861 1049 l 597 1146 l 333 1049 z "},"ŵ":{"ha":1167,"x_min":56,"x_max":1111,"o":"m 183 0 l 56 778 l 179 778 l 286 111 l 361 111 l 497 708 l 669 708 l 806 111 l 881 111 l 988 778 l 1111 778 l 983 0 l 710 0 l 583 567 l 457 0 l 183 0 m 319 854 l 319 965 l 583 1063 l 847 965 l 847 854 l 583 951 l 319 854 z "},"Ẅ":{"ha":1194,"x_min":28,"x_max":1167,"o":"m 183 0 l 28 972 l 151 972 l 286 111 l 375 111 l 511 819 l 683 819 l 819 111 l 908 111 l 1043 972 l 1167 972 l 1011 0 l 724 0 l 597 678 l 471 0 l 183 0 m 382 1069 l 382 1181 l 507 1181 l 507 1069 l 382 1069 m 688 1069 l 688 1181 l 813 1181 l 813 1069 l 688 1069 z "},"ẅ":{"ha":1167,"x_min":56,"x_max":1111,"o":"m 183 0 l 56 778 l 179 778 l 286 111 l 361 111 l 497 708 l 669 708 l 806 111 l 881 111 l 988 778 l 1111 778 l 983 0 l 710 0 l 583 567 l 457 0 l 183 0 m 368 875 l 368 986 l 493 986 l 493 875 l 368 875 m 674 875 l 674 986 l 799 986 l 799 875 l 674 875 z "},"Ý":{"ha":889,"x_min":35,"x_max":854,"o":"m 382 0 l 382 292 l 260 292 l 35 972 l 167 972 l 347 400 l 542 400 l 722 972 l 854 972 l 629 292 l 507 292 l 507 0 l 382 0 m 264 1083 l 264 1167 l 708 1201 l 708 1083 l 264 1083 z "},"ý":{"ha":833,"x_min":15,"x_max":818,"o":"m 57 -194 l 57 -83 l 419 -83 l 479 111 l 242 111 l 15 778 l 142 778 l 331 222 l 513 222 l 692 778 l 818 778 l 507 -194 l 57 -194 m 236 889 l 236 972 l 681 1007 l 681 889 l 236 889 z "},"Ỳ":{"ha":889,"x_min":35,"x_max":854,"o":"m 382 0 l 382 292 l 260 292 l 35 972 l 167 972 l 347 400 l 542 400 l 722 972 l 854 972 l 629 292 l 507 292 l 507 0 l 382 0 m 625 1083 l 181 1083 l 181 1201 l 625 1167 l 625 1083 z "},"ỳ":{"ha":833,"x_min":15,"x_max":818,"o":"m 57 -194 l 57 -83 l 419 -83 l 479 111 l 242 111 l 15 778 l 142 778 l 331 222 l 513 222 l 692 778 l 818 778 l 507 -194 l 57 -194 m 597 889 l 153 889 l 153 1007 l 597 972 l 597 889 z "},"Ŷ":{"ha":889,"x_min":35,"x_max":854,"o":"m 382 0 l 382 292 l 260 292 l 35 972 l 167 972 l 347 400 l 542 400 l 722 972 l 854 972 l 629 292 l 507 292 l 507 0 l 382 0 m 181 1049 l 181 1160 l 444 1257 l 708 1160 l 708 1049 l 444 1146 l 181 1049 z "},"ŷ":{"ha":833,"x_min":15,"x_max":818,"o":"m 57 -194 l 57 -83 l 419 -83 l 479 111 l 242 111 l 15 778 l 142 778 l 331 222 l 513 222 l 692 778 l 818 778 l 507 -194 l 57 -194 m 153 854 l 153 965 l 417 1063 l 681 965 l 681 854 l 417 951 l 153 854 z "},"Ÿ":{"ha":889,"x_min":35,"x_max":854,"o":"m 382 0 l 382 292 l 260 292 l 35 972 l 167 972 l 347 400 l 542 400 l 722 972 l 854 972 l 629 292 l 507 292 l 507 0 l 382 0 m 229 1069 l 229 1181 l 354 1181 l 354 1069 l 229 1069 m 535 1069 l 535 1181 l 660 1181 l 660 1069 l 535 1069 z "},"ÿ":{"ha":833,"x_min":15,"x_max":818,"o":"m 57 -194 l 57 -83 l 419 -83 l 479 111 l 242 111 l 15 778 l 142 778 l 331 222 l 513 222 l 692 778 l 818 778 l 507 -194 l 57 -194 m 201 875 l 201 986 l 326 986 l 326 875 l 201 875 m 507 875 l 507 986 l 632 986 l 632 875 l 507 875 z "},"Ỹ":{"ha":889,"x_min":35,"x_max":854,"o":"m 382 0 l 382 292 l 260 292 l 35 972 l 167 972 l 347 400 l 542 400 l 722 972 l 854 972 l 629 292 l 507 292 l 507 0 l 382 0 m 181 1056 l 153 1146 l 292 1243 l 575 1160 l 708 1236 l 736 1146 l 597 1049 l 314 1132 l 181 1056 z "},"ỹ":{"ha":833,"x_min":15,"x_max":818,"o":"m 57 -194 l 57 -83 l 419 -83 l 479 111 l 242 111 l 15 778 l 142 778 l 331 222 l 513 222 l 692 778 l 818 778 l 507 -194 l 57 -194 m 153 861 l 125 951 l 264 1049 l 547 965 l 681 1042 l 708 951 l 569 854 l 286 938 l 153 861 z "},"Ȳ":{"ha":889,"x_min":35,"x_max":854,"o":"m 382 0 l 382 292 l 260 292 l 35 972 l 167 972 l 347 400 l 542 400 l 722 972 l 854 972 l 629 292 l 507 292 l 507 0 l 382 0 m 208 1103 l 208 1208 l 681 1208 l 681 1103 l 208 1103 z "},"ȳ":{"ha":833,"x_min":15,"x_max":818,"o":"m 57 -194 l 57 -83 l 419 -83 l 479 111 l 242 111 l 15 778 l 142 778 l 331 222 l 513 222 l 692 778 l 818 778 l 507 -194 l 57 -194 m 181 908 l 181 1014 l 653 1014 l 653 908 l 181 908 z "},"Ƴ":{"ha":889,"x_min":35,"x_max":882,"o":"m 382 0 l 382 292 l 260 292 l 35 972 l 167 972 l 347 400 l 542 400 l 658 875 l 756 972 l 882 972 l 882 861 l 781 861 l 629 292 l 507 292 l 507 0 l 382 0 z "},"ƴ":{"ha":833,"x_min":15,"x_max":875,"o":"m 57 -194 l 57 -83 l 432 -83 l 478 111 l 242 111 l 15 778 l 142 778 l 331 222 l 501 222 l 640 875 l 738 972 l 875 972 l 875 861 l 750 861 l 521 -194 l 57 -194 z "},"Ź":{"ha":778,"x_min":69,"x_max":708,"o":"m 69 0 l 69 97 l 563 861 l 69 861 l 69 972 l 708 972 l 708 875 l 215 111 l 708 111 l 708 0 l 69 0 m 208 1083 l 208 1167 l 653 1201 l 653 1083 l 208 1083 z "},"ź":{"ha":736,"x_min":42,"x_max":694,"o":"m 42 0 l 42 83 l 532 667 l 51 667 l 51 778 l 688 778 l 688 694 l 197 111 l 694 111 l 694 0 l 42 0 m 188 889 l 188 972 l 632 1007 l 632 889 l 188 889 z "},"Ž":{"ha":778,"x_min":69,"x_max":708,"o":"m 69 0 l 69 97 l 563 861 l 69 861 l 69 972 l 708 972 l 708 875 l 215 111 l 708 111 l 708 0 l 69 0 m 653 1257 l 653 1146 l 389 1049 l 125 1146 l 125 1257 l 389 1160 l 653 1257 z "},"ž":{"ha":736,"x_min":42,"x_max":694,"o":"m 42 0 l 42 83 l 532 667 l 51 667 l 51 778 l 688 778 l 688 694 l 197 111 l 694 111 l 694 0 l 42 0 m 632 1063 l 632 951 l 368 854 l 104 951 l 104 1063 l 368 965 l 632 1063 z "},"Ż":{"ha":778,"x_min":69,"x_max":708,"o":"m 69 0 l 69 97 l 563 861 l 69 861 l 69 972 l 708 972 l 708 875 l 215 111 l 708 111 l 708 0 l 69 0 m 326 1069 l 326 1181 l 451 1181 l 451 1069 l 326 1069 z "},"ż":{"ha":736,"x_min":42,"x_max":694,"o":"m 42 0 l 42 83 l 532 667 l 51 667 l 51 778 l 688 778 l 688 694 l 197 111 l 694 111 l 694 0 l 42 0 m 306 875 l 306 986 l 431 986 l 431 875 l 306 875 z "},"Ẓ":{"ha":778,"x_min":69,"x_max":708,"o":"m 69 0 l 69 97 l 563 861 l 69 861 l 69 972 l 708 972 l 708 875 l 215 111 l 708 111 l 708 0 l 69 0 m 326 -222 l 326 -111 l 451 -111 l 451 -222 l 326 -222 z "},"ẓ":{"ha":736,"x_min":42,"x_max":694,"o":"m 42 0 l 42 83 l 532 667 l 51 667 l 51 778 l 688 778 l 688 694 l 197 111 l 694 111 l 694 0 l 42 0 m 306 -222 l 306 -111 l 431 -111 l 431 -222 l 306 -222 z "},"Ʒ":{"ha":847,"x_min":36,"x_max":792,"o":"m 681 0 l 36 0 l 36 111 l 667 111 l 667 453 l 210 453 l 210 556 l 594 861 l 57 861 l 57 972 l 765 972 l 765 875 l 361 556 l 694 556 l 792 458 l 792 111 l 681 0 z "},"ʒ":{"ha":806,"x_min":36,"x_max":750,"o":"m 639 -194 l 36 -194 l 36 -83 l 625 -83 l 625 244 l 168 244 l 168 347 l 553 667 l 57 667 l 57 778 l 724 778 l 724 681 l 319 347 l 653 347 l 750 250 l 750 -83 l 639 -194 z "},"Ǯ":{"ha":847,"x_min":36,"x_max":792,"o":"m 681 0 l 36 0 l 36 111 l 667 111 l 667 453 l 210 453 l 210 556 l 594 861 l 57 861 l 57 972 l 765 972 l 765 875 l 361 556 l 694 556 l 792 458 l 792 111 l 681 0 m 688 1257 l 688 1146 l 424 1049 l 160 1146 l 160 1257 l 424 1160 l 688 1257 z "},"ǯ":{"ha":806,"x_min":36,"x_max":750,"o":"m 639 -194 l 36 -194 l 36 -83 l 625 -83 l 625 244 l 168 244 l 168 347 l 553 667 l 57 667 l 57 778 l 724 778 l 724 681 l 319 347 l 653 347 l 750 250 l 750 -83 l 639 -194 m 667 1063 l 667 951 l 403 854 l 139 951 l 139 1063 l 403 965 l 667 1063 z "},"Þ":{"ha":889,"x_min":83,"x_max":833,"o":"m 83 0 l 83 972 l 208 972 l 208 861 l 722 861 l 833 750 l 833 236 l 722 125 l 208 125 l 208 0 l 83 0 m 208 236 l 708 236 l 708 750 l 208 750 l 208 236 z "},"þ":{"ha":861,"x_min":83,"x_max":785,"o":"m 83 -194 l 83 972 l 208 972 l 208 778 l 660 778 l 785 653 l 785 125 l 660 0 l 208 0 l 208 -194 l 83 -194 m 208 111 l 660 111 l 660 667 l 208 667 l 208 111 z "},"ʔ":{"ha":764,"x_min":21,"x_max":743,"o":"m 319 0 l 194 0 l 194 481 l 618 592 l 618 861 l 21 861 l 21 972 l 618 972 l 743 847 l 743 513 l 319 401 l 319 0 z "},"Ꞌ":{"ha":319,"x_min":86,"x_max":233,"o":"m 111 278 l 86 972 l 233 972 l 208 278 l 111 278 z "},"ꞌ":{"ha":292,"x_min":72,"x_max":219,"o":"m 97 417 l 72 972 l 219 972 l 194 417 l 97 417 z "},"ǀ":{"ha":306,"x_min":97,"x_max":208,"o":"m 97 -42 l 97 1014 l 208 1014 l 208 -42 l 97 -42 z "},"ǁ":{"ha":556,"x_min":97,"x_max":458,"o":"m 97 -42 l 97 1014 l 208 1014 l 208 -42 l 97 -42 m 347 -42 l 347 1014 l 458 1014 l 458 -42 l 347 -42 z "},"ǂ":{"ha":833,"x_min":56,"x_max":778,"o":"m 361 -42 l 361 285 l 56 285 l 56 396 l 361 396 l 361 576 l 56 576 l 56 688 l 361 688 l 361 1014 l 472 1014 l 472 688 l 778 688 l 778 576 l 472 576 l 472 396 l 778 396 l 778 285 l 472 285 l 472 -42 l 361 -42 z "},"ǃ":{"ha":375,"x_min":114,"x_max":261,"o":"m 125 0 l 125 139 l 250 139 l 250 0 l 125 0 m 139 306 l 114 972 l 261 972 l 236 306 l 139 306 z "},"Ạ":{"ha":903,"x_min":28,"x_max":875,"o":"m 28 0 l 281 972 l 622 972 l 875 0 l 747 0 l 683 250 l 219 250 l 156 0 l 28 0 m 247 358 l 656 358 l 526 864 l 376 864 l 247 358 m 389 -222 l 389 -111 l 514 -111 l 514 -222 l 389 -222 z "},"ạ":{"ha":833,"x_min":69,"x_max":750,"o":"m 69 125 l 69 444 l 625 458 l 625 667 l 97 667 l 97 778 l 625 778 l 750 653 l 750 0 l 194 0 l 69 125 m 194 333 l 194 111 l 625 111 l 625 361 l 194 333 m 333 -222 l 333 -111 l 458 -111 l 458 -222 l 333 -222 z "},"Ả":{"ha":903,"x_min":28,"x_max":875,"o":"m 28 0 l 281 972 l 622 972 l 875 0 l 747 0 l 683 250 l 219 250 l 156 0 l 28 0 m 247 358 l 656 358 l 526 864 l 376 864 l 247 358 m 326 1125 l 326 1208 l 604 1208 l 604 1125 l 507 1014 l 389 1014 l 486 1125 l 326 1125 z "},"ả":{"ha":833,"x_min":69,"x_max":750,"o":"m 69 125 l 69 444 l 625 458 l 625 667 l 97 667 l 97 778 l 625 778 l 750 653 l 750 0 l 194 0 l 69 125 m 194 333 l 194 111 l 625 111 l 625 361 l 194 333 m 271 931 l 271 1014 l 549 1014 l 549 931 l 451 819 l 333 819 l 431 931 l 271 931 z "},"Ấ":{"ha":903,"x_min":28,"x_max":875,"o":"m 28 0 l 281 972 l 622 972 l 875 0 l 747 0 l 683 250 l 219 250 l 156 0 l 28 0 m 247 358 l 656 358 l 526 864 l 376 864 l 247 358 m 493 1260 l 493 1326 l 715 1389 l 715 1285 l 493 1260 m 188 1035 l 188 1146 l 451 1243 l 715 1146 l 715 1035 l 451 1132 l 188 1035 z "},"ấ":{"ha":833,"x_min":69,"x_max":750,"o":"m 69 125 l 69 444 l 625 458 l 625 667 l 97 667 l 97 778 l 625 778 l 750 653 l 750 0 l 194 0 l 69 125 m 194 333 l 194 111 l 625 111 l 625 361 l 194 333 m 438 1065 l 438 1132 l 660 1194 l 660 1090 l 438 1065 m 132 840 l 132 951 l 396 1049 l 660 951 l 660 840 l 396 938 l 132 840 z "},"Ầ":{"ha":903,"x_min":28,"x_max":875,"o":"m 28 0 l 281 972 l 622 972 l 875 0 l 747 0 l 683 250 l 219 250 l 156 0 l 28 0 m 247 358 l 656 358 l 526 864 l 376 864 l 247 358 m 715 1243 l 493 1288 l 493 1389 l 715 1313 l 715 1243 m 188 1035 l 188 1146 l 451 1243 l 715 1146 l 715 1035 l 451 1132 l 188 1035 z "},"ầ":{"ha":833,"x_min":69,"x_max":750,"o":"m 69 125 l 69 444 l 625 458 l 625 667 l 97 667 l 97 778 l 625 778 l 750 653 l 750 0 l 194 0 l 69 125 m 194 333 l 194 111 l 625 111 l 625 361 l 194 333 m 660 1049 l 438 1093 l 438 1194 l 660 1118 l 660 1049 m 132 840 l 132 951 l 396 1049 l 660 951 l 660 840 l 396 938 l 132 840 z "},"Ẩ":{"ha":903,"x_min":28,"x_max":875,"o":"m 28 0 l 281 972 l 622 972 l 875 0 l 747 0 l 683 250 l 219 250 l 156 0 l 28 0 m 247 358 l 656 358 l 526 864 l 376 864 l 247 358 m 188 1035 l 188 1146 l 451 1243 l 715 1146 l 715 1035 l 451 1132 l 188 1035 m 569 1311 l 569 1389 l 722 1389 l 778 1319 l 694 1215 l 613 1246 l 671 1311 l 569 1311 z "},"ẩ":{"ha":833,"x_min":69,"x_max":750,"o":"m 69 125 l 69 444 l 625 458 l 625 667 l 97 667 l 97 778 l 625 778 l 750 653 l 750 0 l 194 0 l 69 125 m 194 333 l 194 111 l 625 111 l 625 361 l 194 333 m 132 840 l 132 951 l 396 1049 l 660 951 l 660 840 l 396 938 l 132 840 m 514 1117 l 514 1194 l 667 1194 l 722 1125 l 639 1021 l 557 1051 l 615 1117 l 514 1117 z "},"Ẫ":{"ha":903,"x_min":28,"x_max":875,"o":"m 28 0 l 281 972 l 622 972 l 875 0 l 747 0 l 683 250 l 219 250 l 156 0 l 28 0 m 247 358 l 656 358 l 526 864 l 376 864 l 247 358 m 188 1028 l 188 1132 l 451 1215 l 715 1132 l 715 1028 l 451 1104 l 188 1028 m 229 1236 l 201 1310 l 354 1389 l 540 1333 l 674 1389 l 701 1315 l 549 1236 l 363 1292 l 229 1236 z "},"ẫ":{"ha":833,"x_min":69,"x_max":750,"o":"m 69 125 l 69 444 l 625 458 l 625 667 l 97 667 l 97 778 l 625 778 l 750 653 l 750 0 l 194 0 l 69 125 m 194 333 l 194 111 l 625 111 l 625 361 l 194 333 m 132 833 l 132 938 l 396 1021 l 660 938 l 660 833 l 396 910 l 132 833 m 174 1042 l 146 1115 l 299 1194 l 485 1139 l 618 1194 l 646 1121 l 493 1042 l 307 1097 l 174 1042 z "},"Ậ":{"ha":903,"x_min":28,"x_max":875,"o":"m 28 0 l 281 972 l 622 972 l 875 0 l 747 0 l 683 250 l 219 250 l 156 0 l 28 0 m 247 358 l 656 358 l 526 864 l 376 864 l 247 358 m 389 -222 l 389 -111 l 514 -111 l 514 -222 l 389 -222 m 188 1049 l 188 1160 l 451 1257 l 715 1160 l 715 1049 l 451 1146 l 188 1049 z "},"ậ":{"ha":833,"x_min":69,"x_max":750,"o":"m 69 125 l 69 444 l 625 458 l 625 667 l 97 667 l 97 778 l 625 778 l 750 653 l 750 0 l 194 0 l 69 125 m 194 333 l 194 111 l 625 111 l 625 361 l 194 333 m 333 -222 l 333 -111 l 458 -111 l 458 -222 l 333 -222 m 132 854 l 132 965 l 396 1063 l 660 965 l 660 854 l 396 951 l 132 854 z "},"Ắ":{"ha":903,"x_min":28,"x_max":875,"o":"m 28 0 l 281 972 l 622 972 l 875 0 l 747 0 l 683 250 l 219 250 l 156 0 l 28 0 m 247 358 l 656 358 l 526 864 l 376 864 l 247 358 m 410 1260 l 410 1326 l 632 1389 l 632 1285 l 410 1260 m 606 1236 l 729 1236 l 632 1069 l 271 1069 l 174 1236 l 297 1236 l 343 1160 l 560 1160 l 606 1236 z "},"ắ":{"ha":833,"x_min":69,"x_max":750,"o":"m 69 125 l 69 444 l 625 458 l 625 667 l 97 667 l 97 778 l 625 778 l 750 653 l 750 0 l 194 0 l 69 125 m 194 333 l 194 111 l 625 111 l 625 361 l 194 333 m 354 1065 l 354 1132 l 576 1194 l 576 1090 l 354 1065 m 550 1042 l 674 1042 l 576 875 l 215 875 l 118 1042 l 242 1042 l 288 965 l 504 965 l 550 1042 z "},"Ằ":{"ha":903,"x_min":28,"x_max":875,"o":"m 28 0 l 281 972 l 622 972 l 875 0 l 747 0 l 683 250 l 219 250 l 156 0 l 28 0 m 247 358 l 656 358 l 526 864 l 376 864 l 247 358 m 493 1243 l 271 1288 l 271 1389 l 493 1313 l 493 1243 m 606 1236 l 729 1236 l 632 1069 l 271 1069 l 174 1236 l 297 1236 l 343 1160 l 560 1160 l 606 1236 z "},"ằ":{"ha":833,"x_min":69,"x_max":750,"o":"m 69 125 l 69 444 l 625 458 l 625 667 l 97 667 l 97 778 l 625 778 l 750 653 l 750 0 l 194 0 l 69 125 m 194 333 l 194 111 l 625 111 l 625 361 l 194 333 m 438 1049 l 215 1093 l 215 1194 l 438 1118 l 438 1049 m 550 1042 l 674 1042 l 576 875 l 215 875 l 118 1042 l 242 1042 l 288 965 l 504 965 l 550 1042 z "},"Ẳ":{"ha":903,"x_min":28,"x_max":875,"o":"m 28 0 l 281 972 l 622 972 l 875 0 l 747 0 l 683 250 l 219 250 l 156 0 l 28 0 m 247 358 l 656 358 l 526 864 l 376 864 l 247 358 m 375 1311 l 375 1389 l 528 1389 l 583 1319 l 500 1215 l 418 1246 l 476 1311 l 375 1311 m 606 1236 l 729 1236 l 632 1069 l 271 1069 l 174 1236 l 297 1236 l 343 1160 l 560 1160 l 606 1236 z "},"ẳ":{"ha":833,"x_min":69,"x_max":750,"o":"m 69 125 l 69 444 l 625 458 l 625 667 l 97 667 l 97 778 l 625 778 l 750 653 l 750 0 l 194 0 l 69 125 m 194 333 l 194 111 l 625 111 l 625 361 l 194 333 m 319 1117 l 319 1194 l 472 1194 l 528 1125 l 444 1021 l 363 1051 l 421 1117 l 319 1117 m 550 1042 l 674 1042 l 576 875 l 215 875 l 118 1042 l 242 1042 l 288 965 l 504 965 l 550 1042 z "},"Ẵ":{"ha":903,"x_min":28,"x_max":875,"o":"m 28 0 l 281 972 l 622 972 l 875 0 l 747 0 l 683 250 l 219 250 l 156 0 l 28 0 m 247 358 l 656 358 l 526 864 l 376 864 l 247 358 m 257 1246 l 229 1319 l 354 1389 l 540 1333 l 646 1389 l 674 1315 l 549 1236 l 363 1292 l 257 1246 m 615 1215 l 736 1215 l 639 1063 l 264 1063 l 167 1215 l 288 1215 l 333 1153 l 569 1153 l 615 1215 z "},"ẵ":{"ha":833,"x_min":69,"x_max":750,"o":"m 69 125 l 69 444 l 625 458 l 625 667 l 97 667 l 97 778 l 625 778 l 750 653 l 750 0 l 194 0 l 69 125 m 194 333 l 194 111 l 625 111 l 625 361 l 194 333 m 201 1051 l 174 1125 l 299 1194 l 485 1139 l 590 1194 l 618 1121 l 493 1042 l 307 1097 l 201 1051 m 560 1021 l 681 1021 l 583 868 l 208 868 l 111 1021 l 232 1021 l 278 958 l 514 958 l 560 1021 z "},"Ặ":{"ha":903,"x_min":28,"x_max":875,"o":"m 28 0 l 281 972 l 622 972 l 875 0 l 747 0 l 683 250 l 219 250 l 156 0 l 28 0 m 247 358 l 656 358 l 526 864 l 376 864 l 247 358 m 389 -222 l 389 -111 l 514 -111 l 514 -222 l 389 -222 m 601 1236 l 729 1236 l 632 1069 l 271 1069 l 174 1236 l 301 1236 l 347 1160 l 556 1160 l 601 1236 z "},"ặ":{"ha":833,"x_min":69,"x_max":750,"o":"m 69 125 l 69 444 l 625 458 l 625 667 l 97 667 l 97 778 l 625 778 l 750 653 l 750 0 l 194 0 l 69 125 m 194 333 l 194 111 l 625 111 l 625 361 l 194 333 m 333 -222 l 333 -111 l 458 -111 l 458 -222 l 333 -222 m 546 1042 l 674 1042 l 576 875 l 215 875 l 118 1042 l 246 1042 l 292 965 l 500 965 l 546 1042 z "},"Ẹ":{"ha":806,"x_min":83,"x_max":764,"o":"m 83 0 l 83 972 l 750 972 l 750 861 l 208 861 l 208 556 l 681 556 l 681 444 l 208 444 l 208 111 l 764 111 l 764 0 l 83 0 m 361 -222 l 361 -111 l 486 -111 l 486 -222 l 361 -222 z "},"ẹ":{"ha":819,"x_min":76,"x_max":743,"o":"m 76 125 l 76 653 l 201 778 l 743 778 l 743 347 l 201 347 l 201 111 l 715 111 l 715 0 l 201 0 l 76 125 m 201 444 l 624 458 l 624 667 l 201 667 l 201 444 m 368 -222 l 368 -111 l 493 -111 l 493 -222 l 368 -222 z "},"Ẻ":{"ha":806,"x_min":83,"x_max":764,"o":"m 83 0 l 83 972 l 750 972 l 750 861 l 208 861 l 208 556 l 681 556 l 681 444 l 208 444 l 208 111 l 764 111 l 764 0 l 83 0 m 299 1125 l 299 1208 l 576 1208 l 576 1125 l 479 1014 l 361 1014 l 458 1125 l 299 1125 z "},"ẻ":{"ha":819,"x_min":76,"x_max":743,"o":"m 76 125 l 76 653 l 201 778 l 743 778 l 743 347 l 201 347 l 201 111 l 715 111 l 715 0 l 201 0 l 76 125 m 201 444 l 624 458 l 624 667 l 201 667 l 201 444 m 306 931 l 306 1014 l 583 1014 l 583 931 l 486 819 l 368 819 l 465 931 l 306 931 z "},"Ẽ":{"ha":806,"x_min":83,"x_max":764,"o":"m 83 0 l 83 972 l 750 972 l 750 861 l 208 861 l 208 556 l 681 556 l 681 444 l 208 444 l 208 111 l 764 111 l 764 0 l 83 0 m 160 1056 l 132 1146 l 271 1243 l 554 1160 l 688 1236 l 715 1146 l 576 1049 l 293 1132 l 160 1056 z "},"ẽ":{"ha":819,"x_min":76,"x_max":743,"o":"m 76 125 l 76 653 l 201 778 l 743 778 l 743 347 l 201 347 l 201 111 l 715 111 l 715 0 l 201 0 l 76 125 m 201 444 l 624 458 l 624 667 l 201 667 l 201 444 m 167 861 l 139 951 l 278 1049 l 561 965 l 694 1042 l 722 951 l 583 854 l 300 938 l 167 861 z "},"Ế":{"ha":806,"x_min":83,"x_max":764,"o":"m 83 0 l 83 972 l 750 972 l 750 861 l 208 861 l 208 556 l 681 556 l 681 444 l 208 444 l 208 111 l 764 111 l 764 0 l 83 0 m 465 1260 l 465 1326 l 688 1389 l 688 1285 l 465 1260 m 160 1035 l 160 1146 l 424 1243 l 688 1146 l 688 1035 l 424 1132 l 160 1035 z "},"ế":{"ha":819,"x_min":76,"x_max":743,"o":"m 76 125 l 76 653 l 201 778 l 743 778 l 743 347 l 201 347 l 201 111 l 715 111 l 715 0 l 201 0 l 76 125 m 201 444 l 624 458 l 624 667 l 201 667 l 201 444 m 472 1065 l 472 1132 l 694 1194 l 694 1090 l 472 1065 m 167 840 l 167 951 l 431 1049 l 694 951 l 694 840 l 431 938 l 167 840 z "},"Ề":{"ha":806,"x_min":83,"x_max":764,"o":"m 83 0 l 83 972 l 750 972 l 750 861 l 208 861 l 208 556 l 681 556 l 681 444 l 208 444 l 208 111 l 764 111 l 764 0 l 83 0 m 688 1243 l 465 1288 l 465 1389 l 688 1313 l 688 1243 m 160 1035 l 160 1146 l 424 1243 l 688 1146 l 688 1035 l 424 1132 l 160 1035 z "},"ề":{"ha":819,"x_min":76,"x_max":743,"o":"m 76 125 l 76 653 l 201 778 l 743 778 l 743 347 l 201 347 l 201 111 l 715 111 l 715 0 l 201 0 l 76 125 m 201 444 l 624 458 l 624 667 l 201 667 l 201 444 m 694 1049 l 472 1093 l 472 1194 l 694 1118 l 694 1049 m 167 840 l 167 951 l 431 1049 l 694 951 l 694 840 l 431 938 l 167 840 z "},"Ể":{"ha":806,"x_min":83,"x_max":764,"o":"m 83 0 l 83 972 l 750 972 l 750 861 l 208 861 l 208 556 l 681 556 l 681 444 l 208 444 l 208 111 l 764 111 l 764 0 l 83 0 m 160 1035 l 160 1146 l 424 1243 l 688 1146 l 688 1035 l 424 1132 l 160 1035 m 542 1311 l 542 1389 l 694 1389 l 750 1319 l 667 1215 l 585 1246 l 643 1311 l 542 1311 z "},"ể":{"ha":819,"x_min":76,"x_max":757,"o":"m 76 125 l 76 653 l 201 778 l 743 778 l 743 347 l 201 347 l 201 111 l 715 111 l 715 0 l 201 0 l 76 125 m 201 444 l 624 458 l 624 667 l 201 667 l 201 444 m 167 840 l 167 951 l 431 1049 l 694 951 l 694 840 l 431 938 l 167 840 m 549 1117 l 549 1194 l 701 1194 l 757 1125 l 674 1021 l 592 1051 l 650 1117 l 549 1117 z "},"Ễ":{"ha":806,"x_min":83,"x_max":764,"o":"m 83 0 l 83 972 l 750 972 l 750 861 l 208 861 l 208 556 l 681 556 l 681 444 l 208 444 l 208 111 l 764 111 l 764 0 l 83 0 m 160 1028 l 160 1132 l 424 1215 l 688 1132 l 688 1028 l 424 1104 l 160 1028 m 201 1236 l 174 1310 l 326 1389 l 513 1333 l 646 1389 l 674 1315 l 521 1236 l 335 1292 l 201 1236 z "},"ễ":{"ha":819,"x_min":76,"x_max":743,"o":"m 76 125 l 76 653 l 201 778 l 743 778 l 743 347 l 201 347 l 201 111 l 715 111 l 715 0 l 201 0 l 76 125 m 201 444 l 624 458 l 624 667 l 201 667 l 201 444 m 167 833 l 167 938 l 431 1021 l 694 938 l 694 833 l 431 910 l 167 833 m 208 1042 l 181 1115 l 333 1194 l 519 1139 l 653 1194 l 681 1121 l 528 1042 l 342 1097 l 208 1042 z "},"Ệ":{"ha":806,"x_min":83,"x_max":764,"o":"m 83 0 l 83 972 l 750 972 l 750 861 l 208 861 l 208 556 l 681 556 l 681 444 l 208 444 l 208 111 l 764 111 l 764 0 l 83 0 m 361 -222 l 361 -111 l 486 -111 l 486 -222 l 361 -222 m 160 1049 l 160 1160 l 424 1257 l 688 1160 l 688 1049 l 424 1146 l 160 1049 z "},"ệ":{"ha":819,"x_min":76,"x_max":743,"o":"m 76 125 l 76 653 l 201 778 l 743 778 l 743 347 l 201 347 l 201 111 l 715 111 l 715 0 l 201 0 l 76 125 m 201 444 l 624 458 l 624 667 l 201 667 l 201 444 m 368 -222 l 368 -111 l 493 -111 l 493 -222 l 368 -222 m 167 854 l 167 965 l 431 1063 l 694 965 l 694 854 l 431 951 l 167 854 z "},"Ỉ":{"ha":597,"x_min":63,"x_max":535,"o":"m 63 -6 l 63 106 l 236 113 l 236 860 l 63 867 l 63 978 l 299 967 l 535 978 l 535 867 l 361 860 l 361 113 l 535 106 l 535 -6 l 299 6 l 63 -6 m 174 1125 l 174 1208 l 451 1208 l 451 1125 l 354 1014 l 236 1014 l 333 1125 l 174 1125 z "},"ỉ":{"ha":292,"x_min":21,"x_max":299,"o":"m 83 0 l 83 778 l 208 778 l 208 0 l 83 0 m 21 931 l 21 1014 l 299 1014 l 299 931 l 201 819 l 83 819 l 181 931 l 21 931 z "},"Ị":{"ha":597,"x_min":63,"x_max":535,"o":"m 63 -6 l 63 106 l 236 113 l 236 860 l 63 867 l 63 978 l 299 967 l 535 978 l 535 867 l 361 860 l 361 113 l 535 106 l 535 -6 l 299 6 l 63 -6 m 236 -222 l 236 -111 l 361 -111 l 361 -222 l 236 -222 z "},"ị":{"ha":292,"x_min":83,"x_max":208,"o":"m 83 0 l 83 778 l 208 778 l 208 0 l 83 0 m 83 875 l 83 986 l 208 986 l 208 875 l 83 875 m 83 -222 l 83 -111 l 208 -111 l 208 -222 l 83 -222 z "},"Ọ":{"ha":944,"x_min":83,"x_max":861,"o":"m 83 111 l 83 861 l 194 972 l 750 972 l 861 861 l 861 111 l 750 0 l 194 0 l 83 111 m 208 861 l 208 111 l 736 111 l 736 861 l 208 861 m 410 -222 l 410 -111 l 535 -111 l 535 -222 l 410 -222 z "},"ọ":{"ha":833,"x_min":76,"x_max":757,"o":"m 76 125 l 76 653 l 201 778 l 632 778 l 757 653 l 757 125 l 632 0 l 201 0 l 76 125 m 201 111 l 632 111 l 632 667 l 201 667 l 201 111 m 354 -222 l 354 -111 l 479 -111 l 479 -222 l 354 -222 z "},"Ỏ":{"ha":944,"x_min":83,"x_max":861,"o":"m 83 111 l 83 861 l 194 972 l 750 972 l 861 861 l 861 111 l 750 0 l 194 0 l 83 111 m 208 861 l 208 111 l 736 111 l 736 861 l 208 861 m 347 1125 l 347 1208 l 625 1208 l 625 1125 l 528 1014 l 410 1014 l 507 1125 l 347 1125 z "},"ỏ":{"ha":833,"x_min":76,"x_max":757,"o":"m 76 125 l 76 653 l 201 778 l 632 778 l 757 653 l 757 125 l 632 0 l 201 0 l 76 125 m 201 111 l 632 111 l 632 667 l 201 667 l 201 111 m 292 931 l 292 1014 l 569 1014 l 569 931 l 472 819 l 354 819 l 451 931 l 292 931 z "},"Ố":{"ha":944,"x_min":83,"x_max":861,"o":"m 83 111 l 83 861 l 194 972 l 750 972 l 861 861 l 861 111 l 750 0 l 194 0 l 83 111 m 208 861 l 208 111 l 736 111 l 736 861 l 208 861 m 514 1260 l 514 1326 l 736 1389 l 736 1285 l 514 1260 m 208 1035 l 208 1146 l 472 1243 l 736 1146 l 736 1035 l 472 1132 l 208 1035 z "},"ố":{"ha":833,"x_min":76,"x_max":757,"o":"m 76 125 l 76 653 l 201 778 l 632 778 l 757 653 l 757 125 l 632 0 l 201 0 l 76 125 m 201 111 l 632 111 l 632 667 l 201 667 l 201 111 m 458 1065 l 458 1132 l 681 1194 l 681 1090 l 458 1065 m 153 840 l 153 951 l 417 1049 l 681 951 l 681 840 l 417 938 l 153 840 z "},"Ồ":{"ha":944,"x_min":83,"x_max":861,"o":"m 83 111 l 83 861 l 194 972 l 750 972 l 861 861 l 861 111 l 750 0 l 194 0 l 83 111 m 208 861 l 208 111 l 736 111 l 736 861 l 208 861 m 736 1243 l 514 1288 l 514 1389 l 736 1313 l 736 1243 m 208 1035 l 208 1146 l 472 1243 l 736 1146 l 736 1035 l 472 1132 l 208 1035 z "},"ồ":{"ha":833,"x_min":76,"x_max":757,"o":"m 76 125 l 76 653 l 201 778 l 632 778 l 757 653 l 757 125 l 632 0 l 201 0 l 76 125 m 201 111 l 632 111 l 632 667 l 201 667 l 201 111 m 681 1049 l 458 1093 l 458 1194 l 681 1118 l 681 1049 m 153 840 l 153 951 l 417 1049 l 681 951 l 681 840 l 417 938 l 153 840 z "},"Ổ":{"ha":944,"x_min":83,"x_max":861,"o":"m 83 111 l 83 861 l 194 972 l 750 972 l 861 861 l 861 111 l 750 0 l 194 0 l 83 111 m 208 861 l 208 111 l 736 111 l 736 861 l 208 861 m 208 1035 l 208 1146 l 472 1243 l 736 1146 l 736 1035 l 472 1132 l 208 1035 m 590 1311 l 590 1389 l 743 1389 l 799 1319 l 715 1215 l 633 1246 l 692 1311 l 590 1311 z "},"ổ":{"ha":833,"x_min":76,"x_max":757,"o":"m 76 125 l 76 653 l 201 778 l 632 778 l 757 653 l 757 125 l 632 0 l 201 0 l 76 125 m 201 111 l 632 111 l 632 667 l 201 667 l 201 111 m 153 840 l 153 951 l 417 1049 l 681 951 l 681 840 l 417 938 l 153 840 m 535 1117 l 535 1194 l 688 1194 l 743 1125 l 660 1021 l 578 1051 l 636 1117 l 535 1117 z "},"Ỗ":{"ha":944,"x_min":83,"x_max":861,"o":"m 83 111 l 83 861 l 194 972 l 750 972 l 861 861 l 861 111 l 750 0 l 194 0 l 83 111 m 208 861 l 208 111 l 736 111 l 736 861 l 208 861 m 208 1028 l 208 1132 l 472 1215 l 736 1132 l 736 1028 l 472 1104 l 208 1028 m 250 1236 l 222 1310 l 375 1389 l 561 1333 l 694 1389 l 722 1315 l 569 1236 l 383 1292 l 250 1236 z "},"ỗ":{"ha":833,"x_min":76,"x_max":757,"o":"m 76 125 l 76 653 l 201 778 l 632 778 l 757 653 l 757 125 l 632 0 l 201 0 l 76 125 m 201 111 l 632 111 l 632 667 l 201 667 l 201 111 m 153 833 l 153 938 l 417 1021 l 681 938 l 681 833 l 417 910 l 153 833 m 194 1042 l 167 1115 l 319 1194 l 506 1139 l 639 1194 l 667 1121 l 514 1042 l 328 1097 l 194 1042 z "},"Ộ":{"ha":944,"x_min":83,"x_max":861,"o":"m 83 111 l 83 861 l 194 972 l 750 972 l 861 861 l 861 111 l 750 0 l 194 0 l 83 111 m 208 861 l 208 111 l 736 111 l 736 861 l 208 861 m 410 -222 l 410 -111 l 535 -111 l 535 -222 l 410 -222 m 208 1049 l 208 1160 l 472 1257 l 736 1160 l 736 1049 l 472 1146 l 208 1049 z "},"ộ":{"ha":833,"x_min":76,"x_max":757,"o":"m 76 125 l 76 653 l 201 778 l 632 778 l 757 653 l 757 125 l 632 0 l 201 0 l 76 125 m 201 111 l 632 111 l 632 667 l 201 667 l 201 111 m 354 -222 l 354 -111 l 479 -111 l 479 -222 l 354 -222 m 153 854 l 153 965 l 417 1063 l 681 965 l 681 854 l 417 951 l 153 854 z "},"Ơ":{"ha":944,"x_min":83,"x_max":972,"o":"m 83 111 l 83 861 l 194 972 l 853 972 l 853 1083 l 972 1083 l 972 972 l 861 861 l 861 111 l 750 0 l 194 0 l 83 111 m 208 861 l 208 111 l 736 111 l 736 861 l 208 861 z "},"ơ":{"ha":847,"x_min":76,"x_max":861,"o":"m 76 125 l 76 653 l 201 778 l 736 778 l 736 889 l 861 889 l 861 778 l 757 674 l 757 125 l 632 0 l 201 0 l 76 125 m 201 111 l 632 111 l 632 667 l 201 667 l 201 111 z "},"Ớ":{"ha":944,"x_min":83,"x_max":972,"o":"m 83 111 l 83 861 l 194 972 l 853 972 l 853 1083 l 972 1083 l 972 972 l 861 861 l 861 111 l 750 0 l 194 0 l 83 111 m 208 861 l 208 111 l 736 111 l 736 861 l 208 861 m 292 1083 l 292 1167 l 736 1201 l 736 1083 l 292 1083 z "},"ớ":{"ha":847,"x_min":76,"x_max":861,"o":"m 76 125 l 76 653 l 201 778 l 736 778 l 736 889 l 861 889 l 861 778 l 757 674 l 757 125 l 632 0 l 201 0 l 76 125 m 201 111 l 632 111 l 632 667 l 201 667 l 201 111 m 229 889 l 229 972 l 674 1007 l 674 889 l 229 889 z "},"Ờ":{"ha":944,"x_min":83,"x_max":972,"o":"m 83 111 l 83 861 l 194 972 l 853 972 l 853 1083 l 972 1083 l 972 972 l 861 861 l 861 111 l 750 0 l 194 0 l 83 111 m 208 861 l 208 111 l 736 111 l 736 861 l 208 861 m 653 1083 l 208 1083 l 208 1201 l 653 1167 l 653 1083 z "},"ờ":{"ha":847,"x_min":76,"x_max":861,"o":"m 76 125 l 76 653 l 201 778 l 736 778 l 736 889 l 861 889 l 861 778 l 757 674 l 757 125 l 632 0 l 201 0 l 76 125 m 201 111 l 632 111 l 632 667 l 201 667 l 201 111 m 590 889 l 146 889 l 146 1007 l 590 972 l 590 889 z "},"Ở":{"ha":944,"x_min":83,"x_max":972,"o":"m 83 111 l 83 861 l 194 972 l 853 972 l 853 1083 l 972 1083 l 972 972 l 861 861 l 861 111 l 750 0 l 194 0 l 83 111 m 208 861 l 208 111 l 736 111 l 736 861 l 208 861 m 347 1125 l 347 1208 l 625 1208 l 625 1125 l 528 1014 l 410 1014 l 507 1125 l 347 1125 z "},"ở":{"ha":847,"x_min":76,"x_max":861,"o":"m 76 125 l 76 653 l 201 778 l 736 778 l 736 889 l 861 889 l 861 778 l 757 674 l 757 125 l 632 0 l 201 0 l 76 125 m 201 111 l 632 111 l 632 667 l 201 667 l 201 111 m 285 931 l 285 1014 l 563 1014 l 563 931 l 465 819 l 347 819 l 444 931 l 285 931 z "},"Ỡ":{"ha":944,"x_min":83,"x_max":972,"o":"m 83 111 l 83 861 l 194 972 l 853 972 l 853 1083 l 972 1083 l 972 972 l 861 861 l 861 111 l 750 0 l 194 0 l 83 111 m 208 861 l 208 111 l 736 111 l 736 861 l 208 861 m 208 1056 l 181 1146 l 319 1243 l 603 1160 l 736 1236 l 764 1146 l 625 1049 l 342 1132 l 208 1056 z "},"ỡ":{"ha":847,"x_min":76,"x_max":861,"o":"m 76 125 l 76 653 l 201 778 l 736 778 l 736 889 l 861 889 l 861 778 l 757 674 l 757 125 l 632 0 l 201 0 l 76 125 m 201 111 l 632 111 l 632 667 l 201 667 l 201 111 m 146 861 l 118 951 l 257 1049 l 540 965 l 674 1042 l 701 951 l 563 854 l 279 938 l 146 861 z "},"Ợ":{"ha":944,"x_min":83,"x_max":972,"o":"m 83 111 l 83 861 l 194 972 l 853 972 l 853 1083 l 972 1083 l 972 972 l 861 861 l 861 111 l 750 0 l 194 0 l 83 111 m 208 861 l 208 111 l 736 111 l 736 861 l 208 861 m 410 -222 l 410 -111 l 535 -111 l 535 -222 l 410 -222 z "},"ợ":{"ha":847,"x_min":76,"x_max":861,"o":"m 76 125 l 76 653 l 201 778 l 736 778 l 736 889 l 861 889 l 861 778 l 757 674 l 757 125 l 632 0 l 201 0 l 76 125 m 201 111 l 632 111 l 632 667 l 201 667 l 201 111 m 354 -222 l 354 -111 l 479 -111 l 479 -222 l 354 -222 z "},"Ụ":{"ha":903,"x_min":83,"x_max":819,"o":"m 83 111 l 83 972 l 208 972 l 208 111 l 694 111 l 694 972 l 819 972 l 819 111 l 708 0 l 194 0 l 83 111 m 389 -222 l 389 -111 l 514 -111 l 514 -222 l 389 -222 z "},"ụ":{"ha":861,"x_min":83,"x_max":778,"o":"m 778 778 l 778 0 l 208 0 l 83 125 l 83 778 l 208 778 l 208 111 l 653 111 l 653 778 l 778 778 m 368 -222 l 368 -111 l 493 -111 l 493 -222 l 368 -222 z "},"Ủ":{"ha":903,"x_min":83,"x_max":819,"o":"m 83 111 l 83 972 l 208 972 l 208 111 l 694 111 l 694 972 l 819 972 l 819 111 l 708 0 l 194 0 l 83 111 m 326 1125 l 326 1208 l 604 1208 l 604 1125 l 507 1014 l 389 1014 l 486 1125 l 326 1125 z "},"ủ":{"ha":861,"x_min":83,"x_max":778,"o":"m 778 778 l 778 0 l 208 0 l 83 125 l 83 778 l 208 778 l 208 111 l 653 111 l 653 778 l 778 778 m 306 931 l 306 1014 l 583 1014 l 583 931 l 486 819 l 368 819 l 465 931 l 306 931 z "},"Ư":{"ha":903,"x_min":83,"x_max":931,"o":"m 83 111 l 83 972 l 208 972 l 208 111 l 694 111 l 694 972 l 811 972 l 811 1083 l 931 1083 l 931 972 l 819 861 l 819 111 l 708 0 l 194 0 l 83 111 z "},"ư":{"ha":861,"x_min":83,"x_max":889,"o":"m 83 125 l 83 778 l 208 778 l 208 111 l 653 111 l 653 778 l 764 778 l 764 889 l 889 889 l 889 778 l 778 667 l 778 0 l 208 0 l 83 125 z "},"Ứ":{"ha":903,"x_min":83,"x_max":931,"o":"m 83 111 l 83 972 l 208 972 l 208 111 l 694 111 l 694 972 l 811 972 l 811 1083 l 931 1083 l 931 972 l 819 861 l 819 111 l 708 0 l 194 0 l 83 111 m 271 1083 l 271 1167 l 715 1201 l 715 1083 l 271 1083 z "},"ứ":{"ha":861,"x_min":83,"x_max":889,"o":"m 83 125 l 83 778 l 208 778 l 208 111 l 653 111 l 653 778 l 764 778 l 764 889 l 889 889 l 889 778 l 778 667 l 778 0 l 208 0 l 83 125 m 250 889 l 250 972 l 694 1007 l 694 889 l 250 889 z "},"Ừ":{"ha":903,"x_min":83,"x_max":931,"o":"m 83 111 l 83 972 l 208 972 l 208 111 l 694 111 l 694 972 l 811 972 l 811 1083 l 931 1083 l 931 972 l 819 861 l 819 111 l 708 0 l 194 0 l 83 111 m 632 1083 l 188 1083 l 188 1201 l 632 1167 l 632 1083 z "},"ừ":{"ha":861,"x_min":83,"x_max":889,"o":"m 83 125 l 83 778 l 208 778 l 208 111 l 653 111 l 653 778 l 764 778 l 764 889 l 889 889 l 889 778 l 778 667 l 778 0 l 208 0 l 83 125 m 611 889 l 167 889 l 167 1007 l 611 972 l 611 889 z "},"Ử":{"ha":903,"x_min":83,"x_max":931,"o":"m 83 111 l 83 972 l 208 972 l 208 111 l 694 111 l 694 972 l 811 972 l 811 1083 l 931 1083 l 931 972 l 819 861 l 819 111 l 708 0 l 194 0 l 83 111 m 326 1125 l 326 1208 l 604 1208 l 604 1125 l 507 1014 l 389 1014 l 486 1125 l 326 1125 z "},"ử":{"ha":861,"x_min":83,"x_max":889,"o":"m 83 125 l 83 778 l 208 778 l 208 111 l 653 111 l 653 778 l 764 778 l 764 889 l 889 889 l 889 778 l 778 667 l 778 0 l 208 0 l 83 125 m 306 931 l 306 1014 l 583 1014 l 583 931 l 486 819 l 368 819 l 465 931 l 306 931 z "},"Ữ":{"ha":903,"x_min":83,"x_max":931,"o":"m 83 111 l 83 972 l 208 972 l 208 111 l 694 111 l 694 972 l 811 972 l 811 1083 l 931 1083 l 931 972 l 819 861 l 819 111 l 708 0 l 194 0 l 83 111 m 188 1056 l 160 1146 l 299 1243 l 582 1160 l 715 1236 l 743 1146 l 604 1049 l 321 1132 l 188 1056 z "},"ữ":{"ha":861,"x_min":83,"x_max":889,"o":"m 83 125 l 83 778 l 208 778 l 208 111 l 653 111 l 653 778 l 764 778 l 764 889 l 889 889 l 889 778 l 778 667 l 778 0 l 208 0 l 83 125 m 167 861 l 139 951 l 278 1049 l 561 965 l 694 1042 l 722 951 l 583 854 l 300 938 l 167 861 z "},"Ự":{"ha":903,"x_min":83,"x_max":931,"o":"m 83 111 l 83 972 l 208 972 l 208 111 l 694 111 l 694 972 l 811 972 l 811 1083 l 931 1083 l 931 972 l 819 861 l 819 111 l 708 0 l 194 0 l 83 111 m 389 -222 l 389 -111 l 514 -111 l 514 -222 l 389 -222 z "},"ự":{"ha":861,"x_min":83,"x_max":889,"o":"m 83 125 l 83 778 l 208 778 l 208 111 l 653 111 l 653 778 l 764 778 l 764 889 l 889 889 l 889 778 l 778 667 l 778 0 l 208 0 l 83 125 m 368 -222 l 368 -111 l 493 -111 l 493 -222 l 368 -222 z "},"Ỵ":{"ha":889,"x_min":35,"x_max":854,"o":"m 382 0 l 382 292 l 260 292 l 35 972 l 167 972 l 347 400 l 542 400 l 722 972 l 854 972 l 629 292 l 507 292 l 507 0 l 382 0 m 382 -222 l 382 -111 l 507 -111 l 507 -222 l 382 -222 z "},"ỵ":{"ha":833,"x_min":15,"x_max":818,"o":"m 57 -139 l 57 -28 l 433 -28 l 478 111 l 238 111 l 15 778 l 142 778 l 326 222 l 514 222 l 692 778 l 818 778 l 515 -139 l 57 -139 m 265 -347 l 265 -236 l 390 -236 l 390 -347 l 265 -347 z "},"Ỷ":{"ha":889,"x_min":35,"x_max":854,"o":"m 382 0 l 382 292 l 260 292 l 35 972 l 167 972 l 347 400 l 542 400 l 722 972 l 854 972 l 629 292 l 507 292 l 507 0 l 382 0 m 319 1125 l 319 1208 l 597 1208 l 597 1125 l 500 1014 l 382 1014 l 479 1125 l 319 1125 z "},"ỷ":{"ha":833,"x_min":15,"x_max":818,"o":"m 57 -194 l 57 -83 l 419 -83 l 479 111 l 242 111 l 15 778 l 142 778 l 331 222 l 513 222 l 692 778 l 818 778 l 507 -194 l 57 -194 m 292 931 l 292 1014 l 569 1014 l 569 931 l 472 819 l 354 819 l 451 931 l 292 931 z "},"Ǆ":{"ha":1660,"x_min":83,"x_max":1590,"o":"m 208 111 l 674 111 l 674 861 l 208 861 l 208 111 m 83 0 l 83 972 l 688 972 l 799 861 l 799 111 l 688 0 l 83 0 m 951 0 l 951 97 l 1444 861 l 951 861 l 951 972 l 1590 972 l 1590 875 l 1097 111 l 1590 111 l 1590 0 l 951 0 m 1535 1257 l 1535 1146 l 1271 1049 l 1007 1146 l 1007 1257 l 1271 1160 l 1535 1257 z "},"ǅ":{"ha":1618,"x_min":83,"x_max":1576,"o":"m 208 111 l 674 111 l 674 861 l 208 861 l 208 111 m 83 0 l 83 972 l 688 972 l 799 861 l 799 111 l 688 0 l 83 0 m 924 0 l 924 83 l 1414 667 l 933 667 l 933 778 l 1569 778 l 1569 694 l 1079 111 l 1576 111 l 1576 0 l 924 0 m 1514 1063 l 1514 951 l 1250 854 l 986 951 l 986 1063 l 1250 965 l 1514 1063 z "},"ǆ":{"ha":1597,"x_min":76,"x_max":1556,"o":"m 778 972 l 778 0 l 201 0 l 76 125 l 76 653 l 201 778 l 653 778 l 653 972 l 778 972 m 201 111 l 653 111 l 653 667 l 201 667 l 201 111 m 903 0 l 903 83 l 1393 667 l 913 667 l 913 778 l 1549 778 l 1549 694 l 1058 111 l 1556 111 l 1556 0 l 903 0 m 1493 1063 l 1493 951 l 1229 854 l 965 951 l 965 1063 l 1229 965 l 1493 1063 z "},"Ǉ":{"ha":1667,"x_min":83,"x_max":1583,"o":"m 83 0 l 83 972 l 208 972 l 208 111 l 672 111 l 672 389 l 792 389 l 792 0 l 83 0 m 889 125 l 889 417 l 1014 417 l 1014 111 l 1458 111 l 1458 861 l 917 861 l 917 972 l 1583 972 l 1583 125 l 1458 0 l 1014 0 l 889 125 z "},"ǈ":{"ha":1125,"x_min":83,"x_max":1042,"o":"m 83 0 l 83 972 l 208 972 l 208 111 l 672 111 l 672 389 l 792 389 l 792 0 l 83 0 m 917 -194 l 917 778 l 1042 778 l 1042 -194 l 917 -194 m 917 875 l 917 986 l 1042 986 l 1042 875 l 917 875 z "},"ǉ":{"ha":583,"x_min":83,"x_max":500,"o":"m 83 0 l 83 972 l 208 972 l 208 0 l 83 0 m 375 -194 l 375 778 l 500 778 l 500 -194 l 375 -194 m 375 875 l 375 986 l 500 986 l 500 875 l 375 875 z "},"Ǌ":{"ha":1778,"x_min":83,"x_max":1694,"o":"m 83 0 l 83 972 l 261 972 l 736 146 l 736 972 l 861 972 l 861 0 l 683 0 l 208 826 l 208 0 l 83 0 m 1000 125 l 1000 417 l 1125 417 l 1125 111 l 1569 111 l 1569 861 l 1028 861 l 1028 972 l 1694 972 l 1694 125 l 1569 0 l 1125 0 l 1000 125 z "},"ǋ":{"ha":1236,"x_min":83,"x_max":1153,"o":"m 83 0 l 83 972 l 261 972 l 736 146 l 736 972 l 861 972 l 861 0 l 683 0 l 208 826 l 208 0 l 83 0 m 1028 -194 l 1028 778 l 1153 778 l 1153 -194 l 1028 -194 m 1028 875 l 1028 986 l 1153 986 l 1153 875 l 1028 875 z "},"ǌ":{"ha":1153,"x_min":83,"x_max":1069,"o":"m 83 0 l 83 778 l 653 778 l 778 653 l 778 0 l 653 0 l 653 667 l 208 667 l 208 0 l 83 0 m 944 -194 l 944 778 l 1069 778 l 1069 -194 l 944 -194 m 944 875 l 944 986 l 1069 986 l 1069 875 l 944 875 z "}," ":{"ha":361,"x_min":0,"x_max":0,"o":""}," ":{"ha":903,"x_min":0,"x_max":0,"o":""}," ":{"ha":347,"x_min":0,"x_max":0,"o":""}," ":{"ha":208,"x_min":0,"x_max":0,"o":""}," ":{"ha":139,"x_min":0,"x_max":0,"o":""},".":{"ha":347,"x_min":111,"x_max":236,"o":"m 111 0 l 111 139 l 236 139 l 236 0 l 111 0 z "},",":{"ha":347,"x_min":44,"x_max":256,"o":"m 125 0 l 125 139 l 256 139 l 256 0 l 144 -194 l 44 -194 l 157 0 l 125 0 z "},":":{"ha":347,"x_min":111,"x_max":236,"o":"m 111 0 l 111 139 l 236 139 l 236 0 l 111 0 m 111 500 l 111 639 l 236 639 l 236 500 l 111 500 z "},";":{"ha":347,"x_min":25,"x_max":236,"o":"m 106 0 l 106 139 l 236 139 l 236 0 l 125 -194 l 25 -194 l 138 0 l 106 0 m 92 500 l 92 639 l 217 639 l 217 500 l 92 500 z "},"…":{"ha":1042,"x_min":111,"x_max":931,"o":"m 111 0 l 111 139 l 236 139 l 236 0 l 111 0 m 458 0 l 458 139 l 583 139 l 583 0 l 458 0 m 806 0 l 806 139 l 931 139 l 931 0 l 806 0 z "},"!":{"ha":375,"x_min":114,"x_max":261,"o":"m 125 0 l 125 139 l 250 139 l 250 0 l 125 0 m 139 306 l 114 972 l 261 972 l 236 306 l 139 306 z "},"¡":{"ha":375,"x_min":114,"x_max":261,"o":"m 250 778 l 250 639 l 125 639 l 125 778 l 250 778 m 236 472 l 261 -194 l 114 -194 l 139 472 l 236 472 z "},"?":{"ha":764,"x_min":21,"x_max":743,"o":"m 194 0 l 194 139 l 319 139 l 319 0 l 194 0 m 319 306 l 194 306 l 194 481 l 618 592 l 618 861 l 21 861 l 21 972 l 618 972 l 743 847 l 743 513 l 319 401 l 319 306 z "},"¿":{"ha":764,"x_min":21,"x_max":743,"o":"m 569 778 l 569 639 l 444 639 l 444 778 l 569 778 m 444 472 l 569 472 l 569 297 l 146 186 l 146 -83 l 743 -83 l 743 -194 l 146 -194 l 21 -69 l 21 265 l 444 376 l 444 472 z "},"'":{"ha":306,"x_min":83,"x_max":222,"o":"m 111 639 l 83 972 l 222 972 l 194 639 l 111 639 z "},"\"":{"ha":556,"x_min":83,"x_max":472,"o":"m 111 639 l 83 972 l 222 972 l 194 639 l 111 639 m 361 639 l 333 972 l 472 972 l 444 639 l 361 639 z "},"‘":{"ha":347,"x_min":92,"x_max":303,"o":"m 222 778 l 222 639 l 92 639 l 92 778 l 203 972 l 303 972 l 190 778 l 222 778 z "},"’":{"ha":347,"x_min":44,"x_max":256,"o":"m 125 833 l 125 972 l 256 972 l 256 833 l 144 639 l 44 639 l 157 833 l 125 833 z "},"‚":{"ha":347,"x_min":44,"x_max":256,"o":"m 125 0 l 125 139 l 256 139 l 256 0 l 144 -194 l 44 -194 l 157 0 l 125 0 z "},"“":{"ha":583,"x_min":92,"x_max":539,"o":"m 458 778 l 458 639 l 328 639 l 328 778 l 439 972 l 539 972 l 426 778 l 458 778 m 222 778 l 222 639 l 92 639 l 92 778 l 203 972 l 303 972 l 190 778 l 222 778 z "},"”":{"ha":583,"x_min":44,"x_max":492,"o":"m 125 833 l 125 972 l 256 972 l 256 833 l 144 639 l 44 639 l 157 833 l 125 833 m 361 833 l 361 972 l 492 972 l 492 833 l 381 639 l 281 639 l 393 833 l 361 833 z "},"„":{"ha":583,"x_min":44,"x_max":492,"o":"m 125 0 l 125 139 l 256 139 l 256 0 l 144 -194 l 44 -194 l 157 0 l 125 0 m 361 0 l 361 139 l 492 139 l 492 0 l 381 -194 l 281 -194 l 393 0 l 361 0 z "},"‹":{"ha":625,"x_min":28,"x_max":583,"o":"m 28 368 l 28 410 l 417 778 l 583 778 l 182 389 l 583 0 l 417 0 l 28 368 z "},"›":{"ha":625,"x_min":42,"x_max":597,"o":"m 597 410 l 597 368 l 208 0 l 42 0 l 443 389 l 42 778 l 208 778 l 597 410 z "},"«":{"ha":958,"x_min":28,"x_max":917,"o":"m 28 368 l 28 410 l 417 778 l 583 778 l 182 389 l 583 0 l 417 0 l 28 368 m 361 368 l 361 410 l 750 778 l 917 778 l 515 389 l 917 0 l 750 0 l 361 368 z "},"»":{"ha":958,"x_min":42,"x_max":931,"o":"m 931 410 l 931 368 l 542 0 l 375 0 l 776 389 l 375 778 l 542 778 l 931 410 m 597 410 l 597 368 l 208 0 l 42 0 l 443 389 l 42 778 l 208 778 l 597 410 z "},"(":{"ha":472,"x_min":83,"x_max":444,"o":"m 83 -83 l 83 931 l 194 1042 l 444 1042 l 444 931 l 208 931 l 208 -83 l 444 -83 l 444 -194 l 194 -194 l 83 -83 z "},")":{"ha":472,"x_min":28,"x_max":389,"o":"m 389 931 l 389 -83 l 278 -194 l 28 -194 l 28 -83 l 264 -83 l 264 931 l 28 931 l 28 1042 l 278 1042 l 389 931 z "},"[":{"ha":472,"x_min":83,"x_max":444,"o":"m 83 -194 l 83 1042 l 444 1042 l 444 931 l 208 931 l 208 -83 l 444 -83 l 444 -194 l 83 -194 z "},"]":{"ha":472,"x_min":28,"x_max":389,"o":"m 389 1042 l 389 -194 l 28 -194 l 28 -83 l 264 -83 l 264 931 l 28 931 l 28 1042 l 389 1042 z "},"{":{"ha":556,"x_min":28,"x_max":528,"o":"m 167 -83 l 167 368 l 28 368 l 28 479 l 167 479 l 167 931 l 278 1042 l 528 1042 l 528 931 l 292 931 l 292 507 l 208 424 l 292 340 l 292 -83 l 528 -83 l 528 -194 l 278 -194 l 167 -83 z "},"}":{"ha":556,"x_min":28,"x_max":528,"o":"m 389 931 l 389 479 l 528 479 l 528 368 l 389 368 l 389 -83 l 278 -194 l 28 -194 l 28 -83 l 264 -83 l 264 340 l 347 424 l 264 507 l 264 931 l 28 931 l 28 1042 l 278 1042 l 389 931 z "},"/":{"ha":611,"x_min":14,"x_max":597,"o":"m 14 0 l 468 972 l 597 972 l 143 0 l 14 0 z "},"\\":{"ha":611,"x_min":14,"x_max":597,"o":"m 597 0 l 468 0 l 14 972 l 143 972 l 597 0 z "},"¦":{"ha":292,"x_min":83,"x_max":208,"o":"m 83 -278 l 83 347 l 208 347 l 208 -278 l 83 -278 m 83 486 l 83 1111 l 208 1111 l 208 486 l 83 486 z "},"|":{"ha":292,"x_min":83,"x_max":208,"o":"m 83 -194 l 83 1056 l 208 1056 l 208 -194 l 83 -194 z "},"_":{"ha":833,"x_min":56,"x_max":778,"o":"m 56 -111 l 56 0 l 778 0 l 778 -111 l 56 -111 z "},"-":{"ha":472,"x_min":56,"x_max":417,"o":"m 56 382 l 56 507 l 417 507 l 417 382 l 56 382 z "},"–":{"ha":556,"x_min":56,"x_max":500,"o":"m 56 389 l 56 500 l 500 500 l 500 389 l 56 389 z "},"—":{"ha":833,"x_min":56,"x_max":778,"o":"m 56 389 l 56 500 l 778 500 l 778 389 l 56 389 z "},"―":{"ha":833,"x_min":-14,"x_max":847,"o":"m -14 389 l -14 500 l 847 500 l 847 389 l -14 389 z "},"‒":{"ha":903,"x_min":56,"x_max":847,"o":"m 56 389 l 56 500 l 847 500 l 847 389 l 56 389 z "},"·":{"ha":236,"x_min":56,"x_max":181,"o":"m 56 389 l 56 528 l 181 528 l 181 389 l 56 389 z "},"~":{"ha":833,"x_min":28,"x_max":806,"o":"m 56 350 l 28 454 l 208 611 l 617 438 l 778 567 l 806 463 l 625 306 l 217 479 l 56 350 z "},"•":{"ha":694,"x_min":83,"x_max":611,"o":"m 83 278 l 83 556 l 208 681 l 486 681 l 611 556 l 611 278 l 486 153 l 208 153 l 83 278 z "},"ª":{"ha":694,"x_min":69,"x_max":611,"o":"m 69 472 l 69 715 l 492 729 l 492 867 l 97 867 l 97 972 l 486 972 l 611 847 l 611 347 l 194 347 l 69 472 m 189 610 l 189 453 l 492 453 l 492 638 l 189 610 z "},"º":{"ha":694,"x_min":76,"x_max":618,"o":"m 76 472 l 76 847 l 201 972 l 493 972 l 618 847 l 618 472 l 493 347 l 201 347 l 76 472 m 201 458 l 493 458 l 493 861 l 201 861 l 201 458 z "},"°":{"ha":444,"x_min":28,"x_max":417,"o":"m 28 681 l 28 875 l 125 972 l 319 972 l 417 875 l 417 681 l 319 583 l 125 583 l 28 681 m 136 681 l 310 681 l 310 875 l 136 875 l 136 681 z "},"`":{"ha":3417,"x_min":3014,"x_max":3458,"o":"m 3458 889 l 3014 889 l 3014 1007 l 3458 972 l 3458 889 z "},"^":{"ha":694,"x_min":18,"x_max":676,"o":"m 18 486 l 285 972 l 410 972 l 676 486 l 547 486 l 347 868 l 147 486 l 18 486 z "},"*":{"ha":722,"x_min":42,"x_max":681,"o":"m 414 333 l 308 333 l 308 560 l 94 431 l 42 521 l 260 653 l 42 785 l 94 875 l 308 746 l 308 972 l 414 972 l 414 746 l 628 875 l 681 785 l 463 653 l 681 521 l 628 431 l 414 560 l 414 333 z "},"†":{"ha":861,"x_min":83,"x_max":778,"o":"m 83 563 l 83 688 l 368 688 l 368 972 l 493 972 l 493 688 l 778 688 l 778 563 l 493 563 l 493 0 l 368 0 l 368 563 l 83 563 z "},"‡":{"ha":861,"x_min":83,"x_max":778,"o":"m 83 563 l 83 688 l 368 688 l 368 972 l 493 972 l 493 688 l 778 688 l 778 563 l 493 563 l 493 215 l 778 215 l 778 90 l 493 90 l 493 -194 l 368 -194 l 368 90 l 83 90 l 83 215 l 368 215 l 368 563 l 83 563 z "},"#":{"ha":1139,"x_min":83,"x_max":1056,"o":"m 292 0 l 292 972 l 414 972 l 414 0 l 292 0 m 711 0 l 711 972 l 833 972 l 833 0 l 711 0 m 1056 208 l 83 208 l 83 317 l 1056 317 l 1056 208 m 1056 656 l 83 656 l 83 764 l 1056 764 l 1056 656 z "},"§":{"ha":889,"x_min":76,"x_max":813,"o":"m 97 -132 l 97 -21 l 688 -21 l 688 194 l 201 194 l 76 319 l 76 847 l 201 972 l 785 972 l 785 861 l 201 861 l 201 646 l 688 646 l 813 521 l 813 -7 l 688 -132 l 97 -132 m 201 306 l 688 306 l 688 535 l 201 535 l 201 306 z "},"¶":{"ha":889,"x_min":56,"x_max":806,"o":"m 806 -194 l 681 -194 l 681 861 l 569 861 l 569 -194 l 444 -194 l 444 208 l 222 208 l 56 375 l 56 806 l 222 972 l 806 972 l 806 -194 z "},"&":{"ha":1021,"x_min":76,"x_max":986,"o":"m 842 0 l 194 875 l 292 972 l 806 972 l 806 867 l 342 867 l 986 0 l 842 0 m 507 500 l 201 500 l 201 111 l 513 111 l 857 639 l 986 639 l 568 0 l 188 0 l 76 111 l 76 500 l 188 611 l 507 611 l 507 500 z "},"@":{"ha":1111,"x_min":83,"x_max":1028,"o":"m 83 -83 l 83 861 l 194 972 l 903 972 l 1028 847 l 1028 278 l 903 153 l 542 153 l 417 278 l 417 618 l 906 632 l 906 864 l 206 864 l 206 -86 l 1028 -86 l 1028 -194 l 194 -194 l 83 -83 m 539 261 l 906 261 l 906 540 l 539 513 l 539 261 z "},"©":{"ha":1250,"x_min":69,"x_max":1181,"o":"m 333 236 l 333 653 l 458 778 l 917 778 l 917 667 l 458 667 l 458 222 l 917 222 l 917 111 l 458 111 l 333 236 m 69 -28 l 69 917 l 181 1028 l 1069 1028 l 1181 917 l 1181 -28 l 1069 -139 l 181 -139 l 69 -28 m 194 917 l 194 -28 l 1056 -28 l 1056 917 l 194 917 z "},"®":{"ha":556,"x_min":28,"x_max":528,"o":"m 278 514 q 149 544 206 514 q 60 628 92 575 q 28 750 28 682 q 60 872 28 818 q 149 956 92 925 q 278 986 206 986 q 408 956 351 986 q 496 872 464 925 q 528 750 528 818 q 496 628 528 682 q 408 544 464 575 q 278 514 351 514 m 86 750 q 138 617 86 667 q 278 567 190 567 q 417 617 365 567 q 469 750 469 667 q 417 883 469 833 q 278 933 365 933 q 138 883 190 933 q 86 750 86 833 m 181 628 l 181 875 l 285 875 q 362 852 333 875 q 390 790 390 829 q 375 740 390 760 q 339 711 360 719 l 401 628 l 328 628 l 285 706 l 239 706 l 239 628 l 181 628 m 239 750 l 285 750 q 331 788 331 750 q 285 828 331 828 l 239 828 l 239 750 z "},"™":{"ha":833,"x_min":28,"x_max":778,"o":"m 138 583 l 238 583 l 238 889 l 347 889 l 347 972 l 28 972 l 28 889 l 138 889 l 138 583 m 389 972 l 389 583 l 483 583 l 483 857 l 583 722 l 683 857 l 683 583 l 778 583 l 778 972 l 690 972 l 583 826 l 476 972 l 389 972 z "},"⁰":{"ha":694,"x_min":69,"x_max":625,"o":"m 69 528 l 69 861 l 181 972 l 514 972 l 625 861 l 625 528 l 514 417 l 181 417 l 69 528 m 189 875 l 189 514 l 506 514 l 506 875 l 189 875 z "},"¹":{"ha":597,"x_min":63,"x_max":535,"o":"m 63 417 l 63 510 l 249 521 l 249 839 l 76 826 l 76 917 l 363 972 l 363 521 l 535 510 l 535 417 l 299 428 l 63 417 z "},"²":{"ha":681,"x_min":69,"x_max":611,"o":"m 611 517 l 611 417 l 69 417 l 69 689 l 494 758 l 494 872 l 83 872 l 83 972 l 500 972 l 611 861 l 611 682 l 186 613 l 186 517 l 611 517 z "},"³":{"ha":653,"x_min":56,"x_max":583,"o":"m 504 417 l 56 417 l 56 514 l 475 514 l 475 654 l 115 654 l 115 751 l 456 751 l 456 875 l 65 875 l 65 972 l 483 972 l 564 908 l 564 742 l 507 707 l 583 660 l 583 481 l 504 417 z "},"⁴":{"ha":681,"x_min":53,"x_max":611,"o":"m 53 574 l 86 972 l 197 972 l 167 671 l 503 671 l 503 972 l 611 972 l 611 417 l 503 417 l 503 574 l 53 574 z "},"⁵":{"ha":681,"x_min":69,"x_max":611,"o":"m 604 875 l 178 875 l 178 761 l 611 738 l 611 481 l 532 417 l 76 417 l 76 514 l 503 514 l 503 653 l 69 676 l 69 972 l 604 972 l 604 875 z "},"⁶":{"ha":694,"x_min":69,"x_max":625,"o":"m 149 417 l 69 481 l 69 908 l 149 972 l 585 972 l 585 875 l 178 875 l 178 765 l 556 765 l 625 710 l 625 481 l 546 417 l 149 417 m 178 514 l 517 514 l 517 671 l 178 671 l 178 514 z "},"⁷":{"ha":639,"x_min":43,"x_max":596,"o":"m 138 417 l 485 782 l 485 875 l 151 875 l 151 736 l 43 736 l 43 972 l 596 972 l 596 746 l 286 417 l 138 417 z "},"⁸":{"ha":703,"x_min":69,"x_max":633,"o":"m 199 753 l 504 753 l 504 875 l 199 875 l 199 753 m 178 514 l 525 514 l 525 658 l 178 658 l 178 514 m 149 417 l 69 481 l 69 660 l 146 707 l 89 742 l 89 908 l 169 972 l 533 972 l 614 908 l 614 742 l 557 707 l 633 660 l 633 481 l 554 417 l 149 417 z "},"⁹":{"ha":694,"x_min":69,"x_max":625,"o":"m 546 972 l 625 908 l 625 481 l 546 417 l 110 417 l 110 514 l 517 514 l 517 624 l 139 624 l 69 679 l 69 908 l 149 972 l 546 972 m 517 875 l 178 875 l 178 718 l 517 718 l 517 875 z "},"₀":{"ha":694,"x_min":69,"x_max":625,"o":"m 69 -28 l 69 306 l 181 417 l 514 417 l 625 306 l 625 -28 l 514 -139 l 181 -139 l 69 -28 m 189 319 l 189 -42 l 506 -42 l 506 319 l 189 319 z "},"₁":{"ha":597,"x_min":63,"x_max":535,"o":"m 63 -139 l 63 -46 l 249 -35 l 249 283 l 76 271 l 76 361 l 363 417 l 363 -35 l 535 -46 l 535 -139 l 299 -128 l 63 -139 z "},"₂":{"ha":681,"x_min":69,"x_max":611,"o":"m 611 -39 l 611 -139 l 69 -139 l 69 133 l 494 203 l 494 317 l 83 317 l 83 417 l 500 417 l 611 306 l 611 126 l 186 57 l 186 -39 l 611 -39 z "},"₃":{"ha":653,"x_min":56,"x_max":583,"o":"m 504 -139 l 56 -139 l 56 -42 l 475 -42 l 475 99 l 115 99 l 115 196 l 456 196 l 456 319 l 65 319 l 65 417 l 483 417 l 564 353 l 564 186 l 507 151 l 583 104 l 583 -75 l 504 -139 z "},"₄":{"ha":681,"x_min":53,"x_max":611,"o":"m 53 18 l 86 417 l 197 417 l 167 115 l 503 115 l 503 417 l 611 417 l 611 -139 l 503 -139 l 503 18 l 53 18 z "},"₅":{"ha":681,"x_min":69,"x_max":611,"o":"m 604 319 l 178 319 l 178 206 l 611 182 l 611 -75 l 532 -139 l 76 -139 l 76 -42 l 503 -42 l 503 97 l 69 121 l 69 417 l 604 417 l 604 319 z "},"₆":{"ha":694,"x_min":69,"x_max":625,"o":"m 149 -139 l 69 -75 l 69 353 l 149 417 l 585 417 l 585 319 l 178 319 l 178 210 l 556 210 l 625 154 l 625 -75 l 546 -139 l 149 -139 m 178 -42 l 517 -42 l 517 115 l 178 115 l 178 -42 z "},"₇":{"ha":639,"x_min":43,"x_max":596,"o":"m 138 -139 l 485 226 l 485 319 l 151 319 l 151 181 l 43 181 l 43 417 l 596 417 l 596 190 l 286 -139 l 138 -139 z "},"₈":{"ha":703,"x_min":69,"x_max":633,"o":"m 199 197 l 504 197 l 504 319 l 199 319 l 199 197 m 178 -42 l 525 -42 l 525 103 l 178 103 l 178 -42 m 149 -139 l 69 -75 l 69 104 l 146 151 l 89 186 l 89 353 l 169 417 l 533 417 l 614 353 l 614 186 l 557 151 l 633 104 l 633 -75 l 554 -139 l 149 -139 z "},"₉":{"ha":694,"x_min":69,"x_max":625,"o":"m 546 417 l 625 353 l 625 -75 l 546 -139 l 110 -139 l 110 -42 l 517 -42 l 517 68 l 139 68 l 69 124 l 69 353 l 149 417 l 546 417 m 517 319 l 178 319 l 178 163 l 517 163 l 517 319 z "},"⁄":{"ha":264,"x_min":-236,"x_max":500,"o":"m -236 0 l 378 972 l 500 972 l -114 0 l -236 0 z "},"¼":{"ha":1542,"x_min":63,"x_max":1472,"o":"m 63 417 l 63 510 l 249 521 l 249 839 l 76 826 l 76 917 l 363 972 l 363 521 l 535 510 l 535 417 l 299 428 l 63 417 m 361 0 l 975 972 l 1097 972 l 483 0 l 361 0 m 914 157 l 947 556 l 1058 556 l 1028 254 l 1364 254 l 1364 556 l 1472 556 l 1472 0 l 1364 0 l 1364 157 l 914 157 z "},"½":{"ha":1542,"x_min":63,"x_max":1472,"o":"m 63 417 l 63 510 l 249 521 l 249 839 l 76 826 l 76 917 l 363 972 l 363 521 l 535 510 l 535 417 l 299 428 l 63 417 m 361 0 l 975 972 l 1097 972 l 483 0 l 361 0 m 1472 100 l 1472 0 l 931 0 l 931 272 l 1356 342 l 1356 456 l 944 456 l 944 556 l 1361 556 l 1472 444 l 1472 265 l 1047 196 l 1047 100 l 1472 100 z "},"¾":{"ha":1597,"x_min":56,"x_max":1528,"o":"m 504 417 l 56 417 l 56 514 l 475 514 l 475 654 l 115 654 l 115 751 l 456 751 l 456 875 l 65 875 l 65 972 l 483 972 l 564 908 l 564 742 l 507 707 l 583 660 l 583 481 l 504 417 m 417 0 l 1031 972 l 1153 972 l 539 0 l 417 0 m 969 157 l 1003 556 l 1114 556 l 1083 254 l 1419 254 l 1419 556 l 1528 556 l 1528 0 l 1419 0 l 1419 157 l 969 157 z "},"%":{"ha":833,"x_min":42,"x_max":792,"o":"m 42 0 l 654 972 l 792 972 l 179 0 l 42 0 m 653 0 l 653 167 l 778 167 l 778 0 l 653 0 m 56 806 l 56 972 l 181 972 l 181 806 l 56 806 z "},"‰":{"ha":972,"x_min":42,"x_max":931,"o":"m 42 0 l 654 972 l 792 972 l 179 0 l 42 0 m 528 0 l 528 167 l 653 167 l 653 0 l 528 0 m 56 806 l 56 972 l 181 972 l 181 806 l 56 806 m 806 0 l 806 167 l 931 167 l 931 0 l 806 0 z "},"′":{"ha":278,"x_min":76,"x_max":215,"o":"m 76 639 l 76 972 l 215 972 l 160 639 l 76 639 z "},"″":{"ha":486,"x_min":76,"x_max":424,"o":"m 76 639 l 76 972 l 215 972 l 160 639 l 76 639 m 285 639 l 285 972 l 424 972 l 368 639 l 285 639 z "},"+":{"ha":833,"x_min":56,"x_max":778,"o":"m 56 389 l 56 500 l 778 500 l 778 389 l 56 389 m 476 83 l 357 83 l 357 806 l 476 806 l 476 83 z "},"−":{"ha":833,"x_min":56,"x_max":778,"o":"m 56 389 l 56 500 l 778 500 l 778 389 l 56 389 z "},"×":{"ha":833,"x_min":83,"x_max":750,"o":"m 83 189 l 339 444 l 83 700 l 161 778 l 417 522 l 672 778 l 750 700 l 494 444 l 750 189 l 672 111 l 417 367 l 161 111 l 83 189 z "},"÷":{"ha":833,"x_min":56,"x_max":778,"o":"m 354 97 l 354 236 l 479 236 l 479 97 l 354 97 m 354 653 l 354 792 l 479 792 l 479 653 l 354 653 m 56 389 l 56 500 l 778 500 l 778 389 l 56 389 z "},"=":{"ha":833,"x_min":56,"x_max":778,"o":"m 56 535 l 56 646 l 778 646 l 778 535 l 56 535 m 56 243 l 56 354 l 778 354 l 778 243 l 56 243 z "},"<":{"ha":833,"x_min":42,"x_max":778,"o":"m 42 326 l 42 451 l 778 778 l 778 651 l 174 389 l 778 126 l 778 0 l 42 326 z "},">":{"ha":833,"x_min":56,"x_max":792,"o":"m 792 451 l 792 326 l 56 0 l 56 126 l 660 389 l 56 651 l 56 778 l 792 451 z "},"≤":{"ha":833,"x_min":42,"x_max":778,"o":"m 42 493 l 42 618 l 778 903 l 778 776 l 174 556 l 778 335 l 778 208 l 42 493 m 56 0 l 56 111 l 778 111 l 778 0 l 56 0 z "},"≥":{"ha":833,"x_min":56,"x_max":792,"o":"m 792 493 l 56 208 l 56 335 l 660 556 l 56 776 l 56 903 l 792 618 l 792 493 m 778 0 l 56 0 l 56 111 l 778 111 l 778 0 z "},"±":{"ha":833,"x_min":56,"x_max":778,"o":"m 56 528 l 56 639 l 357 639 l 357 944 l 476 944 l 476 639 l 778 639 l 778 528 l 476 528 l 476 222 l 357 222 l 357 528 l 56 528 m 56 0 l 56 111 l 778 111 l 778 0 l 56 0 z "},"≠":{"ha":833,"x_min":56,"x_max":778,"o":"m 56 521 l 56 646 l 778 646 l 778 521 l 56 521 m 56 243 l 56 368 l 778 368 l 778 243 l 56 243 m 208 0 l 507 889 l 625 889 l 326 0 l 208 0 z "},"≈":{"ha":833,"x_min":28,"x_max":806,"o":"m 56 489 l 28 593 l 208 750 l 617 576 l 778 706 l 806 601 l 625 444 l 217 618 l 56 489 m 56 211 l 28 315 l 208 472 l 617 299 l 778 428 l 806 324 l 625 167 l 217 340 l 56 211 z "},"∕":{"ha":833,"x_min":42,"x_max":792,"o":"m 42 0 l 656 972 l 792 972 l 178 0 l 42 0 z "},"∙":{"ha":417,"x_min":146,"x_max":271,"o":"m 146 389 l 146 528 l 271 528 l 271 389 l 146 389 z "},"⁒":{"ha":833,"x_min":42,"x_max":792,"o":"m 42 0 l 654 972 l 792 972 l 179 0 l 42 0 m 653 0 l 653 167 l 778 167 l 778 0 l 653 0 m 56 806 l 56 972 l 181 972 l 181 806 l 56 806 z "},"¬":{"ha":833,"x_min":56,"x_max":778,"o":"m 56 382 l 56 507 l 778 507 l 778 146 l 653 146 l 653 382 l 56 382 z "},"µ":{"ha":861,"x_min":83,"x_max":778,"o":"m 778 778 l 778 0 l 208 0 l 208 -222 l 83 -222 l 83 778 l 208 778 l 208 111 l 653 111 l 653 778 l 778 778 z "},"√":{"ha":993,"x_min":56,"x_max":965,"o":"m 385 0 l 231 667 l 56 667 l 56 778 l 333 778 l 476 111 l 565 111 l 840 972 l 965 972 l 654 0 l 385 0 z "},"∞":{"ha":1167,"x_min":76,"x_max":1090,"o":"m 494 264 l 201 264 l 201 708 l 494 708 l 494 264 m 965 236 l 617 236 l 617 736 l 965 736 l 965 236 m 1090 236 l 1090 736 l 979 847 l 651 847 l 554 750 l 485 819 l 188 819 l 76 708 l 76 264 l 188 153 l 485 153 l 554 222 l 651 125 l 979 125 l 1090 236 z "},"∫":{"ha":528,"x_min":0,"x_max":500,"o":"m 0 -194 l 0 -83 l 292 -83 l 83 847 l 208 972 l 500 972 l 500 861 l 208 861 l 417 -69 l 292 -194 l 0 -194 z "},"∂":{"ha":903,"x_min":83,"x_max":819,"o":"m 708 0 l 194 0 l 83 111 l 83 514 l 181 611 l 694 611 l 694 861 l 139 861 l 139 972 l 708 972 l 819 861 l 819 111 l 708 0 m 694 111 l 694 500 l 208 500 l 208 111 l 694 111 z "},"◊":{"ha":889,"x_min":7,"x_max":882,"o":"m 424 -83 l 465 -83 l 756 444 l 465 972 l 424 972 l 133 444 l 424 -83 m 360 -194 l 7 444 l 360 1083 l 529 1083 l 882 444 l 529 -194 l 360 -194 z "},"∏":{"ha":903,"x_min":83,"x_max":819,"o":"m 83 -194 l 83 972 l 819 972 l 819 -194 l 694 -194 l 694 861 l 208 861 l 208 -194 l 83 -194 z "},"∑":{"ha":806,"x_min":69,"x_max":736,"o":"m 69 -194 l 69 -97 l 408 389 l 76 875 l 76 972 l 729 972 l 729 861 l 233 861 l 553 389 l 226 -83 l 736 -83 l 736 -194 l 69 -194 z "},"№":{"ha":1639,"x_min":83,"x_max":1563,"o":"m 83 0 l 83 972 l 261 972 l 736 146 l 736 972 l 861 972 l 861 0 l 683 0 l 208 826 l 208 0 l 83 0 m 1021 264 l 1021 639 l 1146 764 l 1438 764 l 1563 639 l 1563 264 l 1438 139 l 1146 139 l 1021 264 m 1146 250 l 1438 250 l 1438 653 l 1146 653 l 1146 250 z "},"¤":{"ha":875,"x_min":56,"x_max":819,"o":"m 167 333 l 167 639 l 243 715 l 56 972 l 196 972 l 351 750 l 524 750 l 679 972 l 819 972 l 632 715 l 708 639 l 708 333 l 632 257 l 819 0 l 679 0 l 524 222 l 351 222 l 196 0 l 56 0 l 243 257 l 167 333 m 292 319 l 583 319 l 583 653 l 292 653 l 292 319 z "},"$":{"ha":917,"x_min":83,"x_max":833,"o":"m 90 69 l 90 181 l 708 181 l 708 438 l 83 438 l 83 778 l 208 903 l 424 903 l 424 1056 l 549 1056 l 549 903 l 806 903 l 806 792 l 208 792 l 208 549 l 833 549 l 833 190 l 713 69 l 507 69 l 507 -83 l 382 -83 l 382 69 l 90 69 z "},"¢":{"ha":757,"x_min":76,"x_max":715,"o":"m 76 222 l 76 750 l 201 875 l 374 875 l 374 1028 l 488 1028 l 488 875 l 715 875 l 715 764 l 201 764 l 201 208 l 715 208 l 715 97 l 488 97 l 488 -56 l 374 -56 l 374 97 l 201 97 l 76 222 z "},"£":{"ha":903,"x_min":42,"x_max":861,"o":"m 639 417 l 375 417 l 375 111 l 861 111 l 861 0 l 42 0 l 42 111 l 250 111 l 250 417 l 97 417 l 97 528 l 250 528 l 250 861 l 361 972 l 819 972 l 819 694 l 703 694 l 703 861 l 375 861 l 375 528 l 639 528 l 639 417 z "},"€":{"ha":903,"x_min":28,"x_max":861,"o":"m 153 111 l 153 326 l 28 326 l 28 438 l 153 438 l 153 549 l 28 549 l 28 660 l 153 660 l 153 861 l 264 972 l 847 972 l 847 861 l 278 861 l 278 660 l 750 660 l 708 549 l 278 549 l 278 438 l 667 438 l 625 326 l 278 326 l 278 111 l 861 111 l 861 0 l 264 0 l 153 111 z "},"¥":{"ha":889,"x_min":35,"x_max":854,"o":"m 382 0 l 382 156 l 56 156 l 56 264 l 382 264 l 382 364 l 56 364 l 56 472 l 244 472 l 35 972 l 167 972 l 375 472 l 514 472 l 722 972 l 854 972 l 644 472 l 833 472 l 833 364 l 507 364 l 507 264 l 833 264 l 833 156 l 507 156 l 507 0 l 382 0 z "},"₣":{"ha":792,"x_min":14,"x_max":750,"o":"m 83 0 l 83 972 l 750 972 l 750 861 l 208 861 l 208 514 l 722 514 l 722 403 l 208 403 l 208 0 l 83 0 m 14 172 l 14 278 l 542 278 l 542 172 l 14 172 z "},"₽":{"ha":889,"x_min":14,"x_max":833,"o":"m 833 861 l 833 422 l 722 311 l 264 311 l 264 222 l 625 222 l 625 117 l 264 117 l 264 0 l 139 0 l 139 117 l 14 117 l 14 222 l 139 222 l 139 311 l 14 311 l 14 417 l 139 417 l 139 972 l 722 972 l 833 861 m 264 417 l 708 417 l 708 861 l 264 861 l 264 417 z "},"₿":{"ha":889,"x_min":83,"x_max":833,"o":"m 83 69 l 83 903 l 256 903 l 256 1056 l 372 1056 l 372 903 l 481 903 l 481 1056 l 597 1056 l 597 903 l 694 903 l 806 792 l 806 582 l 740 522 l 833 439 l 833 181 l 722 69 l 597 69 l 597 -83 l 481 -83 l 481 69 l 372 69 l 372 -83 l 256 -83 l 256 69 l 83 69 m 208 563 l 681 563 l 681 797 l 208 797 l 208 563 m 208 175 l 708 175 l 708 451 l 208 451 l 208 175 z "},"₮":{"ha":778,"x_min":28,"x_max":750,"o":"m 326 0 l 326 861 l 28 861 l 28 972 l 750 972 l 750 861 l 451 861 l 451 0 l 326 0 m 111 450 l 111 556 l 667 681 l 667 575 l 111 450 m 111 200 l 111 306 l 667 431 l 667 325 l 111 200 z "},"₴":{"ha":889,"x_min":83,"x_max":806,"o":"m 792 111 l 792 0 l 208 0 l 83 125 l 674 861 l 97 861 l 97 972 l 681 972 l 806 847 l 215 111 l 792 111 m 83 639 l 806 639 l 806 536 l 83 536 l 83 639 m 83 436 l 806 436 l 806 333 l 83 333 l 83 436 z "},"₸":{"ha":778,"x_min":28,"x_max":750,"o":"m 326 0 l 326 628 l 28 628 l 28 736 l 750 736 l 750 628 l 451 628 l 451 0 l 326 0 m 28 864 l 28 972 l 750 972 l 750 864 l 28 864 z "},"֏":{"ha":861,"x_min":83,"x_max":778,"o":"m 778 0 l 778 861 l 667 972 l 194 972 l 83 861 l 83 569 l 208 569 l 208 861 l 653 861 l 653 472 l 181 472 l 181 361 l 653 361 l 653 264 l 181 264 l 181 153 l 653 153 l 653 0 l 778 0 z "},"´":{"ha":556,"x_min":56,"x_max":500,"o":"m 56 889 l 56 972 l 500 1007 l 500 889 l 56 889 z "},"ˆ":{"ha":639,"x_min":56,"x_max":583,"o":"m 56 854 l 56 965 l 319 1063 l 583 965 l 583 854 l 319 951 l 56 854 z "},"ˇ":{"ha":639,"x_min":56,"x_max":583,"o":"m 583 1063 l 583 951 l 319 854 l 56 951 l 56 1063 l 319 965 l 583 1063 z "},"˘":{"ha":667,"x_min":56,"x_max":611,"o":"m 483 1042 l 611 1042 l 514 875 l 153 875 l 56 1042 l 183 1042 l 229 965 l 438 965 l 483 1042 z "},"˜":{"ha":694,"x_min":56,"x_max":639,"o":"m 83 861 l 56 951 l 194 1049 l 478 965 l 611 1042 l 639 951 l 500 854 l 217 938 l 83 861 z "},"¨":{"ha":542,"x_min":56,"x_max":486,"o":"m 56 875 l 56 986 l 181 986 l 181 875 l 56 875 m 361 875 l 361 986 l 486 986 l 486 875 l 361 875 z "},"˙":{"ha":236,"x_min":56,"x_max":181,"o":"m 56 875 l 56 986 l 181 986 l 181 875 l 56 875 z "},"˚":{"ha":494,"x_min":56,"x_max":439,"o":"m 56 890 l 56 1026 l 140 1097 l 354 1097 l 439 1026 l 439 890 l 354 819 l 140 819 l 56 890 m 150 908 l 344 908 l 344 1008 l 150 1008 l 150 908 z "},"¯":{"ha":583,"x_min":56,"x_max":528,"o":"m 56 908 l 56 1014 l 528 1014 l 528 908 l 56 908 z "},"˝":{"ha":535,"x_min":56,"x_max":479,"o":"m 56 847 l 111 1014 l 250 1014 l 160 847 l 56 847 m 257 847 l 340 1014 l 479 1014 l 368 847 l 257 847 z "},"¸":{"ha":308,"x_min":56,"x_max":253,"o":"m 56 -278 l 118 -83 l 253 -83 l 157 -278 l 56 -278 z "},"˛":{"ha":301,"x_min":56,"x_max":246,"o":"m 246 -83 l 190 -278 l 56 -278 l 144 -83 l 246 -83 z "},"ʹ":{"ha":278,"x_min":76,"x_max":215,"o":"m 76 639 l 76 972 l 215 972 l 160 639 l 76 639 z "},"ʺ":{"ha":486,"x_min":76,"x_max":424,"o":"m 76 639 l 76 972 l 215 972 l 160 639 l 76 639 m 285 639 l 285 972 l 424 972 l 368 639 l 285 639 z "},"ʻ":{"ha":347,"x_min":92,"x_max":303,"o":"m 222 778 l 222 639 l 92 639 l 92 778 l 203 972 l 303 972 l 190 778 l 222 778 z "},"ʼ":{"ha":347,"x_min":44,"x_max":256,"o":"m 125 833 l 125 972 l 256 972 l 256 833 l 144 639 l 44 639 l 157 833 l 125 833 z "},"̀":{"ha":0,"x_min":-264,"x_max":181,"o":"m 181 889 l -264 889 l -264 1007 l 181 972 l 181 889 z "},"́":{"ha":0,"x_min":-181,"x_max":264,"o":"m -181 889 l -181 972 l 264 1007 l 264 889 l -181 889 z "},"̂":{"ha":0,"x_min":-264,"x_max":264,"o":"m -264 854 l -264 965 l 0 1063 l 264 965 l 264 854 l 0 951 l -264 854 z "},"̌":{"ha":0,"x_min":-264,"x_max":264,"o":"m 264 1063 l 264 951 l 0 854 l -264 951 l -264 1063 l 0 965 l 264 1063 z "},"̑":{"ha":0,"x_min":-278,"x_max":278,"o":"m -150 861 l -278 861 l -181 1028 l 181 1028 l 278 861 l 150 861 l 104 938 l -104 938 l -150 861 z "},"̆":{"ha":0,"x_min":-278,"x_max":278,"o":"m 150 1042 l 278 1042 l 181 875 l -181 875 l -278 1042 l -150 1042 l -104 965 l 104 965 l 150 1042 z "},"̃":{"ha":0,"x_min":-292,"x_max":292,"o":"m -264 861 l -292 951 l -153 1049 l 131 965 l 264 1042 l 292 951 l 153 854 l -131 938 l -264 861 z "},"̈":{"ha":0,"x_min":-215,"x_max":215,"o":"m -215 875 l -215 986 l -90 986 l -90 875 l -215 875 m 90 875 l 90 986 l 215 986 l 215 875 l 90 875 z "},"̇":{"ha":0,"x_min":-62,"x_max":63,"o":"m -62 875 l -62 986 l 63 986 l 63 875 l -62 875 z "},"̊":{"ha":0,"x_min":-192,"x_max":192,"o":"m -192 890 l -192 1026 l -107 1097 l 107 1097 l 192 1026 l 192 890 l 107 819 l -107 819 l -192 890 m -97 908 l 97 908 l 97 1008 l -97 1008 l -97 908 z "},"̋":{"ha":0,"x_min":-167,"x_max":257,"o":"m -167 847 l -111 1014 l 28 1014 l -62 847 l -167 847 m 35 847 l 118 1014 l 257 1014 l 146 847 l 35 847 z "},"̏":{"ha":0,"x_min":-257,"x_max":167,"o":"m 111 1014 l 167 847 l 63 847 l -28 1014 l 111 1014 m -118 1014 l -35 847 l -146 847 l -257 1014 l -118 1014 z "},"̄":{"ha":0,"x_min":-236,"x_max":236,"o":"m -236 908 l -236 1014 l 236 1014 l 236 908 l -236 908 z "},"̒":{"ha":0,"x_min":-90,"x_max":107,"o":"m 107 1056 l 44 861 l -90 861 l 6 1056 l 107 1056 z "},"̉":{"ha":0,"x_min":-125,"x_max":153,"o":"m -125 931 l -125 1014 l 153 1014 l 153 931 l 56 819 l -62 819 l 35 931 l -125 931 z "},"̛":{"ha":0,"x_min":-201,"x_max":28,"o":"m -97 972 l -97 1083 l 28 1083 l 28 972 l -83 861 l -201 861 l -201 972 l -97 972 z "},"̕":{"ha":78,"x_min":0,"x_max":78,"o":"m 0 667 l 0 972 l 78 972 l 78 667 l 0 667 z "},"̦":{"ha":0,"x_min":-114,"x_max":83,"o":"m -114 -278 l -51 -83 l 83 -83 l -12 -278 l -114 -278 z "},"̧":{"ha":0,"x_min":-114,"x_max":83,"o":"m -114 -278 l -51 -83 l 83 -83 l -12 -278 l -114 -278 z "},"̨":{"ha":0,"x_min":-121,"x_max":69,"o":"m 69 -83 l 14 -278 l -121 -278 l -32 -83 l 69 -83 z "},"̣":{"ha":0,"x_min":-62,"x_max":63,"o":"m -62 -222 l -62 -111 l 63 -111 l 63 -222 l -62 -222 z "},"̩":{"ha":0,"x_min":-62,"x_max":63,"o":"m -62 -306 l -62 -111 l 63 -111 l 63 -306 l -62 -306 z "},"̱":{"ha":0,"x_min":-236,"x_max":236,"o":"m -236 -236 l -236 -131 l 236 -131 l 236 -236 l -236 -236 z "},"←":{"ha":1167,"x_min":28,"x_max":1139,"o":"m 28 368 l 28 410 l 417 778 l 583 778 l 215 444 l 1139 444 l 1139 333 l 215 333 l 583 0 l 417 0 l 28 368 z "},"↑":{"ha":833,"x_min":28,"x_max":806,"o":"m 396 1042 l 438 1042 l 806 653 l 806 486 l 472 854 l 472 -69 l 361 -69 l 361 854 l 28 486 l 28 653 l 396 1042 z "},"→":{"ha":1167,"x_min":28,"x_max":1139,"o":"m 1139 410 l 1139 368 l 750 0 l 583 0 l 951 333 l 28 333 l 28 444 l 951 444 l 583 778 l 750 778 l 1139 410 z "},"↓":{"ha":833,"x_min":28,"x_max":806,"o":"m 396 -69 l 438 -69 l 806 319 l 806 486 l 472 118 l 472 1042 l 361 1042 l 361 118 l 28 486 l 28 319 l 396 -69 z "},"↔":{"ha":1528,"x_min":28,"x_max":1500,"o":"m 28 410 l 28 368 l 417 0 l 583 0 l 215 333 l 1313 333 l 944 0 l 1111 0 l 1500 368 l 1500 410 l 1111 778 l 944 778 l 1313 444 l 215 444 l 583 778 l 417 778 l 28 410 z "},"↕":{"ha":833,"x_min":28,"x_max":806,"o":"m 28 125 l 28 292 l 361 -76 l 361 1021 l 28 653 l 28 819 l 396 1208 l 438 1208 l 806 819 l 806 653 l 472 1021 l 472 -76 l 806 292 l 806 125 l 438 -264 l 396 -264 l 28 125 z "},"↖":{"ha":1000,"x_min":81,"x_max":919,"o":"m 81 767 l 110 796 l 644 782 l 763 664 l 268 688 l 919 35 l 842 -43 l 188 610 l 213 114 l 94 232 l 81 767 z "},"↗":{"ha":1000,"x_min":81,"x_max":919,"o":"m 890 796 l 919 767 l 906 232 l 788 114 l 813 610 l 158 -43 l 81 35 l 732 688 l 238 664 l 356 782 l 890 796 z "},"↘":{"ha":1000,"x_min":81,"x_max":919,"o":"m 890 -15 l 919 14 l 906 549 l 788 667 l 813 171 l 158 824 l 81 746 l 732 93 l 238 117 l 356 -1 l 890 -15 z "},"↙":{"ha":1000,"x_min":81,"x_max":919,"o":"m 81 14 l 110 -15 l 644 -1 l 763 117 l 268 93 l 919 746 l 842 824 l 188 171 l 213 667 l 94 549 l 81 14 z "},"ﬁ":{"ha":861,"x_min":83,"x_max":778,"o":"m 83 0 l 83 847 l 208 972 l 542 972 l 542 861 l 208 861 l 208 597 l 542 597 l 542 486 l 208 486 l 208 0 l 83 0 m 653 0 l 653 778 l 778 778 l 778 0 l 653 0 m 653 875 l 653 986 l 778 986 l 778 875 l 653 875 z "},"ﬂ":{"ha":861,"x_min":83,"x_max":778,"o":"m 83 0 l 83 847 l 208 972 l 542 972 l 542 861 l 208 861 l 208 597 l 542 597 l 542 486 l 208 486 l 208 0 l 83 0 m 653 0 l 653 972 l 778 972 l 778 0 l 653 0 z "},"ﬀ":{"ha":1139,"x_min":83,"x_max":1111,"o":"m 83 0 l 83 847 l 208 972 l 542 972 l 542 861 l 208 861 l 208 597 l 542 597 l 542 486 l 208 486 l 208 0 l 83 0 m 653 0 l 653 847 l 778 972 l 1111 972 l 1111 861 l 778 861 l 778 597 l 1111 597 l 1111 486 l 778 486 l 778 0 l 653 0 z "},"ﬃ":{"ha":1431,"x_min":83,"x_max":1347,"o":"m 83 0 l 83 847 l 208 972 l 542 972 l 542 861 l 208 861 l 208 597 l 542 597 l 542 486 l 208 486 l 208 0 l 83 0 m 653 0 l 653 847 l 778 972 l 1111 972 l 1111 861 l 778 861 l 778 597 l 1111 597 l 1111 486 l 778 486 l 778 0 l 653 0 m 1222 0 l 1222 778 l 1347 778 l 1347 0 l 1222 0 m 1222 875 l 1222 986 l 1347 986 l 1347 875 l 1222 875 z "},"ﬄ":{"ha":1431,"x_min":83,"x_max":1347,"o":"m 83 0 l 83 847 l 208 972 l 542 972 l 542 861 l 208 861 l 208 597 l 542 597 l 542 486 l 208 486 l 208 0 l 83 0 m 653 0 l 653 847 l 778 972 l 1111 972 l 1111 861 l 778 861 l 778 597 l 1111 597 l 1111 486 l 778 486 l 778 0 l 653 0 m 1222 0 l 1222 972 l 1347 972 l 1347 0 l 1222 0 z "},"Α":{"ha":903,"x_min":28,"x_max":875,"o":"m 28 0 l 281 972 l 622 972 l 875 0 l 747 0 l 683 250 l 219 250 l 156 0 l 28 0 m 247 358 l 656 358 l 526 864 l 376 864 l 247 358 z "},"Β":{"ha":889,"x_min":83,"x_max":833,"o":"m 208 563 l 681 563 l 681 861 l 208 861 l 208 563 m 208 111 l 708 111 l 708 451 l 208 451 l 208 111 m 806 861 l 806 582 l 740 522 l 833 439 l 833 111 l 722 0 l 83 0 l 83 972 l 694 972 l 806 861 z "},"Γ":{"ha":708,"x_min":83,"x_max":694,"o":"m 83 0 l 83 972 l 694 972 l 694 861 l 208 861 l 208 0 l 83 0 z "},"Δ":{"ha":944,"x_min":21,"x_max":924,"o":"m 640 972 l 924 0 l 797 0 l 549 861 l 396 861 l 147 0 l 21 0 l 304 972 l 640 972 m 97 0 l 97 111 l 875 111 l 875 0 l 97 0 z "},"Ε":{"ha":806,"x_min":83,"x_max":764,"o":"m 83 0 l 83 972 l 750 972 l 750 861 l 208 861 l 208 556 l 681 556 l 681 444 l 208 444 l 208 111 l 764 111 l 764 0 l 83 0 z "},"Ζ":{"ha":778,"x_min":69,"x_max":708,"o":"m 69 0 l 69 97 l 563 861 l 69 861 l 69 972 l 708 972 l 708 875 l 215 111 l 708 111 l 708 0 l 69 0 z "},"Η":{"ha":931,"x_min":83,"x_max":847,"o":"m 83 0 l 83 972 l 208 972 l 208 556 l 722 556 l 722 972 l 847 972 l 847 0 l 722 0 l 722 444 l 208 444 l 208 0 l 83 0 z "},"Θ":{"ha":903,"x_min":83,"x_max":819,"o":"m 83 111 l 83 861 l 194 972 l 708 972 l 819 861 l 819 111 l 708 0 l 194 0 l 83 111 m 208 861 l 208 542 l 694 542 l 694 861 l 208 861 m 208 111 l 694 111 l 694 431 l 208 431 l 208 111 z "},"Ι":{"ha":597,"x_min":63,"x_max":535,"o":"m 63 -6 l 63 106 l 236 113 l 236 860 l 63 867 l 63 978 l 299 967 l 535 978 l 535 867 l 361 860 l 361 113 l 535 106 l 535 -6 l 299 6 l 63 -6 z "},"Κ":{"ha":875,"x_min":83,"x_max":867,"o":"m 83 0 l 83 972 l 208 972 l 208 549 l 438 549 l 699 972 l 846 972 l 554 514 l 867 0 l 722 0 l 457 438 l 208 438 l 208 0 l 83 0 z "},"Λ":{"ha":903,"x_min":28,"x_max":875,"o":"m 622 972 l 875 0 l 747 0 l 526 861 l 376 861 l 156 0 l 28 0 l 281 972 l 622 972 z "},"Μ":{"ha":1083,"x_min":83,"x_max":1000,"o":"m 83 0 l 83 972 l 242 972 l 542 447 l 842 972 l 1000 972 l 1000 0 l 878 0 l 878 819 l 583 306 l 500 306 l 206 819 l 206 0 l 83 0 z "},"Ν":{"ha":944,"x_min":83,"x_max":861,"o":"m 83 0 l 83 972 l 261 972 l 736 146 l 736 972 l 861 972 l 861 0 l 683 0 l 208 826 l 208 0 l 83 0 z "},"Ξ":{"ha":917,"x_min":42,"x_max":875,"o":"m 42 0 l 42 111 l 399 111 l 399 444 l 125 444 l 125 556 l 399 556 l 399 861 l 56 861 l 56 972 l 861 972 l 861 861 l 518 861 l 518 556 l 792 556 l 792 444 l 518 444 l 518 111 l 875 111 l 875 0 l 42 0 z "},"Ο":{"ha":944,"x_min":83,"x_max":861,"o":"m 83 111 l 83 861 l 194 972 l 750 972 l 861 861 l 861 111 l 750 0 l 194 0 l 83 111 m 208 861 l 208 111 l 736 111 l 736 861 l 208 861 z "},"Π":{"ha":903,"x_min":83,"x_max":819,"o":"m 83 0 l 83 972 l 819 972 l 819 0 l 694 0 l 694 861 l 208 861 l 208 0 l 83 0 z "},"Ρ":{"ha":861,"x_min":83,"x_max":806,"o":"m 208 319 l 681 319 l 681 861 l 208 861 l 208 319 m 806 861 l 806 319 l 694 208 l 208 208 l 208 0 l 83 0 l 83 972 l 694 972 l 806 861 z "},"Σ":{"ha":778,"x_min":69,"x_max":708,"o":"m 69 0 l 69 97 l 408 486 l 76 875 l 76 972 l 701 972 l 701 861 l 240 861 l 560 486 l 233 111 l 708 111 l 708 0 l 69 0 z "},"Τ":{"ha":778,"x_min":28,"x_max":750,"o":"m 326 0 l 326 861 l 28 861 l 28 972 l 750 972 l 750 861 l 451 861 l 451 0 l 326 0 z "},"Υ":{"ha":889,"x_min":35,"x_max":854,"o":"m 382 0 l 382 292 l 260 292 l 35 972 l 167 972 l 347 400 l 542 400 l 722 972 l 854 972 l 629 292 l 507 292 l 507 0 l 382 0 z "},"Φ":{"ha":1111,"x_min":83,"x_max":1028,"o":"m 83 208 l 83 764 l 194 875 l 917 875 l 1028 764 l 1028 208 l 917 97 l 194 97 l 83 208 m 208 764 l 208 208 l 903 208 l 903 764 l 208 764 m 618 0 l 493 0 l 493 972 l 618 972 l 618 0 z "},"Χ":{"ha":917,"x_min":28,"x_max":889,"o":"m 28 0 l 278 514 l 49 972 l 185 972 l 389 556 l 528 556 l 732 972 l 868 972 l 639 514 l 889 0 l 753 0 l 542 444 l 375 444 l 164 0 l 28 0 z "},"Ψ":{"ha":1111,"x_min":83,"x_max":1028,"o":"m 194 250 l 83 361 l 83 972 l 208 972 l 208 361 l 493 361 l 493 972 l 618 972 l 618 361 l 903 361 l 903 972 l 1028 972 l 1028 361 l 917 250 l 618 250 l 618 0 l 493 0 l 493 250 l 194 250 z "},"Ω":{"ha":903,"x_min":42,"x_max":861,"o":"m 42 0 l 42 111 l 208 111 l 83 236 l 83 861 l 194 972 l 708 972 l 819 861 l 819 236 l 694 111 l 861 111 l 861 0 l 542 0 l 542 111 l 694 264 l 694 861 l 208 861 l 208 264 l 361 111 l 361 0 l 42 0 z "},"Ω":{"ha":903,"x_min":42,"x_max":861,"o":"m 42 0 l 42 111 l 208 111 l 83 236 l 83 861 l 194 972 l 708 972 l 819 861 l 819 236 l 694 111 l 861 111 l 861 0 l 542 0 l 542 111 l 694 264 l 694 861 l 208 861 l 208 264 l 361 111 l 361 0 l 42 0 z "},"Ά":{"ha":1181,"x_min":76,"x_max":1014,"o":"m 76 639 l 76 972 l 215 972 l 160 639 l 76 639 m 167 0 l 419 972 l 761 972 l 1014 0 l 886 0 l 822 250 l 358 250 l 294 0 l 167 0 m 386 358 l 794 358 l 665 864 l 515 864 l 386 358 z "},"Έ":{"ha":1083,"x_min":76,"x_max":1042,"o":"m 76 639 l 76 972 l 215 972 l 160 639 l 76 639 m 361 0 l 361 972 l 1028 972 l 1028 861 l 486 861 l 486 556 l 958 556 l 958 444 l 486 444 l 486 111 l 1042 111 l 1042 0 l 361 0 z "},"Ή":{"ha":1208,"x_min":76,"x_max":1125,"o":"m 76 639 l 76 972 l 215 972 l 160 639 l 76 639 m 361 0 l 361 972 l 486 972 l 486 556 l 1000 556 l 1000 972 l 1125 972 l 1125 0 l 1000 0 l 1000 444 l 486 444 l 486 0 l 361 0 z "},"Ί":{"ha":875,"x_min":76,"x_max":813,"o":"m 76 639 l 76 972 l 215 972 l 160 639 l 76 639 m 340 -6 l 340 106 l 514 113 l 514 860 l 340 867 l 340 978 l 576 967 l 813 978 l 813 867 l 639 860 l 639 113 l 813 106 l 813 -6 l 576 6 l 340 -6 z "},"Ϊ":{"ha":597,"x_min":63,"x_max":535,"o":"m 63 -6 l 63 106 l 236 113 l 236 860 l 63 867 l 63 978 l 299 967 l 535 978 l 535 867 l 361 860 l 361 113 l 535 106 l 535 -6 l 299 6 l 63 -6 m 83 1069 l 83 1181 l 208 1181 l 208 1069 l 83 1069 m 389 1069 l 389 1181 l 514 1181 l 514 1069 l 389 1069 z "},"Ό":{"ha":1222,"x_min":76,"x_max":1097,"o":"m 76 639 l 76 972 l 215 972 l 160 639 l 76 639 m 319 111 l 319 861 l 431 972 l 986 972 l 1097 861 l 1097 111 l 986 0 l 431 0 l 319 111 m 444 861 l 444 111 l 972 111 l 972 861 l 444 861 z "},"Ύ":{"ha":1167,"x_min":76,"x_max":1132,"o":"m 76 639 l 76 972 l 215 972 l 160 639 l 76 639 m 660 0 l 660 292 l 538 292 l 313 972 l 444 972 l 625 400 l 819 400 l 1000 972 l 1132 972 l 907 292 l 785 292 l 785 0 l 660 0 z "},"Ϋ":{"ha":889,"x_min":35,"x_max":854,"o":"m 382 0 l 382 292 l 260 292 l 35 972 l 167 972 l 347 400 l 542 400 l 722 972 l 854 972 l 629 292 l 507 292 l 507 0 l 382 0 m 229 1069 l 229 1181 l 354 1181 l 354 1069 l 229 1069 m 535 1069 l 535 1181 l 660 1181 l 660 1069 l 535 1069 z "},"Ώ":{"ha":1181,"x_min":76,"x_max":1097,"o":"m 76 639 l 76 972 l 215 972 l 160 639 l 76 639 m 278 0 l 278 111 l 444 111 l 319 236 l 319 861 l 431 972 l 944 972 l 1056 861 l 1056 236 l 931 111 l 1097 111 l 1097 0 l 778 0 l 778 111 l 931 264 l 931 861 l 444 861 l 444 264 l 597 111 l 597 0 l 278 0 z "},"α":{"ha":875,"x_min":83,"x_max":794,"o":"m 194 0 l 83 111 l 83 667 l 194 778 l 569 778 l 660 701 l 669 778 l 794 778 l 761 389 l 794 0 l 669 0 l 660 76 l 569 0 l 194 0 m 208 111 l 660 111 l 660 667 l 208 667 l 208 111 z "},"β":{"ha":875,"x_min":83,"x_max":819,"o":"m 785 847 l 785 610 l 713 536 l 819 453 l 819 125 l 694 0 l 125 0 l 125 111 l 694 111 l 694 465 l 347 465 l 347 576 l 660 576 l 660 861 l 208 861 l 208 -139 l 83 -139 l 83 847 l 208 972 l 660 972 l 785 847 z "},"γ":{"ha":806,"x_min":15,"x_max":790,"o":"m 340 7 l 15 778 l 142 778 l 396 153 l 410 153 l 664 778 l 790 778 l 465 7 l 465 -194 l 340 -194 l 340 7 z "},"δ":{"ha":917,"x_min":83,"x_max":833,"o":"m 208 0 l 83 125 l 83 667 l 403 767 l 522 740 l 208 600 l 208 111 l 708 111 l 708 611 l 160 847 l 160 972 l 771 972 l 771 869 l 307 869 l 833 681 l 833 125 l 708 0 l 208 0 z "},"ε":{"ha":819,"x_min":69,"x_max":764,"o":"m 181 0 l 69 111 l 69 322 l 176 406 l 97 465 l 97 667 l 208 778 l 750 778 l 750 667 l 222 667 l 222 453 l 694 453 l 694 342 l 194 342 l 194 111 l 764 111 l 764 0 l 181 0 z "},"ζ":{"ha":750,"x_min":76,"x_max":729,"o":"m 188 0 l 76 111 l 76 569 l 535 867 l 76 867 l 76 972 l 694 972 l 694 861 l 201 536 l 201 108 l 729 108 l 729 -222 l 618 -222 l 618 0 l 188 0 z "},"η":{"ha":861,"x_min":83,"x_max":778,"o":"m 83 0 l 83 778 l 653 778 l 778 653 l 778 0 l 653 0 l 653 667 l 208 667 l 208 0 l 83 0 z "},"θ":{"ha":861,"x_min":83,"x_max":778,"o":"m 83 111 l 83 861 l 194 972 l 667 972 l 778 861 l 778 111 l 667 0 l 194 0 l 83 111 m 208 861 l 208 542 l 653 542 l 653 861 l 208 861 m 208 111 l 653 111 l 653 431 l 208 431 l 208 111 z "},"ι":{"ha":431,"x_min":97,"x_max":403,"o":"m 97 778 l 222 778 l 222 114 l 403 114 l 403 0 l 208 0 l 97 111 l 97 778 z "},"κ":{"ha":875,"x_min":97,"x_max":861,"o":"m 97 0 l 97 778 l 222 778 l 222 460 l 492 460 l 706 778 l 850 778 l 604 419 l 861 0 l 719 0 l 510 349 l 222 349 l 222 0 l 97 0 z "},"λ":{"ha":833,"x_min":15,"x_max":818,"o":"m 194 972 l 507 972 l 818 0 l 692 0 l 513 556 l 329 556 l 142 0 l 15 0 l 242 667 l 479 667 l 419 861 l 194 861 l 194 972 z "},"μ":{"ha":986,"x_min":97,"x_max":958,"o":"m 97 -222 l 97 778 l 222 778 l 222 111 l 653 111 l 653 778 l 778 778 l 778 114 l 958 114 l 958 0 l 743 0 l 667 76 l 590 0 l 222 0 l 222 -222 l 97 -222 z "},"ν":{"ha":806,"x_min":15,"x_max":790,"o":"m 253 0 l 15 778 l 142 778 l 344 111 l 461 111 l 664 778 l 790 778 l 553 0 l 253 0 z "},"ξ":{"ha":750,"x_min":69,"x_max":708,"o":"m 181 0 l 69 111 l 69 419 l 176 503 l 97 563 l 97 861 l 208 972 l 701 972 l 701 864 l 222 864 l 222 549 l 674 549 l 674 440 l 194 440 l 194 108 l 708 108 l 708 -222 l 583 -222 l 583 0 l 181 0 z "},"ο":{"ha":847,"x_min":83,"x_max":764,"o":"m 83 125 l 83 653 l 208 778 l 639 778 l 764 653 l 764 125 l 639 0 l 208 0 l 83 125 m 208 111 l 639 111 l 639 667 l 208 667 l 208 111 z "},"π":{"ha":875,"x_min":90,"x_max":785,"o":"m 90 0 l 90 778 l 785 778 l 785 0 l 660 0 l 660 667 l 215 667 l 215 0 l 90 0 z "},"ρ":{"ha":882,"x_min":97,"x_max":799,"o":"m 97 -194 l 97 653 l 222 778 l 674 778 l 799 653 l 799 125 l 674 0 l 222 0 l 222 -194 l 97 -194 m 674 667 l 222 667 l 222 111 l 674 111 l 674 667 z "},"ς":{"ha":764,"x_min":83,"x_max":722,"o":"m 208 0 l 83 125 l 83 653 l 208 778 l 722 778 l 722 667 l 208 667 l 208 111 l 722 111 l 722 -222 l 597 -222 l 597 0 l 208 0 z "},"σ":{"ha":868,"x_min":83,"x_max":833,"o":"m 83 125 l 83 653 l 208 778 l 833 778 l 833 672 l 667 672 l 764 583 l 764 125 l 639 0 l 208 0 l 83 125 m 208 111 l 639 111 l 639 667 l 208 667 l 208 111 z "},"τ":{"ha":722,"x_min":28,"x_max":681,"o":"m 167 111 l 167 667 l 28 667 l 28 736 l 69 778 l 681 778 l 681 667 l 292 667 l 292 111 l 681 111 l 681 0 l 278 0 l 167 111 z "},"υ":{"ha":889,"x_min":97,"x_max":792,"o":"m 792 778 l 792 125 l 667 0 l 222 0 l 97 125 l 97 778 l 222 778 l 222 111 l 667 111 l 667 778 l 792 778 z "},"φ":{"ha":1111,"x_min":83,"x_max":1028,"o":"m 615 111 l 903 111 l 903 667 l 615 667 l 615 111 m 208 0 l 83 125 l 83 653 l 208 778 l 361 778 l 208 625 l 208 111 l 496 111 l 496 667 l 607 778 l 903 778 l 1028 653 l 1028 125 l 903 0 l 615 0 l 615 -194 l 496 -194 l 496 0 l 208 0 z "},"χ":{"ha":875,"x_min":35,"x_max":840,"o":"m 35 0 l 257 417 l 56 778 l 196 778 l 368 458 l 507 458 l 679 778 l 819 778 l 618 417 l 840 0 l 700 0 l 521 347 l 354 347 l 175 0 l 35 0 z "},"ψ":{"ha":1083,"x_min":83,"x_max":1000,"o":"m 194 0 l 83 111 l 83 778 l 208 778 l 208 111 l 479 111 l 479 861 l 604 861 l 604 111 l 875 111 l 875 778 l 1000 778 l 1000 111 l 889 0 l 604 0 l 604 -194 l 479 -194 l 479 0 l 194 0 z "},"ω":{"ha":1306,"x_min":90,"x_max":1215,"o":"m 715 639 l 715 111 l 1090 111 l 1090 778 l 1215 778 l 1215 125 l 1090 0 l 715 0 l 653 108 l 590 0 l 215 0 l 90 125 l 90 778 l 215 778 l 215 111 l 590 111 l 590 639 l 715 639 z "},"ά":{"ha":875,"x_min":83,"x_max":794,"o":"m 194 0 l 83 111 l 83 667 l 194 778 l 569 778 l 660 701 l 669 778 l 794 778 l 761 389 l 794 0 l 669 0 l 660 76 l 569 0 l 194 0 m 208 111 l 660 111 l 660 667 l 208 667 l 208 111 m 389 847 l 389 1014 l 528 1014 l 472 847 l 389 847 z "},"έ":{"ha":819,"x_min":69,"x_max":764,"o":"m 181 0 l 69 111 l 69 322 l 176 406 l 97 465 l 97 667 l 208 778 l 750 778 l 750 667 l 222 667 l 222 453 l 694 453 l 694 342 l 194 342 l 194 111 l 764 111 l 764 0 l 181 0 m 431 847 l 431 1014 l 569 1014 l 514 847 l 431 847 z "},"ή":{"ha":861,"x_min":83,"x_max":778,"o":"m 83 0 l 83 778 l 653 778 l 778 653 l 778 0 l 653 0 l 653 667 l 208 667 l 208 0 l 83 0 m 382 847 l 382 1014 l 521 1014 l 465 847 l 382 847 z "},"ί":{"ha":431,"x_min":97,"x_max":403,"o":"m 97 778 l 222 778 l 222 114 l 403 114 l 403 0 l 208 0 l 97 111 l 97 778 m 111 847 l 111 1014 l 250 1014 l 194 847 l 111 847 z "},"ϊ":{"ha":431,"x_min":-56,"x_max":403,"o":"m 97 778 l 222 778 l 222 114 l 403 114 l 403 0 l 208 0 l 97 111 l 97 778 m -56 875 l -56 986 l 69 986 l 69 875 l -56 875 m 250 875 l 250 986 l 375 986 l 375 875 l 250 875 z "},"ΐ":{"ha":431,"x_min":-56,"x_max":403,"o":"m 97 778 l 222 778 l 222 114 l 403 114 l 403 0 l 208 0 l 97 111 l 97 778 m -56 875 l -56 986 l 69 986 l 69 875 l -56 875 m 250 875 l 250 986 l 375 986 l 375 875 l 250 875 m 111 1056 l 111 1222 l 250 1222 l 194 1056 l 111 1056 z "},"ό":{"ha":847,"x_min":83,"x_max":764,"o":"m 83 125 l 83 653 l 208 778 l 639 778 l 764 653 l 764 125 l 639 0 l 208 0 l 83 125 m 208 111 l 639 111 l 639 667 l 208 667 l 208 111 m 375 847 l 375 1014 l 514 1014 l 458 847 l 375 847 z "},"ύ":{"ha":889,"x_min":97,"x_max":792,"o":"m 792 778 l 792 125 l 667 0 l 222 0 l 97 125 l 97 778 l 222 778 l 222 111 l 667 111 l 667 778 l 792 778 m 396 847 l 396 1014 l 535 1014 l 479 847 l 396 847 z "},"ϋ":{"ha":889,"x_min":97,"x_max":792,"o":"m 792 778 l 792 125 l 667 0 l 222 0 l 97 125 l 97 778 l 222 778 l 222 111 l 667 111 l 667 778 l 792 778 m 229 875 l 229 986 l 354 986 l 354 875 l 229 875 m 535 875 l 535 986 l 660 986 l 660 875 l 535 875 z "},"ΰ":{"ha":889,"x_min":97,"x_max":792,"o":"m 792 778 l 792 125 l 667 0 l 222 0 l 97 125 l 97 778 l 222 778 l 222 111 l 667 111 l 667 778 l 792 778 m 229 875 l 229 986 l 354 986 l 354 875 l 229 875 m 535 875 l 535 986 l 660 986 l 660 875 l 535 875 m 396 1056 l 396 1222 l 535 1222 l 479 1056 l 396 1056 z "},"ώ":{"ha":1306,"x_min":90,"x_max":1215,"o":"m 715 639 l 715 111 l 1090 111 l 1090 778 l 1215 778 l 1215 125 l 1090 0 l 715 0 l 653 108 l 590 0 l 215 0 l 90 125 l 90 778 l 215 778 l 215 111 l 590 111 l 590 639 l 715 639 m 604 847 l 604 1014 l 743 1014 l 688 847 l 604 847 z "},"Ϗ":{"ha":875,"x_min":83,"x_max":867,"o":"m 83 0 l 83 972 l 208 972 l 208 549 l 438 549 l 699 972 l 846 972 l 554 514 l 867 0 l 722 0 l 457 438 l 208 438 l 208 0 l 83 0 m 765 -83 l 710 -278 l 575 -278 l 664 -83 l 765 -83 z "},"ϗ":{"ha":875,"x_min":97,"x_max":861,"o":"m 97 0 l 97 778 l 222 778 l 222 460 l 492 460 l 706 778 l 850 778 l 604 419 l 861 0 l 719 0 l 510 349 l 222 349 l 222 0 l 97 0 m 765 -83 l 710 -278 l 575 -278 l 664 -83 l 765 -83 z "},"ϕ":{"ha":1111,"x_min":83,"x_max":1028,"o":"m 83 111 l 83 667 l 194 778 l 917 778 l 1028 667 l 1028 111 l 917 0 l 194 0 l 83 111 m 208 672 l 208 106 l 903 106 l 903 672 l 208 672 m 618 -194 l 493 -194 l 493 972 l 618 972 l 618 -194 z "},"ʹ":{"ha":278,"x_min":76,"x_max":215,"o":"m 76 639 l 76 972 l 215 972 l 160 639 l 76 639 z "},"͵":{"ha":278,"x_min":63,"x_max":201,"o":"m 201 139 l 201 -194 l 63 -194 l 118 139 l 201 139 z "},";":{"ha":347,"x_min":25,"x_max":236,"o":"m 106 0 l 106 139 l 236 139 l 236 0 l 125 -194 l 25 -194 l 138 0 l 106 0 m 92 500 l 92 639 l 217 639 l 217 500 l 92 500 z "},"·":{"ha":347,"x_min":111,"x_max":236,"o":"m 111 500 l 111 639 l 236 639 l 236 500 l 111 500 z "},"΄":{"ha":278,"x_min":76,"x_max":215,"o":"m 76 639 l 76 972 l 215 972 l 160 639 l 76 639 z "},"΅":{"ha":542,"x_min":56,"x_max":486,"o":"m 56 875 l 56 986 l 181 986 l 181 875 l 56 875 m 361 875 l 361 986 l 486 986 l 486 875 l 361 875 m 201 847 l 201 1014 l 340 1014 l 285 847 l 201 847 z "},"А":{"ha":903,"x_min":28,"x_max":875,"o":"m 28 0 l 281 972 l 622 972 l 875 0 l 747 0 l 683 250 l 219 250 l 156 0 l 28 0 m 247 358 l 656 358 l 526 864 l 376 864 l 247 358 z "},"Б":{"ha":889,"x_min":83,"x_max":833,"o":"m 83 0 l 83 972 l 778 972 l 778 861 l 208 861 l 208 583 l 722 583 l 833 472 l 833 111 l 722 0 l 83 0 m 208 111 l 708 111 l 708 472 l 208 472 l 208 111 z "},"В":{"ha":889,"x_min":83,"x_max":833,"o":"m 208 563 l 681 563 l 681 861 l 208 861 l 208 563 m 208 111 l 708 111 l 708 451 l 208 451 l 208 111 m 806 861 l 806 582 l 740 522 l 833 439 l 833 111 l 722 0 l 83 0 l 83 972 l 694 972 l 806 861 z "},"Г":{"ha":708,"x_min":83,"x_max":694,"o":"m 83 0 l 83 972 l 694 972 l 694 861 l 208 861 l 208 0 l 83 0 z "},"Д":{"ha":1000,"x_min":21,"x_max":979,"o":"m 21 -194 l 21 111 l 119 111 l 335 972 l 894 972 l 894 111 l 979 111 l 979 -194 l 854 -194 l 854 0 l 146 0 l 146 -194 l 21 -194 m 246 111 l 769 111 l 769 861 l 429 861 l 246 111 z "},"Е":{"ha":806,"x_min":83,"x_max":764,"o":"m 83 0 l 83 972 l 750 972 l 750 861 l 208 861 l 208 556 l 681 556 l 681 444 l 208 444 l 208 111 l 764 111 l 764 0 l 83 0 z "},"Ж":{"ha":1253,"x_min":8,"x_max":1244,"o":"m 689 0 l 564 0 l 564 438 l 372 438 l 153 0 l 8 0 l 272 514 l 29 972 l 172 972 l 390 549 l 564 549 l 564 972 l 689 972 l 689 549 l 863 549 l 1081 972 l 1224 972 l 981 514 l 1244 0 l 1100 0 l 881 438 l 689 438 l 689 0 z "},"З":{"ha":847,"x_min":35,"x_max":792,"o":"m 681 0 l 35 0 l 35 111 l 667 111 l 667 444 l 181 444 l 181 556 l 639 556 l 639 861 l 56 861 l 56 972 l 653 972 l 764 861 l 764 568 l 685 508 l 792 425 l 792 111 l 681 0 z "},"И":{"ha":944,"x_min":83,"x_max":861,"o":"m 861 0 l 736 0 l 736 843 l 261 0 l 83 0 l 83 972 l 208 972 l 208 129 l 683 972 l 861 972 l 861 0 z "},"Й":{"ha":944,"x_min":83,"x_max":861,"o":"m 861 0 l 736 0 l 736 843 l 261 0 l 83 0 l 83 972 l 208 972 l 208 129 l 683 972 l 861 972 l 861 0 m 594 1236 l 750 1236 l 653 1069 l 292 1069 l 194 1236 l 350 1236 l 368 1160 l 576 1160 l 594 1236 z "},"К":{"ha":875,"x_min":83,"x_max":867,"o":"m 83 0 l 83 972 l 208 972 l 208 549 l 438 549 l 699 972 l 846 972 l 554 514 l 867 0 l 722 0 l 457 438 l 208 438 l 208 0 l 83 0 z "},"Л":{"ha":931,"x_min":28,"x_max":847,"o":"m 847 972 l 847 0 l 722 0 l 722 861 l 376 861 l 156 0 l 28 0 l 281 972 l 847 972 z "},"М":{"ha":1083,"x_min":83,"x_max":1000,"o":"m 83 0 l 83 972 l 242 972 l 542 447 l 842 972 l 1000 972 l 1000 0 l 878 0 l 878 819 l 583 306 l 500 306 l 206 819 l 206 0 l 83 0 z "},"Н":{"ha":931,"x_min":83,"x_max":847,"o":"m 83 0 l 83 972 l 208 972 l 208 556 l 722 556 l 722 972 l 847 972 l 847 0 l 722 0 l 722 444 l 208 444 l 208 0 l 83 0 z "},"О":{"ha":944,"x_min":83,"x_max":861,"o":"m 83 111 l 83 861 l 194 972 l 750 972 l 861 861 l 861 111 l 750 0 l 194 0 l 83 111 m 208 861 l 208 111 l 736 111 l 736 861 l 208 861 z "},"П":{"ha":903,"x_min":83,"x_max":819,"o":"m 83 0 l 83 972 l 819 972 l 819 0 l 694 0 l 694 861 l 208 861 l 208 0 l 83 0 z "},"Р":{"ha":861,"x_min":83,"x_max":806,"o":"m 208 319 l 681 319 l 681 861 l 208 861 l 208 319 m 806 861 l 806 319 l 694 208 l 208 208 l 208 0 l 83 0 l 83 972 l 694 972 l 806 861 z "},"С":{"ha":764,"x_min":83,"x_max":722,"o":"m 83 111 l 83 861 l 194 972 l 708 972 l 708 858 l 208 858 l 208 114 l 722 114 l 722 0 l 194 0 l 83 111 z "},"Т":{"ha":778,"x_min":28,"x_max":750,"o":"m 326 0 l 326 861 l 28 861 l 28 972 l 750 972 l 750 861 l 451 861 l 451 0 l 326 0 z "},"У":{"ha":833,"x_min":15,"x_max":818,"o":"m 57 0 l 57 111 l 419 111 l 479 306 l 242 306 l 15 972 l 142 972 l 331 417 l 513 417 l 692 972 l 818 972 l 507 0 l 57 0 z "},"Ф":{"ha":1111,"x_min":83,"x_max":1028,"o":"m 83 208 l 83 764 l 194 875 l 917 875 l 1028 764 l 1028 208 l 917 97 l 194 97 l 83 208 m 208 764 l 208 208 l 903 208 l 903 764 l 208 764 m 618 0 l 493 0 l 493 972 l 618 972 l 618 0 z "},"Х":{"ha":917,"x_min":28,"x_max":889,"o":"m 28 0 l 278 514 l 49 972 l 185 972 l 389 556 l 528 556 l 732 972 l 868 972 l 639 514 l 889 0 l 753 0 l 542 444 l 375 444 l 164 0 l 28 0 z "},"Ц":{"ha":919,"x_min":83,"x_max":906,"o":"m 819 972 l 819 111 l 906 111 l 906 -194 l 781 -194 l 781 0 l 83 0 l 83 972 l 208 972 l 208 111 l 694 111 l 694 972 l 819 972 z "},"Ч":{"ha":889,"x_min":83,"x_max":806,"o":"m 806 972 l 806 0 l 681 0 l 681 194 l 208 194 l 83 319 l 83 972 l 208 972 l 208 306 l 681 306 l 681 972 l 806 972 z "},"Ш":{"ha":1292,"x_min":83,"x_max":1208,"o":"m 708 972 l 708 111 l 1083 111 l 1083 972 l 1208 972 l 1208 0 l 83 0 l 83 972 l 208 972 l 208 111 l 583 111 l 583 972 l 708 972 z "},"Щ":{"ha":1308,"x_min":83,"x_max":1294,"o":"m 708 972 l 708 111 l 1083 111 l 1083 972 l 1208 972 l 1208 111 l 1294 111 l 1294 -194 l 1169 -194 l 1169 0 l 83 0 l 83 972 l 208 972 l 208 111 l 583 111 l 583 972 l 708 972 z "},"Ъ":{"ha":1000,"x_min":28,"x_max":944,"o":"m 819 653 l 319 653 l 319 111 l 819 111 l 819 653 m 944 653 l 944 111 l 833 0 l 194 0 l 194 819 l 236 861 l 28 861 l 28 972 l 319 972 l 319 764 l 833 764 l 944 653 z "},"Ы":{"ha":1181,"x_min":83,"x_max":1097,"o":"m 708 653 l 208 653 l 208 111 l 708 111 l 708 653 m 833 653 l 833 111 l 722 0 l 83 0 l 83 972 l 208 972 l 208 764 l 722 764 l 833 653 m 972 0 l 972 972 l 1097 972 l 1097 0 l 972 0 z "},"Ь":{"ha":889,"x_min":83,"x_max":833,"o":"m 708 653 l 208 653 l 208 111 l 708 111 l 708 653 m 833 653 l 833 111 l 722 0 l 83 0 l 83 972 l 208 972 l 208 764 l 722 764 l 833 653 z "},"Э":{"ha":833,"x_min":42,"x_max":750,"o":"m 750 125 l 625 0 l 42 0 l 42 114 l 625 114 l 625 858 l 56 858 l 56 972 l 625 972 l 750 847 l 750 125 m 674 431 l 215 431 l 215 542 l 674 542 l 674 431 z "},"Ю":{"ha":1319,"x_min":83,"x_max":1236,"o":"m 83 0 l 83 972 l 208 972 l 208 542 l 500 542 l 500 861 l 611 972 l 1125 972 l 1236 861 l 1236 111 l 1125 0 l 611 0 l 500 111 l 500 431 l 208 431 l 208 0 l 83 0 m 625 861 l 625 111 l 1111 111 l 1111 861 l 625 861 z "},"Я":{"ha":903,"x_min":7,"x_max":819,"o":"m 694 444 l 694 861 l 208 861 l 208 444 l 694 444 m 83 861 l 194 972 l 819 972 l 819 0 l 694 0 l 694 333 l 299 333 l 142 0 l 7 0 l 176 351 l 83 444 l 83 861 z "},"а":{"ha":833,"x_min":69,"x_max":750,"o":"m 69 125 l 69 444 l 625 458 l 625 667 l 97 667 l 97 778 l 625 778 l 750 653 l 750 0 l 194 0 l 69 125 m 194 333 l 194 111 l 625 111 l 625 361 l 194 333 z "},"б":{"ha":861,"x_min":83,"x_max":785,"o":"m 208 111 l 660 111 l 660 597 l 208 597 l 208 111 m 208 0 l 83 125 l 83 847 l 208 972 l 764 972 l 764 861 l 208 861 l 208 708 l 674 708 l 785 597 l 785 125 l 660 0 l 208 0 z "},"в":{"ha":847,"x_min":83,"x_max":778,"o":"m 83 778 l 83 0 l 667 0 l 778 111 l 778 322 l 671 406 l 750 465 l 750 667 l 639 778 l 83 778 m 208 453 l 208 667 l 625 667 l 625 453 l 208 453 m 208 111 l 208 342 l 653 342 l 653 111 l 208 111 z "},"г":{"ha":653,"x_min":83,"x_max":625,"o":"m 83 0 l 83 778 l 625 778 l 625 667 l 208 667 l 208 0 l 83 0 z "},"д":{"ha":847,"x_min":76,"x_max":764,"o":"m 125 -194 l 125 -83 l 639 -83 l 639 111 l 201 111 l 76 236 l 76 653 l 215 778 l 764 778 l 764 -64 l 633 -194 l 125 -194 m 201 667 l 201 222 l 639 222 l 639 667 l 201 667 z "},"е":{"ha":819,"x_min":76,"x_max":743,"o":"m 76 125 l 76 653 l 201 778 l 743 778 l 743 347 l 201 347 l 201 111 l 715 111 l 715 0 l 201 0 l 76 125 m 201 444 l 624 458 l 624 667 l 201 667 l 201 444 z "},"ж":{"ha":1319,"x_min":14,"x_max":1306,"o":"m 722 0 l 597 0 l 597 349 l 365 349 l 156 0 l 14 0 l 271 419 l 26 778 l 169 778 l 378 460 l 597 460 l 597 778 l 722 778 l 722 460 l 942 460 l 1150 778 l 1293 778 l 1049 419 l 1306 0 l 1164 0 l 954 349 l 722 349 l 722 0 z "},"з":{"ha":819,"x_min":49,"x_max":743,"o":"m 743 111 l 632 0 l 49 0 l 49 111 l 618 111 l 618 342 l 118 342 l 118 453 l 590 453 l 590 667 l 63 667 l 63 778 l 604 778 l 715 667 l 715 465 l 636 406 l 743 322 l 743 111 z "},"и":{"ha":903,"x_min":83,"x_max":819,"o":"m 819 0 l 694 0 l 694 649 l 247 0 l 83 0 l 83 778 l 208 778 l 208 129 l 656 778 l 819 778 l 819 0 z "},"й":{"ha":903,"x_min":83,"x_max":819,"o":"m 819 0 l 694 0 l 694 649 l 247 0 l 83 0 l 83 778 l 208 778 l 208 129 l 656 778 l 819 778 l 819 0 m 601 1042 l 729 1042 l 632 875 l 271 875 l 174 1042 l 301 1042 l 347 965 l 556 965 l 601 1042 z "},"к":{"ha":861,"x_min":83,"x_max":847,"o":"m 83 0 l 83 778 l 208 778 l 208 460 l 478 460 l 692 778 l 836 778 l 590 419 l 847 0 l 706 0 l 496 349 l 208 349 l 208 0 l 83 0 z "},"л":{"ha":861,"x_min":21,"x_max":778,"o":"m 778 778 l 778 0 l 653 0 l 653 669 l 346 669 l 225 0 l 21 0 l 21 114 l 121 114 l 242 778 l 778 778 z "},"м":{"ha":1000,"x_min":83,"x_max":917,"o":"m 83 0 l 83 778 l 242 778 l 500 381 l 758 778 l 917 778 l 917 0 l 794 0 l 794 639 l 542 250 l 458 250 l 206 639 l 206 0 l 83 0 z "},"н":{"ha":861,"x_min":83,"x_max":778,"o":"m 83 0 l 83 778 l 208 778 l 208 444 l 653 444 l 653 778 l 778 778 l 778 0 l 653 0 l 653 333 l 208 333 l 208 0 l 83 0 z "},"о":{"ha":833,"x_min":76,"x_max":757,"o":"m 76 125 l 76 653 l 201 778 l 632 778 l 757 653 l 757 125 l 632 0 l 201 0 l 76 125 m 201 111 l 632 111 l 632 667 l 201 667 l 201 111 z "},"п":{"ha":875,"x_min":90,"x_max":785,"o":"m 90 0 l 90 778 l 785 778 l 785 0 l 660 0 l 660 667 l 215 667 l 215 0 l 90 0 z "},"р":{"ha":861,"x_min":83,"x_max":785,"o":"m 83 -194 l 83 778 l 660 778 l 785 653 l 785 125 l 660 0 l 208 0 l 208 -194 l 83 -194 m 660 667 l 208 667 l 208 111 l 660 111 l 660 667 z "},"с":{"ha":757,"x_min":76,"x_max":715,"o":"m 76 125 l 76 653 l 201 778 l 715 778 l 715 667 l 201 667 l 201 111 l 715 111 l 715 0 l 201 0 l 76 125 z "},"т":{"ha":778,"x_min":28,"x_max":750,"o":"m 451 0 l 451 667 l 750 667 l 750 778 l 28 778 l 28 667 l 326 667 l 326 0 l 451 0 z "},"у":{"ha":833,"x_min":15,"x_max":818,"o":"m 57 -194 l 57 -83 l 419 -83 l 479 111 l 242 111 l 15 778 l 142 778 l 331 222 l 513 222 l 692 778 l 818 778 l 507 -194 l 57 -194 z "},"ф":{"ha":1111,"x_min":83,"x_max":1028,"o":"m 83 111 l 83 667 l 194 778 l 917 778 l 1028 667 l 1028 111 l 917 0 l 194 0 l 83 111 m 208 672 l 208 106 l 903 106 l 903 672 l 208 672 m 618 -194 l 493 -194 l 493 972 l 618 972 l 618 -194 z "},"х":{"ha":875,"x_min":35,"x_max":840,"o":"m 35 0 l 257 417 l 56 778 l 196 778 l 368 458 l 507 458 l 679 778 l 819 778 l 618 417 l 840 0 l 700 0 l 521 347 l 354 347 l 175 0 l 35 0 z "},"ц":{"ha":885,"x_min":83,"x_max":871,"o":"m 778 778 l 778 111 l 871 111 l 871 -194 l 746 -194 l 746 0 l 83 0 l 83 778 l 208 778 l 208 111 l 653 111 l 653 778 l 778 778 z "},"ч":{"ha":854,"x_min":76,"x_max":771,"o":"m 771 778 l 771 0 l 646 0 l 646 194 l 201 194 l 76 319 l 76 778 l 201 778 l 201 306 l 646 306 l 646 778 l 771 778 z "},"ш":{"ha":1236,"x_min":83,"x_max":1153,"o":"m 681 778 l 681 111 l 1028 111 l 1028 778 l 1153 778 l 1153 0 l 83 0 l 83 778 l 208 778 l 208 111 l 556 111 l 556 778 l 681 778 z "},"щ":{"ha":1253,"x_min":83,"x_max":1239,"o":"m 681 778 l 681 111 l 1028 111 l 1028 778 l 1153 778 l 1153 111 l 1239 111 l 1239 -194 l 1114 -194 l 1114 0 l 83 0 l 83 778 l 208 778 l 208 111 l 556 111 l 556 778 l 681 778 z "},"ъ":{"ha":972,"x_min":14,"x_max":896,"o":"m 194 0 l 194 625 l 236 667 l 14 667 l 14 778 l 319 778 l 319 583 l 771 583 l 896 458 l 896 125 l 771 0 l 194 0 m 319 111 l 771 111 l 771 472 l 319 472 l 319 111 z "},"ы":{"ha":1153,"x_min":83,"x_max":1069,"o":"m 83 0 l 83 778 l 208 778 l 208 583 l 660 583 l 785 458 l 785 125 l 660 0 l 83 0 m 208 111 l 660 111 l 660 472 l 208 472 l 208 111 m 944 0 l 944 778 l 1069 778 l 1069 0 l 944 0 z "},"ь":{"ha":847,"x_min":83,"x_max":785,"o":"m 83 0 l 83 778 l 208 778 l 208 583 l 660 583 l 785 458 l 785 125 l 660 0 l 83 0 m 208 111 l 660 111 l 660 472 l 208 472 l 208 111 z "},"э":{"ha":778,"x_min":49,"x_max":701,"o":"m 576 0 l 49 0 l 49 111 l 576 111 l 576 347 l 76 347 l 76 458 l 576 458 l 576 667 l 49 667 l 49 778 l 576 778 l 701 653 l 701 125 l 576 0 z "},"ю":{"ha":1125,"x_min":83,"x_max":1049,"o":"m 83 0 l 83 778 l 208 778 l 208 444 l 368 444 l 368 653 l 493 778 l 924 778 l 1049 653 l 1049 125 l 924 0 l 493 0 l 368 125 l 368 333 l 208 333 l 208 0 l 83 0 m 493 111 l 924 111 l 924 667 l 493 667 l 493 111 z "},"я":{"ha":833,"x_min":21,"x_max":750,"o":"m 215 361 l 625 361 l 625 667 l 215 667 l 215 361 m 90 347 l 90 667 l 201 778 l 750 778 l 750 0 l 625 0 l 625 250 l 279 250 l 156 0 l 21 0 l 164 274 l 90 347 z "},"Ӑ":{"ha":903,"x_min":28,"x_max":875,"o":"m 28 0 l 281 972 l 622 972 l 875 0 l 747 0 l 683 250 l 219 250 l 156 0 l 28 0 m 247 358 l 656 358 l 526 864 l 376 864 l 247 358 m 574 1236 l 729 1236 l 632 1069 l 271 1069 l 174 1236 l 329 1236 l 347 1160 l 556 1160 l 574 1236 z "},"ӑ":{"ha":833,"x_min":69,"x_max":750,"o":"m 69 125 l 69 444 l 625 458 l 625 667 l 97 667 l 97 778 l 625 778 l 750 653 l 750 0 l 194 0 l 69 125 m 194 333 l 194 111 l 625 111 l 625 361 l 194 333 m 518 1042 l 674 1042 l 576 875 l 215 875 l 118 1042 l 274 1042 l 292 965 l 500 965 l 518 1042 z "},"Ӓ":{"ha":903,"x_min":28,"x_max":875,"o":"m 28 0 l 281 972 l 622 972 l 875 0 l 747 0 l 683 250 l 219 250 l 156 0 l 28 0 m 247 358 l 656 358 l 526 864 l 376 864 l 247 358 m 236 1069 l 236 1181 l 361 1181 l 361 1069 l 236 1069 m 542 1069 l 542 1181 l 667 1181 l 667 1069 l 542 1069 z "},"ӓ":{"ha":833,"x_min":69,"x_max":750,"o":"m 69 125 l 69 444 l 625 458 l 625 667 l 97 667 l 97 778 l 625 778 l 750 653 l 750 0 l 194 0 l 69 125 m 194 333 l 194 111 l 625 111 l 625 361 l 194 333 m 181 875 l 181 986 l 306 986 l 306 875 l 181 875 m 486 875 l 486 986 l 611 986 l 611 875 l 486 875 z "},"Ә":{"ha":903,"x_min":83,"x_max":819,"o":"m 819 840 l 819 132 l 688 0 l 215 0 l 83 132 l 83 569 l 694 569 l 694 861 l 111 861 l 111 972 l 688 972 l 819 840 m 694 472 l 208 458 l 208 111 l 694 111 l 694 472 z "},"ә":{"ha":819,"x_min":76,"x_max":743,"o":"m 743 646 l 743 132 l 611 0 l 208 0 l 76 132 l 76 431 l 618 431 l 618 667 l 104 667 l 104 778 l 611 778 l 743 646 m 618 333 l 201 319 l 201 111 l 618 111 l 618 333 z "},"Ӕ":{"ha":1306,"x_min":28,"x_max":1264,"o":"m 28 0 l 336 972 l 1250 972 l 1250 861 l 778 861 l 778 556 l 1181 556 l 1181 444 l 778 444 l 778 111 l 1264 111 l 1264 0 l 653 0 l 653 250 l 233 250 l 156 0 l 28 0 m 268 358 l 656 358 l 656 864 l 426 864 l 268 358 z "},"ӕ":{"ha":1285,"x_min":69,"x_max":1208,"o":"m 69 125 l 69 444 l 583 458 l 583 667 l 97 667 l 97 778 l 569 778 l 646 701 l 722 778 l 1208 778 l 1208 347 l 708 347 l 708 111 l 1181 111 l 1181 0 l 194 0 l 69 125 m 708 444 l 1083 458 l 1083 667 l 708 667 l 708 444 m 194 333 l 194 111 l 583 111 l 583 361 l 194 333 z "},"Ѓ":{"ha":708,"x_min":83,"x_max":694,"o":"m 83 0 l 83 972 l 694 972 l 694 861 l 208 861 l 208 0 l 83 0 m 174 1083 l 174 1167 l 618 1201 l 618 1083 l 174 1083 z "},"ѓ":{"ha":653,"x_min":83,"x_max":625,"o":"m 83 0 l 83 778 l 625 778 l 625 667 l 208 667 l 208 0 l 83 0 m 181 889 l 181 972 l 625 1007 l 625 889 l 181 889 z "},"Ґ":{"ha":708,"x_min":83,"x_max":694,"o":"m 83 0 l 83 972 l 569 972 l 569 1111 l 694 1111 l 694 861 l 208 861 l 208 0 l 83 0 z "},"ґ":{"ha":653,"x_min":83,"x_max":625,"o":"m 83 0 l 83 778 l 514 778 l 514 944 l 625 944 l 625 667 l 208 667 l 208 0 l 83 0 z "},"Ғ":{"ha":708,"x_min":83,"x_max":694,"o":"m 111 422 l 111 528 l 528 528 l 528 422 l 111 422 m 83 0 l 83 972 l 694 972 l 694 861 l 208 861 l 208 0 l 83 0 z "},"ғ":{"ha":653,"x_min":14,"x_max":625,"o":"m 14 311 l 14 417 l 417 417 l 417 311 l 14 311 m 83 0 l 83 778 l 625 778 l 625 667 l 208 667 l 208 0 l 83 0 z "},"Ҕ":{"ha":896,"x_min":83,"x_max":819,"o":"m 83 0 l 83 972 l 799 972 l 799 861 l 208 861 l 208 583 l 694 583 l 819 458 l 819 -69 l 694 -194 l 403 -194 l 403 -83 l 694 -83 l 694 472 l 208 472 l 208 0 l 83 0 z "},"ҕ":{"ha":854,"x_min":83,"x_max":778,"o":"m 83 0 l 83 778 l 757 778 l 757 667 l 208 667 l 208 458 l 653 458 l 778 333 l 778 -69 l 653 -194 l 375 -194 l 375 -83 l 653 -83 l 653 347 l 208 347 l 208 0 l 83 0 z "},"Ӷ":{"ha":708,"x_min":83,"x_max":694,"o":"m 83 0 l 83 972 l 694 972 l 694 861 l 208 861 l 208 111 l 294 111 l 294 -194 l 169 -194 l 169 0 l 83 0 z "},"ӷ":{"ha":653,"x_min":83,"x_max":625,"o":"m 83 0 l 83 778 l 625 778 l 625 667 l 208 667 l 208 111 l 294 111 l 294 -194 l 169 -194 l 169 0 l 83 0 z "},"Ђ":{"ha":1097,"x_min":28,"x_max":1021,"o":"m 326 0 l 326 861 l 28 861 l 28 972 l 861 972 l 861 861 l 451 861 l 451 583 l 896 583 l 1021 458 l 1021 125 l 896 0 l 701 0 l 701 111 l 896 111 l 896 472 l 451 472 l 451 0 l 326 0 z "},"ђ":{"ha":861,"x_min":83,"x_max":778,"o":"m 83 0 l 83 972 l 208 972 l 208 861 l 590 861 l 590 764 l 208 764 l 208 667 l 653 667 l 778 542 l 778 -106 l 661 -222 l 514 -222 l 514 -111 l 653 -111 l 653 556 l 208 556 l 208 0 l 83 0 z "},"Ҙ":{"ha":847,"x_min":42,"x_max":792,"o":"m 681 0 l 451 0 l 451 -194 l 326 -194 l 326 0 l 42 0 l 42 111 l 667 111 l 667 444 l 125 444 l 125 556 l 639 556 l 639 861 l 56 861 l 56 972 l 653 972 l 764 861 l 764 568 l 685 508 l 792 425 l 792 111 l 681 0 z "},"ҙ":{"ha":819,"x_min":49,"x_max":743,"o":"m 743 111 l 632 0 l 458 0 l 458 -194 l 333 -194 l 333 0 l 49 0 l 49 111 l 618 111 l 618 342 l 118 342 l 118 453 l 590 453 l 590 667 l 63 667 l 63 778 l 604 778 l 715 667 l 715 465 l 636 406 l 743 322 l 743 111 z "},"Ѐ":{"ha":806,"x_min":83,"x_max":764,"o":"m 83 0 l 83 972 l 750 972 l 750 861 l 208 861 l 208 556 l 681 556 l 681 444 l 208 444 l 208 111 l 764 111 l 764 0 l 83 0 m 604 1083 l 160 1083 l 160 1201 l 604 1167 l 604 1083 z "},"ѐ":{"ha":819,"x_min":76,"x_max":743,"o":"m 76 125 l 76 653 l 201 778 l 743 778 l 743 347 l 201 347 l 201 111 l 715 111 l 715 0 l 201 0 l 76 125 m 201 444 l 624 458 l 624 667 l 201 667 l 201 444 m 611 889 l 167 889 l 167 1007 l 611 972 l 611 889 z "},"Ӗ":{"ha":806,"x_min":83,"x_max":764,"o":"m 83 0 l 83 972 l 750 972 l 750 861 l 208 861 l 208 556 l 681 556 l 681 444 l 208 444 l 208 111 l 764 111 l 764 0 l 83 0 m 546 1236 l 701 1236 l 604 1069 l 243 1069 l 146 1236 l 301 1236 l 319 1160 l 528 1160 l 546 1236 z "},"ӗ":{"ha":819,"x_min":76,"x_max":743,"o":"m 76 125 l 76 653 l 201 778 l 743 778 l 743 347 l 201 347 l 201 111 l 715 111 l 715 0 l 201 0 l 76 125 m 201 444 l 624 458 l 624 667 l 201 667 l 201 444 m 553 1042 l 708 1042 l 611 875 l 250 875 l 153 1042 l 308 1042 l 326 965 l 535 965 l 553 1042 z "},"Ё":{"ha":806,"x_min":83,"x_max":764,"o":"m 83 0 l 83 972 l 750 972 l 750 861 l 208 861 l 208 556 l 681 556 l 681 444 l 208 444 l 208 111 l 764 111 l 764 0 l 83 0 m 208 1069 l 208 1181 l 333 1181 l 333 1069 l 208 1069 m 514 1069 l 514 1181 l 639 1181 l 639 1069 l 514 1069 z "},"ё":{"ha":819,"x_min":76,"x_max":743,"o":"m 76 125 l 76 653 l 201 778 l 743 778 l 743 347 l 201 347 l 201 111 l 715 111 l 715 0 l 201 0 l 76 125 m 201 444 l 624 458 l 624 667 l 201 667 l 201 444 m 215 875 l 215 986 l 340 986 l 340 875 l 215 875 m 521 875 l 521 986 l 646 986 l 646 875 l 521 875 z "},"Є":{"ha":833,"x_min":83,"x_max":792,"o":"m 83 125 l 83 847 l 208 972 l 778 972 l 778 858 l 208 858 l 208 114 l 792 114 l 792 0 l 208 0 l 83 125 m 160 431 l 160 542 l 618 542 l 618 431 l 160 431 z "},"є":{"ha":778,"x_min":76,"x_max":729,"o":"m 201 0 l 76 125 l 76 653 l 201 778 l 729 778 l 729 667 l 201 667 l 201 458 l 701 458 l 701 347 l 201 347 l 201 111 l 729 111 l 729 0 l 201 0 z "},"Ӂ":{"ha":1253,"x_min":8,"x_max":1244,"o":"m 689 0 l 564 0 l 564 438 l 372 438 l 153 0 l 8 0 l 272 514 l 29 972 l 172 972 l 390 549 l 564 549 l 564 972 l 689 972 l 689 549 l 863 549 l 1081 972 l 1224 972 l 981 514 l 1244 0 l 1100 0 l 881 438 l 689 438 l 689 0 m 749 1236 l 904 1236 l 807 1069 l 446 1069 l 349 1236 l 504 1236 l 522 1160 l 731 1160 l 749 1236 z "},"ӂ":{"ha":1319,"x_min":14,"x_max":1306,"o":"m 722 0 l 597 0 l 597 349 l 365 349 l 156 0 l 14 0 l 271 419 l 26 778 l 169 778 l 378 460 l 597 460 l 597 778 l 722 778 l 722 460 l 942 460 l 1150 778 l 1293 778 l 1049 419 l 1306 0 l 1164 0 l 954 349 l 722 349 l 722 0 m 782 1042 l 938 1042 l 840 875 l 479 875 l 382 1042 l 538 1042 l 556 965 l 764 965 l 782 1042 z "},"Ӝ":{"ha":1253,"x_min":8,"x_max":1244,"o":"m 689 0 l 564 0 l 564 438 l 372 438 l 153 0 l 8 0 l 272 514 l 29 972 l 172 972 l 390 549 l 564 549 l 564 972 l 689 972 l 689 549 l 863 549 l 1081 972 l 1224 972 l 981 514 l 1244 0 l 1100 0 l 881 438 l 689 438 l 689 0 m 411 1069 l 411 1181 l 536 1181 l 536 1069 l 411 1069 m 717 1069 l 717 1181 l 842 1181 l 842 1069 l 717 1069 z "},"ӝ":{"ha":1319,"x_min":14,"x_max":1306,"o":"m 722 0 l 597 0 l 597 349 l 365 349 l 156 0 l 14 0 l 271 419 l 26 778 l 169 778 l 378 460 l 597 460 l 597 778 l 722 778 l 722 460 l 942 460 l 1150 778 l 1293 778 l 1049 419 l 1306 0 l 1164 0 l 954 349 l 722 349 l 722 0 m 444 875 l 444 986 l 569 986 l 569 875 l 444 875 m 750 875 l 750 986 l 875 986 l 875 875 l 750 875 z "},"Җ":{"ha":1253,"x_min":0,"x_max":1239,"o":"m 681 0 l 556 0 l 556 438 l 364 438 l 144 0 l 0 0 l 264 514 l 21 972 l 164 972 l 382 549 l 556 549 l 556 972 l 681 972 l 681 549 l 854 549 l 1072 972 l 1215 972 l 972 514 l 1179 111 l 1239 111 l 1239 -194 l 1114 -194 l 1114 0 l 1092 0 l 872 438 l 681 438 l 681 0 z "},"җ":{"ha":1336,"x_min":14,"x_max":1322,"o":"m 722 0 l 597 0 l 597 349 l 365 349 l 156 0 l 14 0 l 271 419 l 26 778 l 169 778 l 378 460 l 597 460 l 597 778 l 722 778 l 722 460 l 942 460 l 1150 778 l 1293 778 l 1049 419 l 1238 111 l 1322 111 l 1322 -194 l 1197 -194 l 1197 0 l 1164 0 l 954 349 l 722 349 l 722 0 z "},"Ӟ":{"ha":847,"x_min":35,"x_max":792,"o":"m 681 0 l 35 0 l 35 111 l 667 111 l 667 444 l 181 444 l 181 556 l 639 556 l 639 861 l 56 861 l 56 972 l 653 972 l 764 861 l 764 568 l 685 508 l 792 425 l 792 111 l 681 0 m 153 1069 l 153 1181 l 278 1181 l 278 1069 l 153 1069 m 458 1069 l 458 1181 l 583 1181 l 583 1069 l 458 1069 z "},"ӟ":{"ha":819,"x_min":49,"x_max":743,"o":"m 743 111 l 632 0 l 49 0 l 49 111 l 618 111 l 618 342 l 118 342 l 118 453 l 590 453 l 590 667 l 63 667 l 63 778 l 604 778 l 715 667 l 715 465 l 636 406 l 743 322 l 743 111 m 118 875 l 118 986 l 243 986 l 243 875 l 118 875 m 424 875 l 424 986 l 549 986 l 549 875 l 424 875 z "},"Ѕ":{"ha":889,"x_min":83,"x_max":806,"o":"m 97 0 l 97 111 l 681 111 l 681 421 l 83 467 l 83 861 l 194 972 l 792 972 l 792 861 l 208 861 l 208 565 l 806 519 l 806 111 l 694 0 l 97 0 z "},"ѕ":{"ha":833,"x_min":76,"x_max":757,"o":"m 76 0 l 76 111 l 632 111 l 632 340 l 76 340 l 76 653 l 201 778 l 757 778 l 757 667 l 201 667 l 201 451 l 757 451 l 757 121 l 636 0 l 76 0 z "},"Ѝ":{"ha":944,"x_min":83,"x_max":861,"o":"m 861 0 l 736 0 l 736 843 l 261 0 l 83 0 l 83 972 l 208 972 l 208 129 l 683 972 l 861 972 l 861 0 m 653 1083 l 208 1083 l 208 1201 l 653 1167 l 653 1083 z "},"ѝ":{"ha":903,"x_min":83,"x_max":819,"o":"m 819 0 l 694 0 l 694 649 l 247 0 l 83 0 l 83 778 l 208 778 l 208 129 l 656 778 l 819 778 l 819 0 m 632 889 l 188 889 l 188 1007 l 632 972 l 632 889 z "},"Ӥ":{"ha":944,"x_min":83,"x_max":861,"o":"m 861 0 l 736 0 l 736 843 l 261 0 l 83 0 l 83 972 l 208 972 l 208 129 l 683 972 l 861 972 l 861 0 m 257 1069 l 257 1181 l 382 1181 l 382 1069 l 257 1069 m 563 1069 l 563 1181 l 688 1181 l 688 1069 l 563 1069 z "},"ӥ":{"ha":903,"x_min":83,"x_max":819,"o":"m 819 0 l 694 0 l 694 649 l 247 0 l 83 0 l 83 778 l 208 778 l 208 129 l 656 778 l 819 778 l 819 0 m 236 875 l 236 986 l 361 986 l 361 875 l 236 875 m 542 875 l 542 986 l 667 986 l 667 875 l 542 875 z "},"Ӣ":{"ha":944,"x_min":83,"x_max":861,"o":"m 861 0 l 736 0 l 736 843 l 261 0 l 83 0 l 83 972 l 208 972 l 208 129 l 683 972 l 861 972 l 861 0 m 236 1103 l 236 1208 l 708 1208 l 708 1103 l 236 1103 z "},"ӣ":{"ha":903,"x_min":83,"x_max":819,"o":"m 819 0 l 694 0 l 694 649 l 247 0 l 83 0 l 83 778 l 208 778 l 208 129 l 656 778 l 819 778 l 819 0 m 215 908 l 215 1014 l 688 1014 l 688 908 l 215 908 z "},"І":{"ha":597,"x_min":63,"x_max":535,"o":"m 63 -6 l 63 106 l 236 113 l 236 860 l 63 867 l 63 978 l 299 967 l 535 978 l 535 867 l 361 860 l 361 113 l 535 106 l 535 -6 l 299 6 l 63 -6 z "},"і":{"ha":292,"x_min":83,"x_max":208,"o":"m 83 0 l 83 778 l 208 778 l 208 0 l 83 0 m 83 875 l 83 986 l 208 986 l 208 875 l 83 875 z "},"Ї":{"ha":597,"x_min":63,"x_max":535,"o":"m 63 -6 l 63 106 l 236 113 l 236 860 l 63 867 l 63 978 l 299 967 l 535 978 l 535 867 l 361 860 l 361 113 l 535 106 l 535 -6 l 299 6 l 63 -6 m 125 1069 l 125 1181 l 250 1181 l 250 1069 l 125 1069 m 347 1069 l 347 1181 l 472 1181 l 472 1069 l 347 1069 z "},"ї":{"ha":292,"x_min":-28,"x_max":319,"o":"m 83 0 l 83 778 l 208 778 l 208 0 l 83 0 m -28 875 l -28 986 l 97 986 l 97 875 l -28 875 m 194 875 l 194 986 l 319 986 l 319 875 l 194 875 z "},"Ј":{"ha":833,"x_min":56,"x_max":750,"o":"m 56 125 l 56 417 l 181 417 l 181 111 l 625 111 l 625 861 l 83 861 l 83 972 l 750 972 l 750 125 l 625 0 l 181 0 l 56 125 z "},"ј":{"ha":292,"x_min":83,"x_max":208,"o":"m 83 -194 l 83 778 l 208 778 l 208 -194 l 83 -194 m 83 875 l 83 986 l 208 986 l 208 875 l 83 875 z "},"Ќ":{"ha":875,"x_min":83,"x_max":867,"o":"m 83 0 l 83 972 l 208 972 l 208 549 l 438 549 l 699 972 l 846 972 l 554 514 l 867 0 l 722 0 l 457 438 l 208 438 l 208 0 l 83 0 m 257 1083 l 257 1167 l 701 1201 l 701 1083 l 257 1083 z "},"ќ":{"ha":861,"x_min":83,"x_max":847,"o":"m 83 0 l 83 778 l 208 778 l 208 460 l 478 460 l 692 778 l 836 778 l 590 419 l 847 0 l 706 0 l 496 349 l 208 349 l 208 0 l 83 0 m 208 889 l 208 972 l 653 1007 l 653 889 l 208 889 z "},"Қ":{"ha":919,"x_min":83,"x_max":906,"o":"m 83 0 l 83 972 l 208 972 l 208 549 l 521 549 l 739 972 l 882 972 l 639 514 l 846 111 l 906 111 l 906 -194 l 781 -194 l 781 0 l 758 0 l 539 438 l 208 438 l 208 0 l 83 0 z "},"қ":{"ha":878,"x_min":83,"x_max":864,"o":"m 83 0 l 83 778 l 208 778 l 208 460 l 478 460 l 692 778 l 836 778 l 590 419 l 779 111 l 864 111 l 864 -194 l 739 -194 l 739 0 l 706 0 l 496 349 l 208 349 l 208 0 l 83 0 z "},"Ҡ":{"ha":1042,"x_min":14,"x_max":1042,"o":"m 14 864 l 14 972 l 347 972 l 347 549 l 660 549 l 878 972 l 1021 972 l 778 514 l 1042 0 l 897 0 l 678 438 l 347 438 l 347 0 l 222 0 l 222 864 l 14 864 z "},"ҡ":{"ha":1014,"x_min":14,"x_max":1000,"o":"m 14 669 l 14 778 l 361 778 l 361 460 l 631 460 l 844 778 l 989 778 l 743 419 l 1000 0 l 858 0 l 649 349 l 361 349 l 361 0 l 236 0 l 236 669 l 14 669 z "},"Ҝ":{"ha":911,"x_min":83,"x_max":903,"o":"m 83 0 l 83 972 l 208 972 l 208 549 l 521 549 l 739 972 l 882 972 l 639 514 l 903 0 l 758 0 l 539 438 l 208 438 l 208 0 l 83 0 m 460 167 l 354 167 l 354 819 l 460 819 l 460 167 z "},"ҝ":{"ha":861,"x_min":83,"x_max":847,"o":"m 83 0 l 83 778 l 208 778 l 208 460 l 478 460 l 692 778 l 836 778 l 590 419 l 847 0 l 706 0 l 496 349 l 208 349 l 208 0 l 83 0 m 442 126 l 336 126 l 336 682 l 442 682 l 442 126 z "},"Ԛ":{"ha":944,"x_min":83,"x_max":917,"o":"m 83 111 l 83 861 l 194 972 l 750 972 l 861 861 l 861 83 l 736 -12 l 736 861 l 208 861 l 208 110 l 917 -12 l 917 -125 l 194 0 l 83 111 z "},"ԛ":{"ha":861,"x_min":76,"x_max":778,"o":"m 778 778 l 778 -194 l 653 -194 l 653 0 l 201 0 l 76 125 l 76 653 l 201 778 l 778 778 m 653 667 l 201 667 l 201 111 l 653 111 l 653 667 z "},"Љ":{"ha":1444,"x_min":28,"x_max":1389,"o":"m 847 972 l 847 764 l 1278 764 l 1389 653 l 1389 111 l 1278 0 l 722 0 l 722 861 l 376 861 l 156 0 l 28 0 l 281 972 l 847 972 m 1264 653 l 847 653 l 847 111 l 1264 111 l 1264 653 z "},"љ":{"ha":1361,"x_min":21,"x_max":1299,"o":"m 21 0 l 21 114 l 121 114 l 242 778 l 778 778 l 778 583 l 1174 583 l 1299 458 l 1299 125 l 1174 0 l 653 0 l 653 669 l 346 669 l 225 0 l 21 0 m 778 111 l 1174 111 l 1174 472 l 778 472 l 778 111 z "},"Ң":{"ha":919,"x_min":83,"x_max":906,"o":"m 83 0 l 83 972 l 208 972 l 208 556 l 694 556 l 694 972 l 819 972 l 819 111 l 906 111 l 906 -194 l 781 -194 l 781 0 l 694 0 l 694 444 l 208 444 l 208 0 l 83 0 z "},"ң":{"ha":878,"x_min":83,"x_max":864,"o":"m 83 0 l 83 778 l 208 778 l 208 444 l 653 444 l 653 778 l 778 778 l 778 111 l 864 111 l 864 -194 l 739 -194 l 739 0 l 653 0 l 653 333 l 208 333 l 208 0 l 83 0 z "},"Ҥ":{"ha":1042,"x_min":83,"x_max":1028,"o":"m 83 0 l 83 972 l 208 972 l 208 556 l 694 556 l 694 972 l 1028 972 l 1028 864 l 819 864 l 819 0 l 694 0 l 694 444 l 208 444 l 208 0 l 83 0 z "},"ҥ":{"ha":1000,"x_min":83,"x_max":986,"o":"m 83 0 l 83 778 l 208 778 l 208 444 l 653 444 l 653 778 l 986 778 l 986 669 l 778 669 l 778 0 l 653 0 l 653 333 l 208 333 l 208 0 l 83 0 z "},"Њ":{"ha":1417,"x_min":83,"x_max":1361,"o":"m 83 0 l 83 972 l 208 972 l 208 556 l 694 556 l 694 972 l 819 972 l 819 764 l 1250 764 l 1361 653 l 1361 111 l 1250 0 l 694 0 l 694 444 l 208 444 l 208 0 l 83 0 m 1236 653 l 819 653 l 819 111 l 1236 111 l 1236 653 z "},"њ":{"ha":1361,"x_min":83,"x_max":1299,"o":"m 653 0 l 653 333 l 208 333 l 208 0 l 83 0 l 83 778 l 208 778 l 208 444 l 653 444 l 653 778 l 778 778 l 778 583 l 1174 583 l 1299 458 l 1299 125 l 1174 0 l 653 0 m 778 111 l 1174 111 l 1174 472 l 778 472 l 778 111 z "},"Ӧ":{"ha":944,"x_min":83,"x_max":861,"o":"m 83 111 l 83 861 l 194 972 l 750 972 l 861 861 l 861 111 l 750 0 l 194 0 l 83 111 m 208 861 l 208 111 l 736 111 l 736 861 l 208 861 m 257 1069 l 257 1181 l 382 1181 l 382 1069 l 257 1069 m 563 1069 l 563 1181 l 688 1181 l 688 1069 l 563 1069 z "},"ӧ":{"ha":833,"x_min":76,"x_max":757,"o":"m 76 125 l 76 653 l 201 778 l 632 778 l 757 653 l 757 125 l 632 0 l 201 0 l 76 125 m 201 111 l 632 111 l 632 667 l 201 667 l 201 111 m 201 875 l 201 986 l 326 986 l 326 875 l 201 875 m 507 875 l 507 986 l 632 986 l 632 875 l 507 875 z "},"Ө":{"ha":903,"x_min":83,"x_max":819,"o":"m 83 111 l 83 861 l 194 972 l 708 972 l 819 861 l 819 111 l 708 0 l 194 0 l 83 111 m 208 861 l 208 542 l 694 542 l 694 861 l 208 861 m 208 111 l 694 111 l 694 431 l 208 431 l 208 111 z "},"ө":{"ha":819,"x_min":76,"x_max":743,"o":"m 76 111 l 76 667 l 188 778 l 632 778 l 743 667 l 743 111 l 632 0 l 188 0 l 76 111 m 201 667 l 201 456 l 618 456 l 618 667 l 201 667 m 201 111 l 618 111 l 618 350 l 201 350 l 201 111 z "},"Ҫ":{"ha":764,"x_min":83,"x_max":722,"o":"m 83 111 l 83 861 l 194 972 l 708 972 l 708 858 l 208 858 l 208 114 l 722 114 l 722 0 l 542 0 l 542 -194 l 417 -194 l 417 0 l 194 0 l 83 111 z "},"ҫ":{"ha":757,"x_min":76,"x_max":715,"o":"m 76 125 l 76 653 l 201 778 l 715 778 l 715 667 l 201 667 l 201 111 l 715 111 l 715 0 l 535 0 l 535 -194 l 410 -194 l 410 0 l 201 0 l 76 125 z "},"Ћ":{"ha":1104,"x_min":28,"x_max":1021,"o":"m 326 0 l 326 861 l 28 861 l 28 972 l 861 972 l 861 861 l 451 861 l 451 583 l 896 583 l 1021 458 l 1021 0 l 896 0 l 896 472 l 451 472 l 451 0 l 326 0 z "},"ћ":{"ha":861,"x_min":83,"x_max":778,"o":"m 83 0 l 83 972 l 208 972 l 208 667 l 653 667 l 778 542 l 778 0 l 653 0 l 653 556 l 208 556 l 208 0 l 83 0 m 104 764 l 104 861 l 590 861 l 590 764 l 104 764 z "}}}
